<svg width="384" height="337" viewBox="0 0 384 337" fill="none" xmlns="http://www.w3.org/2000/svg">
<path d="M67.0348 7.83332C65.4139 8.06654 63.955 8.78448 62.8596 9.8088C61.4793 11.0892 60.6246 12.868 60.6246 14.8115C60.6246 25.5669 60.6246 36.3177 60.6246 47.0731C60.6246 49.012 50.9282 36.5463 52.3036 37.8268C53.679 39.1072 66.131 54.1427 68.2137 54.1427H71.1954C73.4893 54.1427 75.3559 55.8804 75.3559 58.016C75.3559 60.1515 73.4893 61.8892 71.1954 61.8892H68.2137C63.8322 61.8892 59.8485 60.2201 56.97 57.5404C54.0965 54.8653 52.3036 51.1475 52.3036 47.0731V28.5804H26.083C21.2053 28.5804 16.7599 30.4461 13.5425 33.4414C10.3251 36.4366 8.32102 40.575 8.32102 45.1205V79.824H375.679V45.1205C375.679 40.575 373.675 36.4366 370.457 33.4414C367.24 30.4461 362.795 28.5804 357.917 28.5804C344.266 28.5804 330.621 28.5804 316.97 28.5804V42.2304C316.97 44.366 315.104 46.1036 312.81 46.1036C310.516 46.1036 308.649 44.366 308.649 42.2304C308.649 30.7662 308.649 19.2975 308.649 7.83332C307.028 8.06654 305.569 8.78448 304.474 9.8088C303.094 11.0892 302.239 12.868 302.239 14.8115C302.239 25.5669 302.239 36.3177 302.239 47.0731C302.239 49.012 303.094 50.7817 304.469 52.0621C305.844 53.3425 307.745 54.1427 309.828 54.1427H312.81C315.104 54.1427 316.97 55.8804 316.97 58.016C316.97 60.1515 315.104 61.8892 312.81 61.8892H309.828C305.446 61.8892 301.463 60.2201 298.584 57.5404C295.711 54.8653 293.918 51.1475 293.918 47.0731V28.5804C281.466 28.5804 269.019 28.585 256.567 28.5804V42.2304C256.567 44.366 254.7 46.1036 252.406 46.1036C250.112 46.1036 248.245 44.366 248.245 42.2304C248.245 30.7662 248.245 19.2975 248.245 7.83332C246.625 8.06654 245.166 8.78448 244.07 9.8088C242.69 11.0892 241.835 12.868 241.835 14.8115C241.835 25.5669 241.835 36.3177 241.835 47.0731C241.835 49.012 242.69 50.7817 244.065 52.0621C245.441 53.3425 247.342 54.1427 249.424 54.1427H252.406C254.7 54.1427 256.567 55.8804 256.567 58.016C256.567 60.1515 254.7 61.8892 252.406 61.8892H249.424C245.043 61.8892 241.059 60.2201 238.181 57.5404C235.307 54.8653 233.514 51.1475 233.514 47.0731V28.5804C221.062 28.5804 208.615 28.5804 196.163 28.5804V42.2304C196.163 44.366 194.296 46.1036 192.002 46.1036C189.709 46.1036 187.842 44.366 187.842 42.2304C187.842 30.7662 187.842 19.2975 187.842 7.83332C186.221 8.06654 184.762 8.78448 183.667 9.8088C182.286 11.0892 181.432 12.868 181.432 14.8115C181.432 25.5669 181.432 36.3177 181.432 47.0731C181.432 49.012 182.286 50.7817 183.662 52.0621C185.037 53.3425 186.938 54.1427 189.021 54.1427H192.002C194.296 54.1427 196.163 55.8804 196.163 58.016C196.163 60.1515 194.296 61.8892 192.002 61.8892H189.021C184.639 61.8892 180.656 60.2201 177.777 57.5404C174.904 54.8653 173.111 51.1475 173.111 47.0731V28.5804C160.659 28.5804 148.211 28.5804 135.759 28.5804V42.2304C135.759 44.366 133.893 46.1036 131.599 46.1036C129.305 46.1036 127.438 44.366 127.438 42.2304C127.438 30.7662 127.438 19.2975 127.438 7.83332C125.817 8.06654 124.359 8.78448 123.263 9.8088C121.883 11.0892 121.028 12.868 121.028 14.8115C121.028 25.5669 121.028 36.3177 121.028 47.0731C121.028 49.012 121.883 50.7817 123.258 52.0621C124.634 53.3425 126.535 54.1427 128.617 54.1427H131.599C133.893 54.1427 135.759 55.8804 135.759 58.016C135.759 60.1515 133.893 61.8892 131.599 61.8892H128.617C124.236 61.8892 120.252 60.2201 117.374 57.5404C114.5 54.8653 112.707 51.1475 112.707 47.0731V28.5804C100.255 28.5804 87.8079 28.5804 75.3559 28.5804V42.2304C75.3559 44.366 73.4893 46.1036 71.1954 46.1036C68.9014 46.1036 67.0348 44.366 67.0348 42.2304C67.0348 30.7662 67.0348 19.2975 67.0348 7.83332ZM8.32102 87.5704V312.427C8.32102 316.973 10.3251 321.111 13.5425 324.106C16.7599 327.102 21.2053 328.967 26.083 328.967H357.917C362.795 328.967 367.24 327.102 370.457 324.106C373.675 321.111 375.679 316.973 375.679 312.427V87.5704H8.32102ZM316.97 20.834H323.38V14.8115C323.38 12.8726 322.526 11.1075 321.15 9.82709C320.04 8.79362 318.586 8.07111 316.97 7.83332V20.834ZM331.701 20.834H357.917C365.089 20.834 371.622 23.5686 376.342 27.9631C381.063 32.3576 384 38.4349 384 45.1205C384 134.223 384 223.325 384 312.427C384 319.113 381.063 325.19 376.342 329.585C371.622 333.979 365.089 336.714 357.917 336.714H26.083C18.9114 336.714 12.3784 333.979 7.6579 329.585C2.93741 325.19 0 319.113 0 312.427C0 223.325 0 134.223 0 45.1205C0 38.4349 2.93741 32.3576 7.6579 27.9631C12.3784 23.5686 18.9114 20.834 26.083 20.834H52.3036V14.8115C52.3036 10.76 54.0965 7.05136 56.9749 4.36709C59.8829 1.6691 63.8666 0 68.2137 0H74.177C78.5585 0 82.5422 1.6691 85.4207 4.3488C88.2942 7.02392 90.0871 10.7325 90.0871 14.8115V20.834H112.707V14.8115C112.707 10.76 114.5 7.05136 117.379 4.36709C120.286 1.6691 124.27 0 128.617 0H134.581C138.962 0 142.946 1.6691 145.824 4.3488C148.698 7.02392 150.491 10.7325 150.491 14.8115V20.834H173.111V14.8115C173.111 10.76 174.904 7.05136 177.782 4.36709C180.69 1.6691 184.674 0 189.021 0H194.984C199.366 0 203.349 1.6691 206.228 4.3488C209.101 7.02392 210.894 10.7325 210.894 14.8115V20.834H233.514V14.8115C233.514 10.76 235.307 7.05136 238.186 4.36709C241.094 1.6691 245.077 0 249.424 0H255.388C259.769 0 263.753 1.6691 266.631 4.3488C269.505 7.02392 271.298 10.7325 271.298 14.8115V20.834H293.918V14.8115C293.918 10.76 295.711 7.05136 298.589 4.36709C301.497 1.6691 305.481 0 309.828 0H315.791C320.173 0 324.156 1.6691 327.035 4.3488C329.908 7.02392 331.701 10.7325 331.701 14.8115V20.834ZM256.567 20.834H262.977V14.8115C262.977 12.8726 262.122 11.1075 260.747 9.82709C259.637 8.79362 258.183 8.07111 256.567 7.83332V20.834ZM196.163 20.834H202.573V14.8115C202.573 12.8726 201.719 11.1075 200.343 9.82709C199.233 8.79362 197.779 8.07111 196.163 7.83332V20.834ZM135.759 20.834H142.17V14.8115C142.17 12.8726 141.315 11.1075 139.94 9.82709C138.829 8.79362 137.375 8.07111 135.759 7.83332V20.834ZM75.3559 20.834H81.7661V14.8115C81.7661 12.8726 80.9114 11.1075 79.536 9.82709C78.4259 8.79362 76.9719 8.07111 75.3559 7.83332V20.834Z" fill="#F4F4F4"/>
</svg>
