<?xml version="1.0" encoding="UTF-8"?>
<svg version="1.1" xmlns="http://www.w3.org/2000/svg" width="302" height="355">
<path d="M0 0 C1.65 0.33 3.3 0.66 5 1 C5 19.15 5 37.3 5 56 C10.28 56 15.56 56 21 56 C32.41434748 38.936127 31.33551283 20.74709728 31 1 C32.9375 0.4375 32.9375 0.4375 35 0 C37.67531216 2.67531216 36.50289749 10.28290392 36.625 13.875 C36.69255493 15.80702271 36.69255493 15.80702271 36.76147461 17.77807617 C37.16835777 30.87634079 36.6979863 43.91552659 36 57 C38.97 57 41.94 57 45 57 C45.33 58.65 45.66 60.3 46 62 C44 63 44 63 36 63 C36 80.16 36 97.32 36 115 C38.97 115 41.94 115 45 115 C45 116.65 45 118.3 45 120 C42.03 120 39.06 120 36 120 C36 127.92 36 135.84 36 144 C38.97 144 41.94 144 45 144 C45 145.65 45 147.3 45 149 C42.03 149 39.06 149 36 149 C36 166.49 36 183.98 36 202 C38.97 202 41.94 202 45 202 C45 203.65 45 205.3 45 207 C42.03 207 39.06 207 36 207 C36 214.59 36 222.18 36 230 C38.97 230 41.94 230 45 230 C45 231.65 45 233.3 45 235 C43.02 235.33 41.04 235.66 39 236 C39.42708252 236.87922119 39.85416504 237.75844238 40.29418945 238.66430664 C48.46216085 255.48227047 56.61174968 272.3080525 64.65722656 289.18505859 C67.1629476 294.43796107 69.6758632 299.68742432 72.1875 304.9375 C74.5696875 309.9184375 74.5696875 309.9184375 77 315 C88.88 315.33 100.76 315.66 113 316 C113 317.65 113 319.3 113 321 C-47.73061757 322.1041509 -47.73061757 322.1041509 -125.58528394 322.12283063 C-130.58156771 322.1241178 -135.57784559 322.12786882 -140.5741272 322.13256836 C-147.22500446 322.13860311 -153.87586307 322.138721 -160.52674294 322.13431931 C-162.94388631 322.13332438 -165.36103091 322.1339059 -167.77817345 322.13615799 C-171.03313032 322.13867245 -174.28801718 322.13496953 -177.54296875 322.12939453 C-178.97731246 322.13243465 -178.97731246 322.13243465 -180.44063282 322.13553619 C-186.8856393 322.1143607 -186.8856393 322.1143607 -188 321 C-188 319.35 -188 317.7 -188 316 C-176.45 315.67 -164.9 315.34 -153 315 C-138.63795782 286.01004055 -138.63795782 286.01004055 -125.00488281 256.67480469 C-121.88167189 249.67150443 -118.51281174 242.8162506 -115 236 C-116.98 235.67 -118.96 235.34 -121 235 C-121 233.35 -121 231.7 -121 230 C-118.03 230 -115.06 230 -112 230 C-112 222.41 -112 214.82 -112 207 C-114.97 207 -117.94 207 -121 207 C-121 205.35 -121 203.7 -121 202 C-118.03 202 -115.06 202 -112 202 C-112 184.51 -112 167.02 -112 149 C-114.97 149 -117.94 149 -121 149 C-121 147.35 -121 145.7 -121 144 C-118.03 144 -115.06 144 -112 144 C-112 136.08 -112 128.16 -112 120 C-114.97 120 -117.94 120 -121 120 C-121 118.35 -121 116.7 -121 115 C-118.03 115 -115.06 115 -112 115 C-112 97.51 -112 80.02 -112 62 C-114.97 62 -117.94 62 -121 62 C-121 60.35 -121 58.7 -121 57 C-118.03 57 -115.06 57 -112 57 C-112 38.52 -112 20.04 -112 1 C-110.35 1 -108.7 1 -107 1 C-107 19.48 -107 37.96 -107 57 C-59.48 56.505 -59.48 56.505 -11 56 C-3.88510062 40.97965686 -0.66636071 33.27007013 -1 17.875 C-1.00819157 15.44499601 -1.00404406 13.01524159 -0.99829102 10.5852356 C-0.99940775 9.09501268 -1.01115828 7.60474959 -1.03491211 6.11471558 C-1.05845113 4.40993317 -1.03418284 2.7046022 -1 1 C-0.67 0.67 -0.34 0.34 0 0 Z M-2 49 C-3.485 52.96 -3.485 52.96 -5 57 C-3.68 57 -2.36 57 -1 57 C-1 54.36 -1 51.72 -1 49 C-1.33 49 -1.66 49 -2 49 Z M30 49 C27.7986134 52.80427492 27.7986134 52.80427492 27 57 C28.32 57 29.64 57 31 57 C31 54.36 31 51.72 31 49 C30.67 49 30.34 49 30 49 Z M-107 62 C-107 79.49 -107 96.98 -107 115 C-104.36 115 -101.72 115 -99 115 C-98.89042969 113.90300781 -98.78085938 112.80601562 -98.66796875 111.67578125 C-98.50844334 110.22128484 -98.34825187 108.76686137 -98.1875 107.3125 C-98.11724609 106.59126953 -98.04699219 105.87003906 -97.97460938 105.12695312 C-97.47516491 100.75181964 -96.73528623 97.60341233 -94 94 C-90.99712912 92.49856456 -87.916891 92.73425982 -84.625 92.6875 C-83.95210937 92.65849609 -83.27921875 92.62949219 -82.5859375 92.59960938 C-79.17479492 92.55596287 -77.3471166 92.73641715 -74.59765625 94.82421875 C-70.90273997 99.85617076 -70.69260874 105.92842885 -70.24609375 111.9609375 C-70.21380776 113.99195453 -70.21380776 113.99195453 -69 115 C-66.32941149 115.14115161 -63.67567762 115.04247107 -61 115 C-60.82984375 113.83082031 -60.6596875 112.66164062 -60.484375 111.45703125 C-60.24039952 109.90872533 -59.99556229 108.36055504 -59.75 106.8125 C-59.64042969 106.04357422 -59.53085938 105.27464844 -59.41796875 104.48242188 C-58.64007423 99.71270022 -57.78793715 96.31444501 -54 93 C-51.328125 92.57421875 -51.328125 92.57421875 -48.25 92.6875 C-41.29159492 92.45948447 -36.51226596 90.20334606 -30.55761719 86.8815918 C-26.67351167 84.72861736 -23.50831067 83.44595345 -19 83 C-19 84.65 -19 86.3 -19 88 C-19.54527344 88.15855469 -20.09054688 88.31710938 -20.65234375 88.48046875 C-26.48511423 90.28513791 -31.9216018 92.56527979 -37 96 C-38.58696844 99.17393689 -38.1431447 102.58174205 -38.125 106.0625 C-38.12886719 106.80822266 -38.13273437 107.55394531 -38.13671875 108.32226562 C-38.47211152 111.95917324 -38.47211152 111.95917324 -37 115 C-34.3337397 115.08855161 -31.69352886 115.11524673 -29.02734375 115.09765625 C-27.83087975 115.09553383 -27.83087975 115.09553383 -26.61024475 115.09336853 C-24.05262565 115.08775316 -21.49509282 115.07519812 -18.9375 115.0625 C-17.20768355 115.05748698 -15.47786574 115.05292373 -13.74804688 115.04882812 C-9.49866447 115.03777875 -5.24934688 115.02050386 -1 115 C-0.42716856 107.30428236 -2.10254201 102.51046036 -5.59375 95.71484375 C-6.05986694 94.77314835 -6.52598389 93.83145294 -7.00622559 92.86122131 C-8.48758224 89.87803691 -9.99324032 86.90792092 -11.5 83.9375 C-12.5133535 81.90771635 -13.52508978 79.87712447 -14.53515625 77.84570312 C-17.00480169 72.88763 -19.49447476 67.94002991 -22 63 C-32.90291768 62.19449701 -43.72574024 61.86197376 -54.65625 61.90234375 C-56.18037875 61.90421595 -57.70450812 61.90563605 -59.2286377 61.90663147 C-63.18058017 61.91039363 -67.13248407 61.92016755 -71.08441162 61.93133545 C-75.85797835 61.94351753 -80.63155819 61.9479819 -85.40513611 61.95378876 C-92.60345065 61.96338475 -99.80168107 61.98258471 -107 62 Z M-16 62 C-13.74588334 69.37780846 -10.69783441 76.13894512 -7.3125 83.0625 C-6.80138672 84.11888672 -6.29027344 85.17527344 -5.76367188 86.26367188 C-4.51396126 88.84484987 -3.25932878 91.4235047 -2 94 C-1.67 94 -1.34 94 -1 94 C-1 83.77 -1 73.54 -1 63 C-5.95 62.67 -10.9 62.34 -16 62 Z M5 63 C4.184481 69.07018701 4.184481 69.07018701 3.82299805 75.0859375 C3.81016281 75.78025879 3.79732758 76.47458008 3.78410339 77.18994141 C3.77671646 77.91101074 3.76932953 78.63208008 3.76171875 79.375 C3.753647 80.14376465 3.74557526 80.9125293 3.73725891 81.70458984 C3.72353049 83.31801165 3.71275896 84.93146113 3.70483398 86.54492188 C3.69327738 88.1817283 3.67276772 89.81849598 3.64331055 91.45507812 C3.60042252 93.84530703 3.58444355 96.23443316 3.57421875 98.625 C3.55671066 99.34606934 3.53920258 100.06713867 3.52116394 100.81005859 C3.54720657 106.99072206 4.91978669 108.83957338 8 115 C15.59 115 23.18 115 31 115 C31 97.84 31 80.68 31 63 C22.42 63 13.84 63 5 63 Z M-93 104 C-93 106.31 -93 108.62 -93 111 C-92.67 111 -92.34 111 -92 111 C-92 108.69 -92 106.38 -92 104 C-92.33 104 -92.66 104 -93 104 Z M-55 105 C-55 108.3 -55 111.6 -55 115 C-54.67 115 -54.34 115 -54 115 C-54 111.7 -54 108.4 -54 105 C-54.33 105 -54.66 105 -55 105 Z M-107 120 C-107 127.92 -107 135.84 -107 144 C-102.05 144 -97.1 144 -92 144 C-91.91861574 141.12442297 -91.85932149 138.25117738 -91.8125 135.375 C-91.78736328 134.56675781 -91.76222656 133.75851563 -91.73632812 132.92578125 C-91.67410039 127.82310684 -92.24508449 124.46860312 -95 120 C-98.96 120 -102.92 120 -107 120 Z M-70.1953125 121.96875 C-71.63672705 124.25762938 -72.80860362 126.57596659 -74 129 C-74.99 129.495 -74.99 129.495 -76 130 C-76.47001033 133.27555608 -76.47001033 133.27555608 -76.625 137.0625 C-76.74875 139.351875 -76.8725 141.64125 -77 144 C-69.08 144 -61.16 144 -53 144 C-53.495 132.12 -53.495 132.12 -54 120 C-62.67193616 118.726155 -62.67193616 118.726155 -70.1953125 121.96875 Z M-38 122 C-38.29381066 124.21319511 -38.29381066 124.21319511 -38.23046875 126.75390625 C-38.22853516 127.69041016 -38.22660156 128.62691406 -38.22460938 129.59179688 C-38.21236328 130.57212891 -38.20011719 131.55246094 -38.1875 132.5625 C-38.18685547 133.54669922 -38.18621094 134.53089844 -38.18554688 135.54492188 C-38.58110673 140.11238254 -38.58110673 140.11238254 -37 144 C-34.3337397 144.08855161 -31.69352886 144.11524673 -29.02734375 144.09765625 C-28.22970108 144.0962413 -27.43205841 144.09482635 -26.61024475 144.09336853 C-24.05262565 144.08775316 -21.49509282 144.07519812 -18.9375 144.0625 C-17.20768355 144.05748698 -15.47786574 144.05292373 -13.74804688 144.04882812 C-9.49863761 144.03862791 -5.24941584 144.01905568 -1 144 C-1 136.08 -1 128.16 -1 120 C-5.9481472 119.95413664 -10.89555974 119.9142978 -15.84375 119.89013672 C-17.52769466 119.88006683 -19.21162179 119.86641012 -20.89550781 119.84912109 C-23.31319501 119.82491574 -25.73065143 119.81352704 -28.1484375 119.8046875 C-29.28132706 119.78920364 -29.28132706 119.78920364 -30.43710327 119.77340698 C-34.67891958 119.61902318 -34.67891958 119.61902318 -38 122 Z M11 120 C12.45731051 123.25046212 13.91580586 126.5003836 15.375 129.75 C15.7875 130.67039063 16.2 131.59078125 16.625 132.5390625 C17.02460938 133.42851562 17.42421875 134.31796875 17.8359375 135.234375 C18.20251465 136.05131836 18.5690918 136.86826172 18.94677734 137.70996094 C19.92061397 139.82738967 20.95770808 141.91541616 22 144 C24.97 144 27.94 144 31 144 C31 136.08 31 128.16 31 120 C24.4 120 17.8 120 11 120 Z M4 121 C4 128.59 4 136.18 4 144 C7.96 144 11.92 144 16 144 C13.60292686 135.82175048 9.91141228 128.53348722 6 121 C5.34 121 4.68 121 4 121 Z M-76 123 C-76 123.99 -76 124.98 -76 126 C-75.34 126 -74.68 126 -74 126 C-74.33 125.01 -74.66 124.02 -75 123 C-75.33 123 -75.66 123 -76 123 Z M-85 131 C-85.33 135.29 -85.66 139.58 -86 144 C-85.01 143.67 -84.02 143.34 -83 143 C-83.33 139.04 -83.66 135.08 -84 131 C-84.33 131 -84.66 131 -85 131 Z M-47 142 C-47 142.66 -47 143.32 -47 144 C-46.34 143.67 -45.68 143.34 -45 143 C-45.66 142.67 -46.32 142.34 -47 142 Z M-107 149 C-107 166.49 -107 183.98 -107 202 C-102.05 202 -97.1 202 -92 202 C-91.896875 199.999375 -91.79375 197.99875 -91.6875 195.9375 C-91.25783897 190.6073807 -90.91329348 186.52062782 -88 182 C-84.8125 180.5625 -84.8125 180.5625 -82 180 C-82.350625 179.319375 -82.70125 178.63875 -83.0625 177.9375 C-84.24958641 174.2179626 -83.92419296 171.76786361 -83 168 C-80 166 -80 166 -77 166.125 C-74 167 -74 167 -72 168.625 C-70.49792958 172.19241725 -71.6738941 174.48581938 -73 178 C-74.96822886 179.96822886 -78.34808709 179.66248381 -81 180 C-80.04454634 181.46022163 -79.08553322 182.91811468 -78.125 184.375 C-77.59132813 185.18710938 -77.05765625 185.99921875 -76.5078125 186.8359375 C-75.04134945 189.07594096 -75.04134945 189.07594096 -73 191 C-71.00403416 191.05948831 -71.00403416 191.05948831 -69 190 C-67.10231694 187.69870266 -67.10231694 187.69870266 -65.4375 184.9375 C-63.68359375 182.15234375 -63.68359375 182.15234375 -62 180 C-61.01 180 -60.02 180 -59 180 C-59.78116661 184.36068957 -62.13598401 187.18397836 -64.72265625 190.68359375 C-66.19080136 193.3460098 -66.24816061 195.00623266 -66 198 C-67.65 198.66 -69.3 199.32 -71 200 C-71 200.66 -71 201.32 -71 202 C-56.81 202 -42.62 202 -28 202 C-27.67 197.71 -27.34 193.42 -27 189 C-25.8125 184.8125 -25.8125 184.8125 -24 182 C-20.8125 180.5625 -20.8125 180.5625 -18 180 C-18.53625 179.319375 -19.0725 178.63875 -19.625 177.9375 C-21 175 -21 175 -20.375 171.3125 C-19 168 -19 168 -16 166 C-12.58074001 166.35069333 -10.02149944 167.43472216 -7 169 C-7.30798326 170.48011371 -7.621518 171.95907325 -7.9375 173.4375 C-8.11152344 174.26121094 -8.28554687 175.08492187 -8.46484375 175.93359375 C-9 178 -9 178 -10 179 C-12.32817964 179.36760731 -14.6618385 179.70241581 -17 180 C-13.78819342 185.63091197 -10.9003883 190.26649409 -4.75 193 C-3 194 -3 194 -2.25 196.125 C-2.1675 196.74375 -2.085 197.3625 -2 198 C-7.04583909 197.5194439 -9.87090845 195.84448529 -14 193 C-14.99 193 -15.98 193 -17 193 C-17.020625 194.299375 -17.04125 195.59875 -17.0625 196.9375 C-17.07410156 197.66839844 -17.08570313 198.39929688 -17.09765625 199.15234375 C-17.20561184 201.01732141 -17.20561184 201.01732141 -16 202 C-11.05 202 -6.1 202 -1 202 C-1 184.51 -1 167.02 -1 149 C-35.98 149 -70.96 149 -107 149 Z M4 149 C4 166.49 4 183.98 4 202 C12.91 202 21.82 202 31 202 C31 184.51 31 167.02 31 149 C22.09 149 13.18 149 4 149 Z M-80 192 C-81.4783226 194.95664519 -81.06032783 197.74229737 -81 201 C-79.68 201 -78.36 201 -77 201 C-75.21030974 198.57327433 -75.21030974 198.57327433 -74 196 C-75.98 194.68 -77.96 193.36 -80 192 Z M-107 207 C-107 214.59 -107 222.18 -107 230 C-100.73 230 -94.46 230 -88 230 C-87.2406751 226.9627004 -86.87219653 224.97422949 -86.8671875 221.9609375 C-86.86589844 221.21585938 -86.86460938 220.47078125 -86.86328125 219.703125 C-86.86908203 218.55070313 -86.86908203 218.55070313 -86.875 217.375 C-86.87113281 216.59898437 -86.86726563 215.82296875 -86.86328125 215.0234375 C-86.76840575 210.87930621 -86.76840575 210.87930621 -88 207 C-94.27 207 -100.54 207 -107 207 Z M-78 210 C-78.33 216.6 -78.66 223.2 -79 230 C-60.85 230 -42.7 230 -24 230 C-23.11327536 225.56637682 -22.86614152 221.86625122 -22.875 217.375 C-22.87242187 216.06273437 -22.86984375 214.75046875 -22.8671875 213.3984375 C-22.84133139 210.01110606 -22.84133139 210.01110606 -24 207 C-31.20818345 206.92405187 -38.41626405 206.87144322 -45.62475586 206.83520508 C-48.07792008 206.82010119 -50.53105724 206.79961679 -52.98413086 206.77368164 C-56.50641555 206.73736943 -60.02834381 206.72028964 -63.55078125 206.70703125 C-64.65086014 206.69154739 -65.75093903 206.67606354 -66.88435364 206.66011047 C-67.90518539 206.65988388 -68.92601715 206.65965729 -69.9777832 206.65942383 C-71.32680473 206.64943108 -71.32680473 206.64943108 -72.70307922 206.63923645 C-75.4245298 206.8357027 -75.4245298 206.8357027 -78 210 Z M-15 207 C-14.979375 209.124375 -14.95875 211.24875 -14.9375 213.4375 C-14.93179706 219.05490056 -15.23306605 224.43972884 -16 230 C-11.05 230 -6.1 230 -1 230 C-1 222.41 -1 214.82 -1 207 C-5.62 207 -10.24 207 -15 207 Z M4 207 C4 214.59 4 222.18 4 230 C12.91 230 21.82 230 31 230 C31 222.41 31 214.82 31 207 C22.09 207 13.18 207 4 207 Z M-107 235 C-107 259.09 -107 283.18 -107 308 C-104.36855843 304.49141124 -102.4621971 301.11708844 -100.59375 297.19921875 C-100.1117791 296.20183937 -100.1117791 296.20183937 -99.62007141 295.18431091 C-98.57584466 293.02070371 -97.53782239 290.85418549 -96.5 288.6875 C-95.77987823 287.19173214 -95.05941696 285.69612768 -94.33862305 284.20068359 C-92.55011073 280.48723487 -90.76679566 276.77131896 -88.98529053 273.05450439 C-88.07698385 271.1605249 -87.16714988 269.26729214 -86.25634766 267.37451172 C-84.77317523 264.29224391 -83.29203173 261.20901683 -81.8125 258.125 C-81.39226562 257.24932373 -80.97203125 256.37364746 -80.5390625 255.47143555 C-78.39831695 250.99119805 -76.28535161 246.4981174 -74.19921875 241.9921875 C-73.77858154 241.08581543 -73.35794434 240.17944336 -72.92456055 239.24560547 C-71.8730952 237.09651718 -71.8730952 237.09651718 -72 235 C-83.55 235 -95.1 235 -107 235 Z M-66 235 C-81.60337348 266.95003162 -81.60337348 266.95003162 -97 299 C-97.58007812 300.21405518 -97.58007812 300.21405518 -98.171875 301.45263672 C-99.20242186 303.61215855 -100.22753365 305.77414307 -101.25 307.9375 C-102.06210938 309.65259766 -102.06210938 309.65259766 -102.890625 311.40234375 C-104.13091688 313.83577678 -104.13091688 313.83577678 -104 316 C-101.69 316 -99.38 316 -97 316 C-89.51530032 300.5002907 -82.13514493 284.95418932 -74.8203125 269.3737793 C-70.49937836 260.17232209 -66.15318978 250.98370307 -61.74169922 241.82519531 C-59.85733831 238.54286124 -59.85733831 238.54286124 -59 235 C-61.31 235 -63.62 235 -66 235 Z M-53 235 C-55.64 240.28 -58.28 245.56 -61 251 C-63.80078125 256.56640625 -63.80078125 256.56640625 -65.05517578 259.05908203 C-74.48721202 277.83890719 -83.45202374 296.80208609 -92 316 C-83.75 316 -75.5 316 -67 316 C-66.505 314.515 -66.505 314.515 -66 313 C-65.01 312.01 -65.01 312.01 -64 311 C-64.495 310.38125 -64.99 309.7625 -65.5 309.125 C-68.7012099 302.45581271 -67.2370112 295.59114429 -64.94921875 288.8125 C-64 287 -64 287 -61 285 C-58.6875 284.875 -58.6875 284.875 -56 286 C-54.44043154 287.90515465 -53.08111348 289.90555209 -51.69140625 291.9375 C-49.38753845 294.74683533 -46.75436262 296.18320378 -43.5390625 297.796875 C-43.03117187 298.19390625 -42.52328125 298.5909375 -42 299 C-42 300.32 -42 301.64 -42 303 C-47.264829 301.18454172 -51.4943313 299.26660981 -56 296 C-56 298.64 -56 301.28 -56 304 C-55.30132812 304.09796875 -54.60265625 304.1959375 -53.8828125 304.296875 C-52.97273438 304.44640625 -52.06265625 304.5959375 -51.125 304.75 C-50.22007812 304.88921875 -49.31515625 305.0284375 -48.3828125 305.171875 C-46 306 -46 306 -44.6796875 308.078125 C-44.34324219 309.02945313 -44.34324219 309.02945313 -44 310 C-46.21934164 313.32901247 -47.34683329 313.75023244 -51 315 C-51 315.33 -51 315.66 -51 316 C-45.72 316 -40.44 316 -35 316 C-34.67 304.12 -34.34 292.24 -34 280 C-33.01 279.67 -32.02 279.34 -31 279 C-31 280.65 -31 282.3 -31 284 C-27.11985064 282.47940093 -25.26093438 280.13921469 -22.75 276.875 C-21.69039062 275.50988281 -21.69039062 275.50988281 -20.609375 274.1171875 C-20.07828125 273.41851562 -19.5471875 272.71984375 -19 272 C-16.11328125 272.32421875 -16.11328125 272.32421875 -13 273 C-8.82237541 279.48252092 -8.18908928 286.44276264 -9 294 C-10.6875 296.875 -10.6875 296.875 -13 299 C-13.9075 299.928125 -14.815 300.85625 -15.75 301.8125 C-16.4925 302.534375 -17.235 303.25625 -18 304 C-17.36191406 304.69867188 -16.72382813 305.39734375 -16.06640625 306.1171875 C-15.24011719 307.02726562 -14.41382813 307.93734375 -13.5625 308.875 C-12.73878906 309.77992188 -11.91507812 310.68484375 -11.06640625 311.6171875 C-9 314 -9 314 -8 316 C-5.69 316 -3.38 316 -1 316 C-1 289.27 -1 262.54 -1 235 C-18.16 235 -35.32 235 -53 235 Z M4 235 C4 261.73 4 288.46 4 316 C12.91 316 21.82 316 31 316 C31 289.27 31 262.54 31 235 C22.09 235 13.18 235 4 235 Z M-113 244 C-120.93974232 260.42229842 -128.87147865 276.84816747 -136.71972656 293.31445312 C-137.59328548 295.14686122 -138.46767003 296.97887588 -139.34277344 298.81054688 C-140.62636419 301.4977427 -141.90733567 304.18617048 -143.1875 306.875 C-143.57462158 307.68469238 -143.96174316 308.49438477 -144.3605957 309.32861328 C-146.1806312 312.5368636 -146.1806312 312.5368636 -147 316 C-135.45 316 -123.9 316 -112 316 C-112 292.24 -112 268.48 -112 244 C-112.33 244 -112.66 244 -113 244 Z M36 244 C36 267.76 36 291.52 36 316 C47.55 316 59.1 316 71 316 C64.82398565 301.6769029 58.03889505 287.68410728 51.19906616 273.67050171 C50.83688995 272.9284549 50.47471375 272.18640808 50.1015625 271.421875 C49.74413971 270.68973785 49.38671692 269.95760071 49.01846313 269.20327759 C44.93826413 260.83717216 40.94975002 252.42838396 37 244 C36.67 244 36.34 244 36 244 Z M-24.375 285.875 C-26.54023305 287.78224784 -28.58521528 289.39014352 -31 291 C-31.41709358 293.61690757 -31.41709358 293.61690757 -31.29296875 296.6640625 C-31.28330078 297.78554688 -31.27363281 298.90703125 -31.26367188 300.0625 C-31.23853516 301.238125 -31.21339844 302.41375 -31.1875 303.625 C-31.17396484 304.80835938 -31.16042969 305.99171875 -31.14648438 307.2109375 C-31.11104228 310.14081751 -31.05723405 313.07046466 -31 316 C-27.04 316 -23.08 316 -19 316 C-21.59126876 311.13435632 -21.59126876 311.13435632 -24.6875 308.5625 C-27 306 -27 306 -27.8125 303.125 C-26.84552458 299.40586377 -25.92825408 298.98519516 -22.9375 296.75 C-20.67288085 295.09820088 -20.67288085 295.09820088 -19 293 C-18.59289298 289.4803279 -19.12063869 286.41439508 -20 283 C-21.83261503 283 -23.06147527 284.71665963 -24.375 285.875 Z " fill="#C65E58" transform="translate(188,26)"/>
<path d="M0 0 C1.65 0.33 3.3 0.66 5 1 C5 19.15 5 37.3 5 56 C10.28 56 15.56 56 21 56 C32.41434748 38.936127 31.33551283 20.74709728 31 1 C32.9375 0.4375 32.9375 0.4375 35 0 C37.67531216 2.67531216 36.50289749 10.28290392 36.625 13.875 C36.69255493 15.80702271 36.69255493 15.80702271 36.76147461 17.77807617 C37.16835777 30.87634079 36.6979863 43.91552659 36 57 C38.97 57 41.94 57 45 57 C45.33 58.65 45.66 60.3 46 62 C44 63 44 63 36 63 C36 80.16 36 97.32 36 115 C38.97 115 41.94 115 45 115 C45 116.65 45 118.3 45 120 C42.03 120 39.06 120 36 120 C36 127.92 36 135.84 36 144 C34.35 144 32.7 144 31 144 C31 136.08 31 128.16 31 120 C26.71 120 22.42 120 18 120 C18.66 119.34 19.32 118.68 20 118 C22.72869407 118.03287583 25.2966618 118.56397771 28 119 C28 118.34 28 117.68 28 117 C21.73 117 15.46 117 9 117 C8.67 116.34 8.34 115.68 8 115 C15.59 115 23.18 115 31 115 C31 97.84 31 80.68 31 63 C22.42 63 13.84 63 5 63 C5 78.18 5 93.36 5 109 C3.02 108.505 3.02 108.505 1 108 C1.04125 109.051875 1.0825 110.10375 1.125 111.1875 C1 115 1 115 -1 120 C-13.21 120.33 -25.42 120.66 -38 121 C-38.6963569 117.51821549 -39.12757171 114.96022415 -39.1328125 111.53125 C-39.13410156 110.71269531 -39.13539063 109.89414063 -39.13671875 109.05078125 C-39.13285156 108.20902344 -39.12898438 107.36726563 -39.125 106.5 C-39.12886719 105.65824219 -39.13273437 104.81648438 -39.13671875 103.94921875 C-39.1302433 99.83731013 -39.03531987 96.00981028 -38 92 C-43.75762166 93.08896667 -49.39247819 94.29336293 -55 96 C-54.34 97.32 -53.68 98.64 -53 100 C-53.33 100.33 -53.66 100.66 -54 101 C-54.23701239 103.85877909 -54.42219182 106.69883297 -54.5625 109.5625 C-54.62727539 110.77196289 -54.62727539 110.77196289 -54.69335938 112.00585938 C-54.79975262 114.00368805 -54.90040888 116.0018207 -55 118 C-53.68 118.66 -52.36 119.32 -51 120 C-51.33 120.33 -51.66 120.66 -52 121 C-52.15714654 122.63256758 -52.25085414 124.27135338 -52.31640625 125.91015625 C-52.37924805 127.39418945 -52.37924805 127.39418945 -52.44335938 128.90820312 C-52.48267578 129.94912109 -52.52199219 130.99003906 -52.5625 132.0625 C-52.60568359 133.10728516 -52.64886719 134.15207031 -52.69335938 135.22851562 C-52.79981225 137.81886884 -52.9018276 140.40932186 -53 143 C-53.33 143 -53.66 143 -54 143 C-54 135.41 -54 127.82 -54 120 C-62.76784394 119.41995478 -62.76784394 119.41995478 -70.1953125 123.0703125 C-71.77979225 125.51815771 -71.77979225 125.51815771 -72.984375 128.06640625 C-73.31953125 128.70449219 -73.6546875 129.34257812 -74 130 C-74.66 130 -75.32 130 -76 130 C-76 133.63 -76 137.26 -76 141 C-76.33 141 -76.66 141 -77 141 C-77.14547545 136.93787788 -77.23413226 132.87642713 -77.3125 128.8125 C-77.3753418 127.08676758 -77.3753418 127.08676758 -77.43945312 125.32617188 C-77.56446685 116.7002247 -77.56446685 116.7002247 -74.53125 112.9375 C-73.6959375 112.298125 -72.860625 111.65875 -72 111 C-71.11472891 107.31558496 -71.11472891 107.31558496 -71 104 C-70.67 104 -70.34 104 -70 104 C-69.505 108.95 -69.505 108.95 -69 114 C-66.36 114.33 -63.72 114.66 -61 115 C-60.96261719 114.05898437 -60.92523438 113.11796875 -60.88671875 112.1484375 C-60.82097656 110.90320313 -60.75523438 109.65796875 -60.6875 108.375 C-60.60048828 106.53035156 -60.60048828 106.53035156 -60.51171875 104.6484375 C-59.86837907 100.06157289 -58.34233608 96.87769592 -55.66796875 93.13671875 C-53.2200217 91.4684457 -51.24960698 91.77196276 -48.3125 91.8125 C-41.37916501 91.47826973 -36.50246265 89.19718536 -30.55786133 85.88208008 C-26.67385822 83.72845172 -23.50848065 82.44597026 -19 82 C-18.3125 83.8125 -18.3125 83.8125 -18 86 C-20.52944466 89.56287536 -24.75350868 90.87054186 -28.625 92.5625 C-33.60359046 94.3525619 -33.60359046 94.3525619 -37 98 C-37 103.28 -37 108.56 -37 114 C-25.12 114.33 -13.24 114.66 -1 115 C-1.59636526 107.51587012 -1.59636526 107.51587012 -3.94946289 101.24633789 C-4.3498024 100.43262222 -4.75014191 99.61890656 -5.16261292 98.78053284 C-5.59492722 97.93643356 -6.02724152 97.09233429 -6.47265625 96.22265625 C-6.9151622 95.33009628 -7.35766815 94.43753632 -7.81358337 93.51792908 C-9.21695888 90.69277716 -10.63876227 87.87743701 -12.0625 85.0625 C-13.48627552 82.2209524 -14.90612557 79.37751791 -16.3221283 76.53208923 C-17.20157329 74.76769325 -18.0861633 73.00585067 -18.97633362 71.24684143 C-19.37352097 70.45519089 -19.77070831 69.66354034 -20.17993164 68.84790039 C-20.70835411 67.8027401 -20.70835411 67.8027401 -21.24745178 66.73646545 C-22 65 -22 65 -22 63 C-49.72 62.67 -77.44 62.34 -106 62 C-106 61.67 -106 61.34 -106 61 C-79.6 60.67 -53.2 60.34 -26 60 C-51.81894153 60.11874564 -51.81894153 60.11874564 -77.63769531 60.27026367 C-82.63427734 60.28381348 -82.63427734 60.28381348 -84.9743042 60.28633118 C-86.60665337 60.29093426 -88.23899242 60.30147801 -89.87127686 60.31672668 C-92.34567961 60.3386844 -94.81945973 60.34171814 -97.29394531 60.34057617 C-98.01965351 60.3513705 -98.74536171 60.36216482 -99.49306107 60.37328625 C-102.50042445 60.35470486 -104.72885207 60.13276415 -107.44651794 58.80209351 C-109.51865059 56.39834719 -109.52135542 54.98062452 -109.56176758 51.82592773 C-109.5847139 50.77150986 -109.60766022 49.71709198 -109.63130188 48.63072205 C-109.63566757 47.49316971 -109.64003326 46.35561737 -109.64453125 45.18359375 C-109.66343918 44.01619156 -109.68234711 42.84878937 -109.701828 41.64601135 C-109.738354 39.17729338 -109.76547364 36.70842109 -109.78393555 34.23950195 C-109.81241453 30.44887609 -109.86745466 26.65938166 -109.92773438 22.86914062 C-109.95987836 20.47397857 -109.99052814 18.0787959 -110.01953125 15.68359375 C-110.0340181 14.54401718 -110.04850494 13.40444061 -110.06343079 12.23033142 C-110.0706163 11.1790657 -110.07780182 10.12779999 -110.08520508 9.04467773 C-110.09312576 8.11662827 -110.10104645 7.1885788 -110.10920715 6.23240662 C-110 4 -110 4 -109 2 C-109.66 2 -110.32 2 -111 2 C-111 20.15 -111 38.3 -111 57 C-111.33 57 -111.66 57 -112 57 C-112 38.52 -112 20.04 -112 1 C-110.35 1 -108.7 1 -107 1 C-107 19.48 -107 37.96 -107 57 C-59.48 56.505 -59.48 56.505 -11 56 C-3.88510062 40.97965686 -0.66636071 33.27007013 -1 17.875 C-1.00819157 15.44499601 -1.00404406 13.01524159 -0.99829102 10.5852356 C-0.99940775 9.09501268 -1.01115828 7.60474959 -1.03491211 6.11471558 C-1.05845113 4.40993317 -1.03418284 2.7046022 -1 1 C-0.67 0.67 -0.34 0.34 0 0 Z M-2 49 C-3.485 52.96 -3.485 52.96 -5 57 C-3.68 57 -2.36 57 -1 57 C-1 54.36 -1 51.72 -1 49 C-1.33 49 -1.66 49 -2 49 Z M30 49 C27.7986134 52.80427492 27.7986134 52.80427492 27 57 C28.32 57 29.64 57 31 57 C31 54.36 31 51.72 31 49 C30.67 49 30.34 49 30 49 Z M-16 62 C-13.74588334 69.37780846 -10.69783441 76.13894512 -7.3125 83.0625 C-6.80138672 84.11888672 -6.29027344 85.17527344 -5.76367188 86.26367188 C-4.51396126 88.84484987 -3.25932878 91.4235047 -2 94 C-1.67 94 -1.34 94 -1 94 C-1 83.77 -1 73.54 -1 63 C-5.95 62.67 -10.9 62.34 -16 62 Z M-76 123 C-76 123.99 -76 124.98 -76 126 C-75.34 126 -74.68 126 -74 126 C-74.33 125.01 -74.66 124.02 -75 123 C-75.33 123 -75.66 123 -76 123 Z " fill="#BC5C56" transform="translate(188,26)"/>
<path d="M0 0 C0.33 0 0.66 0 1 0 C1 7.26 1 14.52 1 22 C3.97 22 6.94 22 10 22 C10 22.99 10 23.98 10 25 C8.35 25.66 6.7 26.32 5 27 C5.42708252 27.87922119 5.85416504 28.75844238 6.29418945 29.66430664 C14.46216085 46.48227047 22.61174968 63.3080525 30.65722656 80.18505859 C33.1629476 85.43796107 35.6758632 90.68742432 38.1875 95.9375 C39.775625 99.258125 41.36375 102.57875 43 106 C54.88 106.33 66.76 106.66 79 107 C79 108.65 79 110.3 79 112 C69.51335984 112.14466549 60.14593558 111.708067 50.6875 111 C49.34964006 110.90322072 48.01174944 110.80686455 46.67382812 110.7109375 C43.44889414 110.47809028 40.22432962 110.24104741 37 110 C37 109.34 37 108.68 37 108 C30.73 108 24.46 108 18 108 C18 108.66 18 109.32 18 110 C-0.81 110 -19.62 110 -39 110 C-38.505 109.01 -38.505 109.01 -38 108 C-36.68 108 -35.36 108 -34 108 C-34.00222061 106.99410828 -34.00444122 105.98821655 -34.00672913 104.95184326 C-34.02699393 95.47589396 -34.04198827 85.99994905 -34.05181217 76.523983 C-34.05703249 71.65220995 -34.06411475 66.78045439 -34.07543945 61.90869141 C-34.08629849 57.20787636 -34.09228326 52.50707814 -34.09487724 47.80625153 C-34.09672604 46.01209498 -34.10033622 44.21793937 -34.10573006 42.42378998 C-34.11298046 39.91238916 -34.11398924 37.40105802 -34.11352539 34.88964844 C-34.11712067 34.14661972 -34.12071594 33.403591 -34.12442017 32.63804626 C-34.11770683 29.28278024 -34.0490987 26.20728078 -33 23 C-33.66 22.67 -34.32 22.34 -35 22 C-34.01 22 -33.02 22 -32 22 C-31.67 22.33 -31.34 22.66 -31 23 C-31 22.67 -31 22.34 -31 22 C-22.75 22 -14.5 22 -6 22 C-6 22.66 -6 23.32 -6 24 C-8.94131891 24.98043964 -10.82501665 25.11621202 -13.88671875 25.09765625 C-14.82451172 25.09443359 -15.76230469 25.09121094 -16.72851562 25.08789062 C-17.70498047 25.07951172 -18.68144531 25.07113281 -19.6875 25.0625 C-20.67556641 25.05798828 -21.66363281 25.05347656 -22.68164062 25.04882812 C-25.12115474 25.03704303 -27.56054689 25.02059011 -30 25 C-29.92273682 25.83781006 -29.84547363 26.67562012 -29.76586914 27.53881836 C-28.60924505 42.77909838 -29.10194148 58.03358085 -29.39489746 73.29882812 C-29.47925507 77.78114198 -29.55382283 82.26362894 -29.63010406 86.74608612 C-29.74605863 93.49754908 -29.87415094 100.2486817 -30 107 C-20.43 107 -10.86 107 -1 107 C-1 85.88 -1 64.76 -1 43 C-0.34 43 0.32 43 1 43 C1 64.12 1 85.24 1 107 C12.55 106.67 24.1 106.34 36 106 C33.793125 101.4625 31.58625 96.925 29.3125 92.25 C23.51983183 80.30998452 17.84365037 68.32330292 12.30200195 56.26464844 C9.61307314 50.42292539 6.85455505 44.64289291 3.88720703 38.93676758 C3 37 3 37 3 35 C2.34 35 1.68 35 1 35 C0.67 35.99 0.34 36.98 0 38 C-0.33 38 -0.66 38 -1 38 C-1.05607422 36.77023437 -1.05607422 36.77023437 -1.11328125 35.515625 C-1.17902344 34.43796875 -1.24476563 33.3603125 -1.3125 32.25 C-1.37050781 31.18265625 -1.42851562 30.1153125 -1.48828125 29.015625 C-2.03090154 25.8178932 -2.85071145 24.37401309 -5 22 C-4.01 21.67 -3.02 21.34 -2 21 C-1.97494385 20.43490723 -1.9498877 19.86981445 -1.92407227 19.28759766 C-1.80820044 16.73316258 -1.68543463 14.1791045 -1.5625 11.625 C-1.52318359 10.73554688 -1.48386719 9.84609375 -1.44335938 8.9296875 C-1.38051758 7.65351563 -1.38051758 7.65351563 -1.31640625 6.3515625 C-1.27974854 5.56604004 -1.24309082 4.78051758 -1.20532227 3.97119141 C-1 2 -1 2 0 0 Z " fill="#C45E57" transform="translate(222,235)"/>
<path d="M0 0 C-0.00523682 0.69561035 -0.01047363 1.3912207 -0.01586914 2.10791016 C-0.03674337 5.28026413 -0.04969332 8.45260361 -0.0625 11.625 C-0.07087891 12.71941406 -0.07925781 13.81382812 -0.08789062 14.94140625 C-0.09111328 16.00488281 -0.09433594 17.06835938 -0.09765625 18.1640625 C-0.10289307 19.13811035 -0.10812988 20.1121582 -0.11352539 21.11572266 C0.00594051 24.15092733 0.49096002 27.00814734 1 30 C1.07434065 31.61710904 1.10842273 33.23668765 1.09765625 34.85546875 C1.09443359 35.72494141 1.09121094 36.59441406 1.08789062 37.49023438 C1.07951172 38.38033203 1.07113281 39.27042969 1.0625 40.1875 C1.05798828 41.08919922 1.05347656 41.99089844 1.04882812 42.91992188 C1.04014316 44.58619523 1.02939633 46.2524601 1.01586914 47.91870117 C1.00295511 49.61242648 1 51.30622546 1 53 C1 53.66 1 54.32 1 55 C-4.61 55 -10.22 55 -16 55 C-16 52.23845372 -15.90482778 49.50449235 -15.78125 46.74609375 C-15.73613281 45.72708984 -15.69101563 44.70808594 -15.64453125 43.65820312 C-15.57298828 42.06395508 -15.57298828 42.06395508 -15.5 40.4375 C-15.40585897 38.3320487 -15.31209014 36.22658071 -15.21875 34.12109375 C-15.17685547 33.1870874 -15.13496094 32.25308105 -15.09179688 31.29077148 C-15.03451579 29.86133428 -15 28.43058444 -15 27 C-15.66 26.67 -16.32 26.34 -17 26 C-17.02696009 23.2291017 -17.04681952 20.4584655 -17.0625 17.6875 C-17.07087891 16.90181641 -17.07925781 16.11613281 -17.08789062 15.30664062 C-17.09111328 14.54931641 -17.09433594 13.79199219 -17.09765625 13.01171875 C-17.10289307 12.31522217 -17.10812988 11.61872559 -17.11352539 10.90112305 C-17 9 -17 9 -16 6 C-16.66 5.34 -17.32 4.68 -18 4 C-15.20605291 1.20605291 -12.88190867 1.37614805 -9 0.875 C-7.741875 0.70742187 -6.48375 0.53984375 -5.1875 0.3671875 C-2 0 -2 0 0 0 Z M-9 50 C-9 50.66 -9 51.32 -9 52 C-8.34 51.67 -7.68 51.34 -7 51 C-7.66 50.67 -8.32 50.34 -9 50 Z " fill="#D25B53" transform="translate(150,118)"/>
<path d="M0 0 C0.66 0 1.32 0 2 0 C2.33 18.15 2.66 36.3 3 55 C7.25909027 57.12954513 10.19694764 57.27214282 14.79785156 57.22705078 C15.96915619 57.22748886 15.96915619 57.22748886 17.16412354 57.22793579 C19.73973788 57.2265448 22.31506132 57.21099452 24.890625 57.1953125 C26.67852622 57.19158155 28.4664295 57.18873496 30.2543335 57.18673706 C34.95615297 57.17910707 39.65784856 57.159464 44.35961914 57.1373291 C49.15899988 57.11685704 53.95840067 57.10773243 58.7578125 57.09765625 C68.17192938 57.07621753 77.58595438 57.0420892 87 57 C84.13376392 59.86623608 81.26974376 59.30764959 77.42919922 59.31884766 C76.64862152 59.32889328 75.86804382 59.3389389 75.06381226 59.34928894 C72.477445 59.38023993 69.8911818 59.39718892 67.3046875 59.4140625 C65.513917 59.43276459 63.7231554 59.45233727 61.93240356 59.4727478 C57.21422563 59.52417644 52.49601908 59.56374456 47.77770996 59.60089111 C42.11917087 59.64788895 36.4607749 59.70953255 30.80235291 59.76873779 C22.20162603 59.8570808 13.60092839 59.92675139 5 60 C4.67 77.49 4.34 94.98 4 113 C6.64 113 9.28 113 12 113 C12 109.37 12 105.74 12 102 C12.33 102 12.66 102 13 102 C13 105.96 13 109.92 13 114 C9.7 114 6.4 114 3 114 C2.67 113.34 2.34 112.68 2 112 C1.01 112.99 1.01 112.99 0 114 C-2.625 114.625 -2.625 114.625 -5 115 C-5 115.99 -5 116.98 -5 118 C-6.65 118 -8.3 118 -10 118 C-10 116.35 -10 114.7 -10 113 C-7.03 113 -4.06 113 -1 113 C-1 95.51 -1 78.02 -1 60 C-3.97 60 -6.94 60 -10 60 C-10 58.35 -10 56.7 -10 55 C-6.7 55 -3.4 55 0 55 C0 36.85 0 18.7 0 0 Z " fill="#D05C57" transform="translate(77,28)"/>
<path d="M0 0 C0 16.83 0 33.66 0 51 C2.97 51 5.94 51 9 51 C9 52.65 9 54.3 9 56 C6.03 56 3.06 56 0 56 C0 63.92 0 71.84 0 80 C-1.65 80 -3.3 80 -5 80 C-5 72.08 -5 64.16 -5 56 C-9.29 56 -13.58 56 -18 56 C-17.34 55.34 -16.68 54.68 -16 54 C-13.27130593 54.03287583 -10.7033382 54.56397771 -8 55 C-8 54.34 -8 53.68 -8 53 C-14.27 53 -20.54 53 -27 53 C-27.33 52.34 -27.66 51.68 -28 51 C-20.41 51 -12.82 51 -5 51 C-5 34.5 -5 18 -5 1 C-1 0 -1 0 0 0 Z " fill="#C0625D" transform="translate(224,90)"/>
<path d="M0 0 C1.32 0.33 2.64 0.66 4 1 C3.21388883 5.33343785 0.91308608 8.17542188 -1.625 11.68359375 C-3.09425509 14.15878769 -3.46498635 16.20073214 -4 19 C-6 20.1875 -6 20.1875 -8 21 C-8.33 21.66 -8.66 22.32 -9 23 C-7.51790039 22.94670532 -7.51790039 22.94670532 -6.00585938 22.89233398 C-2.30847134 22.76107637 1.38915835 22.63823714 5.08691406 22.51782227 C6.68139209 22.46474828 8.27579783 22.40945045 9.87011719 22.35180664 C12.17366955 22.26891912 14.47737113 22.19427215 16.78125 22.12109375 C17.48366821 22.09405869 18.18608643 22.06702362 18.90979004 22.03916931 C23.71489196 21.89718357 28.24148706 22.3072165 33 23 C32.505 24.485 32.505 24.485 32 26 C33.98 26.33 35.96 26.66 38 27 C38 27.33 38 27.66 38 28 C30.18313002 28.72393239 22.45486792 29.08229111 14.609375 29.02734375 C13.80520142 29.02183502 13.00102783 29.01632629 12.17248535 29.01065063 C8.84485447 28.98300715 5.51740334 28.94752615 2.18994141 28.90405273 C-0.27442131 28.87403412 -2.73863923 28.85616935 -5.203125 28.83984375 C-5.9582135 28.82638412 -6.713302 28.8129245 -7.49127197 28.79905701 C-9.3287142 28.79012976 -11.16606744 28.88613611 -13 29 C-15.40342408 31.40342408 -15.33998969 32.26559788 -15.6328125 35.5703125 C-15.75849609 36.91416016 -15.75849609 36.91416016 -15.88671875 38.28515625 C-15.96535156 39.22230469 -16.04398437 40.15945312 -16.125 41.125 C-16.21136719 42.06988281 -16.29773438 43.01476562 -16.38671875 43.98828125 C-16.59914083 46.32492418 -16.80321542 48.6619967 -17 51 C-17.33 51 -17.66 51 -18 51 C-17.96447021 50.29391602 -17.92894043 49.58783203 -17.89233398 48.86035156 C-17.7345975 45.65716858 -17.58595178 42.45362614 -17.4375 39.25 C-17.38142578 38.13882813 -17.32535156 37.02765625 -17.26757812 35.8828125 C-17.19506836 34.27792969 -17.19506836 34.27792969 -17.12109375 32.640625 C-17.0739624 31.65610352 -17.02683105 30.67158203 -16.97827148 29.65722656 C-16.87752155 27.04572389 -16.87752155 27.04572389 -17.64477539 24.81933594 C-17.76199951 24.21895508 -17.87922363 23.61857422 -18 23 C-15.5625 20.25 -15.5625 20.25 -13 18 C-14.65 16.02 -16.3 14.04 -18 12 C-15.0280615 13.12451727 -12.66559313 14.22293791 -10 16 C-10.33 16.99 -10.66 17.98 -11 19 C-9.02 18.67 -7.04 18.34 -5 18 C-5 16.02 -5 14.04 -5 12 C-6.32 12.99 -7.64 13.98 -9 15 C-9.99 14.34 -10.98 13.68 -12 13 C-11.42765625 12.78601563 -10.8553125 12.57203125 -10.265625 12.3515625 C-7.22534771 10.53787984 -5.76776359 8.26712781 -3.75 5.375 C-3.04359375 4.37210938 -2.3371875 3.36921875 -1.609375 2.3359375 C-0.81273437 1.17964844 -0.81273437 1.17964844 0 0 Z " fill="#BA5D56" transform="translate(126,205)"/>
<path d="M0 0 C1.65 0 3.3 0 5 0 C5 17.49 5 34.98 5 53 C7.64 53 10.28 53 13 53 C13 49.37 13 45.74 13 42 C13.33 42 13.66 42 14 42 C14 45.96 14 49.92 14 54 C10.7 54 7.4 54 4 54 C3.67 53.34 3.34 52.68 3 52 C2.34 52.66 1.68 53.32 1 54 C-1.625 54.625 -1.625 54.625 -4 55 C-4 55.99 -4 56.98 -4 58 C-5.65 58 -7.3 58 -9 58 C-9 56.35 -9 54.7 -9 53 C-6.03 53 -3.06 53 0 53 C0 35.51 0 18.02 0 0 Z " fill="#B9655E" transform="translate(76,88)"/>
<path d="M0 0 C0.99 0 1.98 0 3 0 C3 1.65 3 3.3 3 5 C3.9075 4.154375 4.815 3.30875 5.75 2.4375 C8.67025483 -0.02603251 8.67025483 -0.02603251 11.375 0.1875 C11.91125 0.455625 12.4475 0.72375 13 1 C12.84817368 3.65696068 12.52675976 5.44234524 10.66796875 7.41015625 C8.5534335 9.17484138 6.46839412 10.76580294 4 12 C3.67 20.25 3.34 28.5 3 37 C9.435 36.505 9.435 36.505 16 36 C16 36.66 16 37.32 16 38 C13.35409986 38.02684679 10.70846904 38.04676357 8.0625 38.0625 C7.30775391 38.07087891 6.55300781 38.07925781 5.77539062 38.08789062 C3.85005687 38.09652441 1.92464419 38.05224333 0 38 C-1.78830448 36.21169552 -1.12848711 33.80418848 -1.13894653 31.42358398 C-1.1369223 30.64442627 -1.13489807 29.86526855 -1.1328125 29.0625 C-1.13376923 28.267229 -1.13472595 27.47195801 -1.13571167 26.65258789 C-1.13639343 24.9679354 -1.13453943 23.28328029 -1.13037109 21.59863281 C-1.12502275 19.01100803 -1.13031619 16.42355684 -1.13671875 13.8359375 C-1.13605797 12.20312461 -1.1347768 10.57031184 -1.1328125 8.9375 C-1.13483673 8.15834229 -1.13686096 7.37918457 -1.13894653 6.57641602 C-1.11495105 1.11495105 -1.11495105 1.11495105 0 0 Z " fill="#B95B56" transform="translate(154,305)"/>
<path d="M0 0 C2.0625 0.4375 2.0625 0.4375 4 1 C4.90487459 19.77255691 5.00165994 38.22285104 4 57 C6.97 57 9.94 57 13 57 C12.67 57.99 12.34 58.98 12 60 C5.25 60.125 5.25 60.125 3 59 C2.67 50.75 2.34 42.5 2 34 C1.34 34 0.68 34 0 34 C0 35.98 0 37.96 0 40 C-1.485 40.495 -1.485 40.495 -3 41 C-2.84080078 40.50975342 -2.68160156 40.01950684 -2.51757812 39.5144043 C-1.78369312 35.94917709 -1.78320591 32.39543927 -1.71875 28.76953125 C-1.70034058 27.9785051 -1.68193115 27.18747894 -1.66296387 26.3724823 C-1.58438776 22.99398095 -1.51628254 19.61529018 -1.44775391 16.23657227 C-1.3961785 13.76828704 -1.33890003 11.30018084 -1.28125 8.83203125 C-1.26767456 8.0622847 -1.25409912 7.29253815 -1.2401123 6.49946594 C-1.11287946 1.11287946 -1.11287946 1.11287946 0 0 Z " fill="#A55E5E" transform="translate(220,26)"/>
<path d="M0 0 C1.67542976 0.28604898 3.34385343 0.61781233 5 1 C5.02519409 4.8736876 5.04308675 8.74734185 5.05493164 12.62109375 C5.06228369 14.56772545 5.07500578 16.51433456 5.08789062 18.4609375 C5.10975342 27.03115367 4.73307802 35.46257506 4 44 C3.67 44 3.34 44 3 44 C2.67 40.7 2.34 37.4 2 34 C0.515 36.475 0.515 36.475 -1 39 C-2.5865258 35.82694839 -2.02132127 32.43868558 -1.9140625 28.96484375 C-1.89282318 28.1709877 -1.87158386 27.37713165 -1.84970093 26.55921936 C-1.80342236 24.88047092 -1.75449271 23.20179379 -1.703125 21.52319336 C-1.62521604 18.94465028 -1.55811693 16.36598346 -1.4921875 13.78710938 C-1.44596083 12.15883563 -1.39910721 10.53057954 -1.3515625 8.90234375 C-1.33171295 8.12632309 -1.3118634 7.35030243 -1.29141235 6.55076599 C-1.11504923 1.11504923 -1.11504923 1.11504923 0 0 Z " fill="#A85C60" transform="translate(188,26)"/>
<path d="M0 0 C-0.33 0.99 -0.66 1.98 -1 3 C0.98 3.33 2.96 3.66 5 4 C5 4.33 5 4.66 5 5 C-6.11012518 6.01869343 -17.10525352 6.09158273 -28.25 6 C-31.5677045 5.97342293 -34.8853547 5.95349951 -38.203125 5.9375 C-38.9582135 5.92920166 -39.713302 5.92090332 -40.49127197 5.91235352 C-44.37277993 5.81571422 -44.37277993 5.81571422 -48 7 C-47.67 6.01 -47.34 5.02 -47 4 C-41.94997778 2.96409801 -37.12583611 2.89748328 -32 3 C-32 2.34 -32 1.68 -32 1 C-34.31 1 -36.62 1 -39 1 C-39 0.67 -39 0.34 -39 0 C-34.89263811 -0.16936387 -30.78502658 -0.32971004 -26.67700195 -0.48217773 C-25.28335407 -0.53511737 -23.88979294 -0.59040029 -22.49633789 -0.64819336 C-14.90342256 -0.96149988 -7.53848378 -1.12701585 0 0 Z " fill="#B6635C" transform="translate(159,228)"/>
<path d="M0 0 C-0.33 0.99 -0.66 1.98 -1 3 C-3.77288638 4.03916748 -6.55161964 4.17636455 -9.4921875 4.31640625 C-10.35626221 4.35838135 -11.22033691 4.40035645 -12.1105957 4.44360352 C-13.02284912 4.48283936 -13.93510254 4.5220752 -14.875 4.5625 C-15.80723389 4.6049585 -16.73946777 4.64741699 -17.69995117 4.69116211 C-25.13844749 5.00950644 -32.55456409 5.11262004 -40 5 C-40.33 3.35 -40.66 1.7 -41 0 C-35.96480861 -0.1680811 -30.92945318 -0.32859004 -25.89379883 -0.48217773 C-24.1818192 -0.5354494 -22.46990192 -0.59076646 -20.75805664 -0.64819336 C-18.29326822 -0.73052001 -15.82834706 -0.80541647 -13.36328125 -0.87890625 C-12.60163162 -0.90594131 -11.83998199 -0.93297638 -11.05525208 -0.96083069 C-7.21707535 -1.06790504 -3.72799886 -0.95697118 0 0 Z " fill="#D95048" transform="translate(41,343)"/>
<path d="M0 0 C2.375 1.625 2.375 1.625 4 4 C4.48858462 7.90867693 4.20156781 10.69764829 2 14 C-1.16736204 15.58368102 -3.5153015 15.42056706 -7 15 C-9.5625 12.4375 -9.5625 12.4375 -11 9 C-10.4375 5.25 -10.4375 5.25 -9 2 C-5.50875983 -0.32749345 -4.10777749 -0.50299316 0 0 Z " fill="#C35D57" transform="translate(145,102)"/>
<path d="M0 0 C1.65 0 3.3 0 5 0 C5.33 18.81 5.66 37.62 6 57 C5.01 56.67 4.02 56.34 3 56 C2.83203457 48.48875121 2.67209615 40.97736272 2.51782227 33.46582031 C2.46434814 30.9088145 2.40901474 28.35184688 2.35180664 25.79492188 C2.27004663 22.12638589 2.1949048 18.45776593 2.12109375 14.7890625 C2.09405869 13.64007477 2.06702362 12.49108704 2.03916931 11.30728149 C2.01907303 10.2463327 1.99897675 9.18538391 1.97827148 8.09228516 C1.95828598 7.15518707 1.93830048 6.21808899 1.91770935 5.25259399 C2 3 2 3 3 1 C2.34 1 1.68 1 1 1 C1 19.15 1 37.3 1 56 C0.67 56 0.34 56 0 56 C0 37.52 0 19.04 0 0 Z " fill="#B36661" transform="translate(76,27)"/>
<path d="M0 0 C2.9375 2.0625 2.9375 2.0625 5 5 C5 8.54361243 4.65850044 10.86591591 2.875 13.9375 C-0.22289358 15.69297303 -2.52844534 15.48723574 -6 15 C-8.5 12.9375 -8.5 12.9375 -10 10 C-9.93931504 6.48027215 -9.66225706 4.08052467 -7.8125 1.0625 C-4.99452602 -0.58941578 -3.20595185 -0.5129523 0 0 Z " fill="#C25E57" transform="translate(106,102)"/>
<path d="M0 0 C1.8125 1.125 1.8125 1.125 3 3 C3.1875 6.6875 3.1875 6.6875 3 10 C2.34 10 1.68 10 1 10 C0.67 10.99 0.34 11.98 0 13 C-6.15730337 14.30250648 -6.15730337 14.30250648 -9.4375 13.125 C-11.94035076 9.72112296 -11.30819729 6.08361405 -11 2 C-6.95188221 -0.35355686 -4.52239454 -1.71117631 0 0 Z " fill="#CB5A55" transform="translate(141,298)"/>
<path d="M0 0 C2.3125 0.5 2.3125 0.5 4 2 C4.92360116 4.70525759 5.22523605 7.1507639 5 10 C3.5 12.5 3.5 12.5 1 14 C-2.65396822 14.45674603 -5.05293473 14.41282332 -8.4375 12.9375 C-10 11 -10 11 -10.5 7.5625 C-10 4 -10 4 -8.375 1.5625 C-5.31889507 -0.44809535 -3.59974487 -0.44996811 0 0 Z " fill="#B45F59" transform="translate(165,285)"/>
<path d="M0 0 C3.16337961 1.11821791 3.98665114 2.37484439 5.83203125 5.140625 C9.13164084 9.69757481 12.55440309 12.32423408 17.51953125 14.890625 C17.18953125 16.210625 16.85953125 17.530625 16.51953125 18.890625 C10.37263852 18.52181144 7.82925751 16.99012071 3.51953125 12.890625 C3.18953125 15.200625 2.85953125 17.510625 2.51953125 19.890625 C3.83953125 20.220625 5.15953125 20.550625 6.51953125 20.890625 C4.86953125 20.890625 3.21953125 20.890625 1.51953125 20.890625 C-1.50319602 11.25568182 -1.50319602 11.25568182 0.51953125 6.578125 C0.84953125 6.02125 1.17953125 5.464375 1.51953125 4.890625 C-1.33124966 4.12345649 -1.33124966 4.12345649 -4.48046875 3.890625 C-6.38004956 5.20380762 -6.38004956 5.20380762 -7.48046875 6.890625 C-6.05789087 2.73232043 -4.97660484 -0.21944084 0 0 Z " fill="#C85A56" transform="translate(129.48046875,310.109375)"/>
<path d="M0 0 C6.27 0 12.54 0 19 0 C19 0.33 19 0.66 19 1 C13.06 1 7.12 1 1 1 C1 8.59 1 16.18 1 24 C7.27 24 13.54 24 20 24 C20 24.33 20 24.66 20 25 C16.70840684 25.05790353 13.41694397 25.09356261 10.125 25.125 C8.71927734 25.15013672 8.71927734 25.15013672 7.28515625 25.17578125 C5.94130859 25.18544922 5.94130859 25.18544922 4.5703125 25.1953125 C3.74289551 25.20578613 2.91547852 25.21625977 2.06298828 25.22705078 C0 25 0 25 -2 23 C-2.33 23.66 -2.66 24.32 -3 25 C-5.97 25 -8.94 25 -12 25 C-12 25.99 -12 26.98 -12 28 C-11.01 28.33 -10.02 28.66 -9 29 C-10.32 29 -11.64 29 -13 29 C-13 27.35 -13 25.7 -13 24 C-10.03 24 -7.06 24 -4 24 C-4 16.41 -4 8.82 -4 1 C-3.67 1.66 -3.34 2.32 -3 3 C-2.01 3 -1.02 3 0 3 C0 2.01 0 1.02 0 0 Z " fill="#BC6761" transform="translate(80,232)"/>
<path d="M0 0 C0.66 0 1.32 0 2 0 C2.33 18.48 2.66 36.96 3 56 C0.525 56.495 0.525 56.495 -2 57 C-1.67 57.99 -1.34 58.98 -1 60 C-3.97 60 -6.94 60 -10 60 C-10 58.35 -10 56.7 -10 55 C-6.7 55 -3.4 55 0 55 C0 36.85 0 18.7 0 0 Z " fill="#C86158" transform="translate(77,28)"/>
<path d="M0 0 C2.3125 0.0625 2.3125 0.0625 5 1 C5.99 3.31 6.98 5.62 8 8 C14.27 8.33 20.54 8.66 27 9 C27 9.66 27 10.32 27 11 C26.36191406 10.98839844 25.72382813 10.97679687 25.06640625 10.96484375 C24.24011719 10.95582031 23.41382813 10.94679687 22.5625 10.9375 C21.73878906 10.92589844 20.91507813 10.91429687 20.06640625 10.90234375 C18.00836062 10.76732652 18.00836062 10.76732652 17 12 C14.45243896 12.28306234 11.90489978 12.44815786 9.34765625 12.62109375 C6.81487227 12.79485724 6.81487227 12.79485724 5 15 C5 14.34 5 13.68 5 13 C4.34 13 3.68 13 3 13 C3 13.66 3 14.32 3 15 C1.68 14.67 0.36 14.34 -1 14 C-1.38133299 12.0085944 -1.71325582 10.00720923 -2 8 C-1.67 7.67 -1.34 7.34 -1 7 C-0.63239269 4.67182036 -0.29758419 2.3381615 0 0 Z " fill="#CE5C56" transform="translate(189,134)"/>
<path d="M0 0 C0.33 0 0.66 0 1 0 C1 25.74 1 51.48 1 78 C0.67 78 0.34 78 0 78 C0 70.08 0 62.16 0 54 C-4.29 54 -8.58 54 -13 54 C-12.34 53.34 -11.68 52.68 -11 52 C-8.27130593 52.03287583 -5.7033382 52.56397771 -3 53 C-3 52.34 -3 51.68 -3 51 C-9.27 51 -15.54 51 -22 51 C-22.33 50.34 -22.66 49.68 -23 49 C-15.41 49 -7.82 49 0 49 C0 32.83 0 16.66 0 0 Z " fill="#AF6660" transform="translate(219,92)"/>
<path d="M0 0 C0.33 0 0.66 0 1 0 C1 7.26 1 14.52 1 22 C3.97 22 6.94 22 10 22 C10 22.99 10 23.98 10 25 C9.05125 25.2475 8.1025 25.495 7.125 25.75 C3.91306809 26.6857077 3.91306809 26.6857077 2.625 29.125 C2.41875 29.74375 2.2125 30.3625 2 31 C2.99 31 3.98 31 5 31 C4.34 32.32 3.68 33.64 3 35 C2.34 35 1.68 35 1 35 C0.67 35.99 0.34 36.98 0 38 C-0.33 38 -0.66 38 -1 38 C-1.03738281 37.18015625 -1.07476562 36.3603125 -1.11328125 35.515625 C-1.17902344 34.43796875 -1.24476563 33.3603125 -1.3125 32.25 C-1.37050781 31.18265625 -1.42851562 30.1153125 -1.48828125 29.015625 C-2.03090154 25.8178932 -2.85071145 24.37401309 -5 22 C-4.01 21.67 -3.02 21.34 -2 21 C-1.97494385 20.43490723 -1.9498877 19.86981445 -1.92407227 19.28759766 C-1.80820044 16.73316258 -1.68543463 14.1791045 -1.5625 11.625 C-1.52318359 10.73554688 -1.48386719 9.84609375 -1.44335938 8.9296875 C-1.40146484 8.07890625 -1.35957031 7.228125 -1.31640625 6.3515625 C-1.27974854 5.56604004 -1.24309082 4.78051758 -1.20532227 3.97119141 C-1 2 -1 2 0 0 Z " fill="#CA605A" transform="translate(222,235)"/>
<path d="M0 0 C11.22 0 22.44 0 34 0 C34 1.32 34 2.64 34 4 C22.78 4 11.56 4 0 4 C0 2.68 0 1.36 0 0 Z " fill="#C55F56" transform="translate(152,142)"/>
<path d="M0 0 C0.66 0 1.32 0 2 0 C2.33 1.65 2.66 3.3 3 5 C15.21 5 27.42 5 40 5 C40.495 6.98 40.495 6.98 41 9 C31.51335984 9.14466549 22.14593558 8.708067 12.6875 8 C11.34964006 7.90322072 10.01174944 7.80686455 8.67382812 7.7109375 C5.44889414 7.47809028 2.22432962 7.24104741 -1 7 C-0.67 4.69 -0.34 2.38 0 0 Z " fill="#CE5C55" transform="translate(260,338)"/>
<path d="M0 0 C0.33 0 0.66 0 1 0 C1.33 3.3 1.66 6.6 2 10 C4.31 10.33 6.62 10.66 9 11 C9 11.33 9 11.66 9 12 C5.37 12 1.74 12 -2 12 C-2.33 12.99 -2.66 13.98 -3 15 C-0.03 15.495 -0.03 15.495 3 16 C2.43224464 17.29858939 1.84508337 18.58870441 1.25 19.875 C0.92515625 20.59429687 0.6003125 21.31359375 0.265625 22.0546875 C-1 24 -1 24 -5 26 C-5 29.63 -5 33.26 -5 37 C-5.33 37 -5.66 37 -6 37 C-6.14547545 32.93787788 -6.23413226 28.87642713 -6.3125 24.8125 C-6.35439453 23.66201172 -6.39628906 22.51152344 -6.43945312 21.32617188 C-6.56446685 12.7002247 -6.56446685 12.7002247 -3.53125 8.9375 C-2.6959375 8.298125 -1.860625 7.65875 -1 7 C-0.11472891 3.31558496 -0.11472891 3.31558496 0 0 Z M-5 19 C-5 19.99 -5 20.98 -5 22 C-4.34 22 -3.68 22 -3 22 C-3.33 21.01 -3.66 20.02 -4 19 C-4.33 19 -4.66 19 -5 19 Z " fill="#B85E5A" transform="translate(117,130)"/>
<path d="M0 0 C0.33 0.66 0.66 1.32 1 2 C-3.29 2.66 -7.58 3.32 -12 4 C-12 4.66 -12 5.32 -12 6 C-11.34 5.67 -10.68 5.34 -10 5 C-3.21098441 3.82497807 3.20248141 4.05991764 10 5 C10.33 6.32 10.66 7.64 11 9 C10.67 8.34 10.34 7.68 10 7 C1.42 7 -7.16 7 -16 7 C-16 9.31 -16 11.62 -16 14 C-17.5625 12.3125 -17.5625 12.3125 -19 10 C-18.6875 7.25 -18.6875 7.25 -18 5 C-17.01 5 -16.02 5 -15 5 C-15 3.68 -15 2.36 -15 1 C-10.05 0.67 -5.1 0.34 0 0 Z " fill="#A45552" transform="translate(209,82)"/>
<path d="M0 0 C0.99 0.33 1.98 0.66 3 1 C3.125 6.75 3.125 6.75 2 9 C2.66 9 3.32 9 4 9 C2.52307692 16.63076923 2.52307692 16.63076923 -0.125 18.5 C-1.053125 18.7475 -1.053125 18.7475 -2 19 C-3.55078125 17.390625 -3.55078125 17.390625 -5 15 C-4.85546875 11.984375 -4.85546875 11.984375 -4.1875 8.75 C-3.97480469 7.67234375 -3.76210937 6.5946875 -3.54296875 5.484375 C-3.36378906 4.66453125 -3.18460937 3.8446875 -3 3 C-2.67 3.66 -2.34 4.32 -2 5 C-1.34 5 -0.68 5 0 5 C-0.2784375 4.0409375 -0.2784375 4.0409375 -0.5625 3.0625 C-0.706875 2.381875 -0.85125 1.70125 -1 1 C-0.67 0.67 -0.34 0.34 0 0 Z " fill="#D65A55" transform="translate(102,209)"/>
<path d="M0 0 C0.99 0.33 1.98 0.66 3 1 C3.36 7.24 3.36 7.24 1.875 10.375 C-0.63065408 12.54656687 -2.75082115 12.7111841 -6 13 C-5.34 14.65 -4.68 16.3 -4 18 C-5.32 18 -6.64 18 -8 18 C-8 17.01 -8 16.02 -8 15 C-12.12973628 15.56739868 -12.12973628 15.56739868 -16 17 C-14.9024777 14.00675737 -14.32317108 13.15389099 -11.375 11.75 C-10.59125 11.5025 -9.8075 11.255 -9 11 C-9.515625 10.443125 -10.03125 9.88625 -10.5625 9.3125 C-12 7 -12 7 -11.6875 4.25 C-11.460625 3.5075 -11.23375 2.765 -11 2 C-10.01 3.485 -10.01 3.485 -9 5 C-8.46375 5.680625 -7.9275 6.36125 -7.375 7.0625 C-6 9 -6 9 -6 11 C-4.35 10.67 -2.7 10.34 -1 10 C-0.67 6.7 -0.34 3.4 0 0 Z " fill="#B56059" transform="translate(178,194)"/>
<path d="M0 0 C5 3 5 3 5.56762695 4.90112305 C5.54144287 5.59761963 5.51525879 6.29411621 5.48828125 7.01171875 C5.47216797 7.76904297 5.45605469 8.52636719 5.43945312 9.30664062 C5.39755859 10.09232422 5.35566406 10.87800781 5.3125 11.6875 C5.28994141 12.48478516 5.26738281 13.28207031 5.24414062 14.10351562 C5.18526944 16.06981334 5.09558755 18.03514491 5 20 C4.67 18.68 4.34 17.36 4 16 C3.34 16 2.68 16 2 16 C1.67 18.64 1.34 21.28 1 24 C0.67 24 0.34 24 0 24 C0 16.08 0 8.16 0 0 Z " fill="#B7645E" transform="translate(187,146)"/>
<path d="M0 0 C1.32 0 2.64 0 4 0 C4.33 1.32 4.66 2.64 5 4 C5.99 3.67 6.98 3.34 8 3 C8.66 3.33 9.32 3.66 10 4 C10 7.63 10 11.26 10 15 C8.68 15 7.36 15 6 15 C6 13.68 6 12.36 6 11 C5.34 11 4.68 11 4 11 C4 9.68 4 8.36 4 7 C3.01 6.67 2.02 6.34 1 6 C0.67 4.02 0.34 2.04 0 0 Z " fill="#CF5B55" transform="translate(181,116)"/>
<path d="M0 0 C1.67542976 0.28604898 3.34385343 0.61781233 5 1 C5 2.98 5 4.96 5 7 C4.01 7.495 4.01 7.495 3 8 C2.855625 7.360625 2.71125 6.72125 2.5625 6.0625 C2.18992819 4.02454854 2.18992819 4.02454854 1 3 C0.88949851 8.35318332 0.95556733 13.66581627 1.328125 19.0078125 C1.38621338 19.89049805 1.44430176 20.77318359 1.50415039 21.68261719 C1.62503199 23.45769345 1.75933376 25.23191394 1.90795898 27.00488281 C2.2329087 31.92732221 2.23423556 34.95928411 -1 39 C-2.5865258 35.82694839 -2.02132127 32.43868558 -1.9140625 28.96484375 C-1.89282318 28.1709877 -1.87158386 27.37713165 -1.84970093 26.55921936 C-1.80342236 24.88047092 -1.75449271 23.20179379 -1.703125 21.52319336 C-1.62521604 18.94465028 -1.55811693 16.36598346 -1.4921875 13.78710938 C-1.44596083 12.15883563 -1.39910721 10.53057954 -1.3515625 8.90234375 C-1.33171295 8.12632309 -1.3118634 7.35030243 -1.29141235 6.55076599 C-1.11504923 1.11504923 -1.11504923 1.11504923 0 0 Z " fill="#97545A" transform="translate(188,26)"/>
<path d="M0 0 C0.66 0 1.32 0 2 0 C2 0.66 2 1.32 2 2 C3.65 2 5.3 2 7 2 C5.35 3.65 3.7 5.3 2 7 C2 12.28 2 17.56 2 23 C13.55 23.33 25.1 23.66 37 24 C37 24.33 37 24.66 37 25 C25.78 25 14.56 25 3 25 C3 26.65 3 28.3 3 30 C2.34 30 1.68 30 1 30 C0.1367399 26.28111134 -0.11721556 22.85703512 -0.09765625 19.04296875 C-0.09443359 17.93115234 -0.09121094 16.81933594 -0.08789062 15.67382812 C-0.07951172 14.52333984 -0.07113281 13.37285156 -0.0625 12.1875 C-0.05798828 11.01767578 -0.05347656 9.84785156 -0.04882812 8.64257812 C-0.0370693 5.76166642 -0.02063426 2.88085956 0 0 Z " fill="#B2685F" transform="translate(149,117)"/>
<path d="M0 0 C3.02419525 0.58803797 6.01758453 1.22678118 9 2 C9 4.64 9 7.28 9 10 C6.69 10 4.38 10 2 10 C1.67 8.68 1.34 7.36 1 6 C0.01 6.33 -0.98 6.66 -2 7 C-1.125 2.25 -1.125 2.25 0 0 Z " fill="#D55B53" transform="translate(159,287)"/>
<path d="M0 0 C4.75 0.75 4.75 0.75 7 3 C7.33 2.34 7.66 1.68 8 1 C8.66 1 9.32 1 10 1 C9.67 3.64 9.34 6.28 9 9 C6.36 9.33 3.72 9.66 1 10 C-1.16139576 6.75790636 -1.28794018 5.74322232 -1 2 C-0.67 1.34 -0.34 0.68 0 0 Z " fill="#D55A51" transform="translate(106,195)"/>
<path d="M0 0 C4 2.66666667 8 5.33333333 12 8 C12 9.32 12 10.64 12 12 C9 13 9 13 7.02734375 12.36328125 C6.33769531 12.01652344 5.64804688 11.66976562 4.9375 11.3125 C4.24527344 10.97863281 3.55304688 10.64476562 2.83984375 10.30078125 C0.58521287 8.70674286 -0.16165081 7.62872203 -1 5 C-0.625 2.25 -0.625 2.25 0 0 Z " fill="#C15F59" transform="translate(174,212)"/>
<path d="M0 0 C0.33 0 0.66 0 1 0 C1.103125 0.928125 1.20625 1.85625 1.3125 2.8125 C1.67836937 5.99167146 1.67836937 5.99167146 3.625 7.5 C4.07875 7.995 4.5325 8.49 5 9 C4.6875 12.1875 4.6875 12.1875 4 15 C3.67 15 3.34 15 3 15 C2.67 13.35 2.34 11.7 2 10 C1.01 11.98 0.02 13.96 -1 16 C-0.01 16.33 0.98 16.66 2 17 C0.68 17 -0.64 17 -2 17 C-2 15.68 -2 14.36 -2 13 C-2.66 13 -3.32 13 -4 13 C-4 13.66 -4 14.32 -4 15 C-4.66 15 -5.32 15 -6 15 C-4.36041242 9.76727367 -2.61047965 4.84803364 0 0 Z " fill="#B15C55" transform="translate(216,67)"/>
<path d="M0 0 C1.65206447 0.92647536 3.2964997 1.86656574 4.9375 2.8125 C5.85402344 3.33457031 6.77054688 3.85664063 7.71484375 4.39453125 C10 6 10 6 11 9 C10.67 9.66 10.34 10.32 10 11 C5.5428126 10.73781251 3.48477302 10.42288711 0.0625 7.4375 C-0.618125 6.633125 -1.29875 5.82875 -2 5 C-1.01 5 -0.02 5 1 5 C0.67 3.35 0.34 1.7 0 0 Z " fill="#AC635A" transform="translate(136,318)"/>
<path d="M0 0 C3.74768734 4.15634474 3.54558047 7.74159359 3.43359375 13.13671875 C2.99278334 16.04765595 2.6027969 17.19787529 0.5625 19.25 C-2 21 -2 21 -3 21 C-3 16.05 -3 11.1 -3 6 C-1 9 -1 9 0 12 C0.33 12 0.66 12 1 12 C1.0984702 7.86425173 0.77403558 4.06368679 0 0 Z " fill="#BF605B" transform="translate(114,121)"/>
<path d="M0 0 C2.16874252 0.50603992 3.99967627 0.99983813 6 2 C7.2757381 5.24733335 6.83241855 7.67032582 6 11 C4.35 11 2.7 11 1 11 C-1.42857143 3.57142857 -1.42857143 3.57142857 0 0 Z " fill="#D45B53" transform="translate(170,334)"/>
<path d="M0 0 C2.64 0.33 5.28 0.66 8 1 C8.93065133 3.60582371 9.14917407 4.64198224 8.0625 7.25 C7.711875 7.8275 7.36125 8.405 7 9 C7.99 9 8.98 9 10 9 C9.34 10.32 8.68 11.64 8 13 C7.34 13 6.68 13 6 13 C5.67 13.99 5.34 14.98 5 16 C4.67 16 4.34 16 4 16 C3.96261719 15.18015625 3.92523438 14.3603125 3.88671875 13.515625 C3.82097656 12.43796875 3.75523437 11.3603125 3.6875 10.25 C3.62949219 9.18265625 3.57148438 8.1153125 3.51171875 7.015625 C2.96909846 3.8178932 2.14928855 2.37401309 0 0 Z " fill="#D15C54" transform="translate(217,257)"/>
<path d="M0 0 C0.33 0.66 0.66 1.32 1 2 C3.64 1.67 6.28 1.34 9 1 C8.67 3.31 8.34 5.62 8 8 C7.34 8 6.68 8 6 8 C6 7.34 6 6.68 6 6 C4.68 6 3.36 6 2 6 C2 6.99 2 7.98 2 9 C1.34 9 0.68 9 0 9 C0 8.01 0 7.02 0 6 C-0.66 6 -1.32 6 -2 6 C-2 4.35 -2 2.7 -2 1 C-1.34 0.67 -0.68 0.34 0 0 Z " fill="#D65B54" transform="translate(100,106)"/>
<path d="M0 0 C0.66 0 1.32 0 2 0 C2.33 2.97 2.66 5.94 3 9 C3.99 9.33 4.98 9.66 6 10 C3.875 11.625 3.875 11.625 1 13 C-2.0625 12.1875 -2.0625 12.1875 -5 11 C-6.32 11 -7.64 11 -9 11 C-9 10.34 -9 9.68 -9 9 C-5.535 8.505 -5.535 8.505 -2 8 C-1.34 5.36 -0.68 2.72 0 0 Z " fill="#CD5E59" transform="translate(189,162)"/>
<path d="M0 0 C1.65 0 3.3 0 5 0 C5.33 3.63 5.66 7.26 6 11 C4.68 11.33 3.36 11.66 2 12 C-0.37555161 9.62444839 -0.36834858 8.69703006 -0.6875 5.4375 C-0.77386719 4.63183594 -0.86023438 3.82617188 -0.94921875 2.99609375 C-0.96597656 2.33738281 -0.98273438 1.67867188 -1 1 C-0.67 0.67 -0.34 0.34 0 0 Z " fill="#D25C54" transform="translate(140,103)"/>
<path d="M0 0 C2.3125 0.8125 2.3125 0.8125 3.3125 2.8125 C1.9925 2.8125 0.6725 2.8125 -0.6875 2.8125 C-0.3575 4.1325 -0.0275 5.4525 0.3125 6.8125 C-1.3375 8.1325 -2.9875 9.4525 -4.6875 10.8125 C-6.83512184 7.59106724 -7.248568 6.5529533 -6.6875 2.8125 C-4.42423056 0.29775617 -3.39780274 -0.23705601 0 0 Z " fill="#CE5D53" transform="translate(174.6875,191.1875)"/>
<path d="M0 0 C2.8125 -0.3125 2.8125 -0.3125 6 0 C7.875 2.5 7.875 2.5 9 5 C7.29374499 7.78388975 6.52373261 8.85384206 3.3125 9.75 C2.549375 9.8325 1.78625 9.915 1 10 C1 9.34 1 8.68 1 8 C1.66 8 2.32 8 3 8 C2.67 7.38125 2.34 6.7625 2 6.125 C1 4 1 4 1 2 C0.67 1.34 0.34 0.68 0 0 Z " fill="#C86059" transform="translate(136,331)"/>
<path d="M0 0 C0.33 0.66 0.66 1.32 1 2 C1.66 2 2.32 2 3 2 C3 6.95 3 11.9 3 17 C2.01 17.33 1.02 17.66 0 18 C0 12.06 0 6.12 0 0 Z " fill="#C1605F" transform="translate(220,26)"/>
<path d="M0 0 C3.75230118 2.42083947 3.75230118 2.42083947 4.80859375 4.890625 C5.03529592 7.38897541 4.67011225 9.31955101 4.0625 11.75 C3.77052734 12.94882812 3.77052734 12.94882812 3.47265625 14.171875 C3.31667969 14.77515625 3.16070312 15.3784375 3 16 C2.34 16 1.68 16 1 16 C-0.06723961 12.53777385 -0.10173486 9.35960734 -0.0625 5.75 C-0.04896484 4.13351563 -0.04896484 4.13351563 -0.03515625 2.484375 C-0.02355469 1.66453125 -0.01195312 0.8446875 0 0 Z " fill="#C25651" transform="translate(188,28)"/>
<path d="M0 0 C0.86625 0.37125 0.86625 0.37125 1.75 0.75 C1.27354792 5.03806873 0.09097516 7.01647487 -3.25 9.75 C-3.91 9.75 -4.57 9.75 -5.25 9.75 C-6 7 -6 7 -6.25 3.75 C-3.39285714 -0.37698413 -3.39285714 -0.37698413 0 0 Z " fill="#C45E55" transform="translate(165.25,305.25)"/>
<path d="M0 0 C0.33 0.66 0.66 1.32 1 2 C-0.07518118 4.44332726 -1.19808566 6.76754523 -2.4375 9.125 C-2.77587891 9.78371094 -3.11425781 10.44242187 -3.46289062 11.12109375 C-4.30149926 12.75106547 -5.14984811 14.37601909 -6 16 C-6.33 16 -6.66 16 -7 16 C-7 13.66666667 -7 11.33333333 -7 9 C-7.99 9.99 -8.98 10.98 -10 12 C-8.84414715 8.08788267 -7.64465038 5.1254959 -5 2 C-5 3.65 -5 5.3 -5 7 C-4.34 7 -3.68 7 -3 7 C-2.814375 5.5459375 -2.814375 5.5459375 -2.625 4.0625 C-2.41875 3.051875 -2.2125 2.04125 -2 1 C-1.34 0.67 -0.68 0.34 0 0 Z " fill="#B85A57" transform="translate(68,283)"/>
<path d="M0 0 C0.66 0 1.32 0 2 0 C2.66 1.98 3.32 3.96 4 6 C4.99 6 5.98 6 7 6 C7.33 8.31 7.66 10.62 8 13 C5.625 12.75 5.625 12.75 3 12 C0.32855628 8.66069535 0.41104973 4.11049732 0 0 Z " fill="#C85D59" transform="translate(243,304)"/>
<path d="M0 0 C4.62 0 9.24 0 14 0 C16.21047839 4.42095678 16.06552362 4.5802837 15 9 C14.78118981 11.6068127 14.58987147 14.20220189 14.4375 16.8125 C14.39431641 17.50537109 14.35113281 18.19824219 14.30664062 18.91210938 C14.20138547 20.60788686 14.10027137 22.30392052 14 24 C13.67 24 13.34 24 13 24 C13 16.41 13 8.82 13 1 C8.71 1 4.42 1 0 1 C0 0.67 0 0.34 0 0 Z " fill="#AB6660" transform="translate(174,232)"/>
<path d="M0 0 C-3 2 -3 2 -5.125 2.5 C-5.74375 2.665 -6.3625 2.83 -7 3 C-7.33 3.66 -7.66 4.32 -8 5 C-8.66 5 -9.32 5 -10 5 C-11.04882391 8.56071312 -11.30386953 12.05527897 -11.5625 15.75 C-11.64628906 16.92046875 -11.73007813 18.0909375 -11.81640625 19.296875 C-11.87699219 20.18890625 -11.93757813 21.0809375 -12 22 C-12.33 22 -12.66 22 -13 22 C-13.10883596 19.62374823 -13.18766696 17.25256024 -13.25 14.875 C-13.28351563 14.20984375 -13.31703125 13.5446875 -13.3515625 12.859375 C-13.45212173 7.73085405 -12.22723319 4.9324434 -9 1 C-6.04335481 -0.4783226 -3.25770263 -0.06032783 0 0 Z " fill="#B7625A" transform="translate(103,118)"/>
<path d="M0 0 C6.6 0.33 13.2 0.66 20 1 C20 1.33 20 1.66 20 2 C19.14535156 2.04898437 18.29070312 2.09796875 17.41015625 2.1484375 C16.30542969 2.22320312 15.20070312 2.29796875 14.0625 2.375 C12.96035156 2.44460938 11.85820312 2.51421875 10.72265625 2.5859375 C9.82417969 2.72257812 8.92570313 2.85921875 8 3 C7.67 3.66 7.34 4.32 7 5 C5.02 5 3.04 5 1 5 C0.67 3.35 0.34 1.7 0 0 Z " fill="#BD574E" transform="translate(133,341)"/>
<path d="M0 0 C0.66 0 1.32 0 2 0 C2 5.94 2 11.88 2 18 C1.01 18 0.02 18 -1 18 C-0.505 9.09 -0.505 9.09 0 0 Z " fill="#B6635B" transform="translate(165,238)"/>
<path d="M0 0 C2.64 0 5.28 0 8 0 C8 1.65 8 3.3 8 5 C5.03 5 2.06 5 -1 5 C-1 4.34 -1 3.68 -1 3 C-0.34 3 0.32 3 1 3 C0.67 2.01 0.34 1.02 0 0 Z " fill="#B6635C" transform="translate(225,170)"/>
<path d="M0 0 C2.97 0 5.94 0 9 0 C8.67 0.66 8.34 1.32 8 2 C8.33 2.99 8.66 3.98 9 5 C6.03 5 3.06 5 0 5 C0 3.35 0 1.7 0 0 Z " fill="#B8635B" transform="translate(67,83)"/>
<path d="M0 0 C1.670625 0.061875 1.670625 0.061875 3.375 0.125 C3.375 0.785 3.375 1.445 3.375 2.125 C6.345 2.62 6.345 2.62 9.375 3.125 C9.375 3.455 9.375 3.785 9.375 4.125 C7.25027424 4.17886629 5.12516348 4.21773071 3 4.25 C1.22496094 4.28480469 1.22496094 4.28480469 -0.5859375 4.3203125 C-3.625 4.125 -3.625 4.125 -5.625 2.125 C-3.625 0.125 -3.625 0.125 0 0 Z " fill="#BB6560" transform="translate(154.625,228.875)"/>
<path d="M0 0 C0.66 0 1.32 0 2 0 C4.43160605 3.36683915 5 4.73350364 5 9 C5.66 9 6.32 9 7 9 C7 7.35 7 5.7 7 4 C8.5625 5.8125 8.5625 5.8125 10 8 C9 11 9 11 8 13 C7.67 13.99 7.34 14.98 7 16 C4.69 10.72 2.38 5.44 0 0 Z " fill="#AE615C" transform="translate(174,106)"/>
<path d="M0 0 C1.50559539 1.96382007 2.89131683 3.78263366 4 6 C1.94766315 8.2477975 0.99332739 9.0022242 -2 10 C-3.66710346 11.49985609 -3.66710346 11.49985609 -5 13 C-3.58192622 8.52761347 -1.88695626 4.28853694 0 0 Z " fill="#C35F5A" transform="translate(70,268)"/>
<path d="M0 0 C2.31 0 4.62 0 7 0 C7 0.33 7 0.66 7 1 C5.02 1 3.04 1 1 1 C0.731875 1.845625 0.46375 2.69125 0.1875 3.5625 C-1.0478595 7.13854067 -2.476988 10.53860908 -4 14 C-4.33 12.68 -4.66 11.36 -5 10 C-5.99 10 -6.98 10 -8 10 C-7.67 8.68 -7.34 7.36 -7 6 C-5.35 6 -3.7 6 -2 6 C-2 4.68 -2 3.36 -2 2 C-1.34 2 -0.68 2 0 2 C0 1.34 0 0.68 0 0 Z " fill="#BC5E59" transform="translate(121,260)"/>
<path d="M0 0 C3.63 0 7.26 0 11 0 C11 0.99 11 1.98 11 3 C7.78548731 4.60725635 4.56387464 4.05748185 1 4 C0.67 2.68 0.34 1.36 0 0 Z " fill="#B95552" transform="translate(223,85)"/>
<path d="M0 0 C0.33 0.66 0.66 1.32 1 2 C1.66 2 2.32 2 3 2 C3.33 3.32 3.66 4.64 4 6 C2.68 6 1.36 6 0 6 C-0.33 8.64 -0.66 11.28 -1 14 C-1.33 14 -1.66 14 -2 14 C-2.33 9.71 -2.66 5.42 -3 1 C-2.01 0.67 -1.02 0.34 0 0 Z " fill="#C3514D" transform="translate(189,68)"/>
<path d="M0 0 C0.33 0 0.66 0 1 0 C1 3.63 1 7.26 1 11 C-0.65 10.67 -2.3 10.34 -4 10 C-4.33 10.66 -4.66 11.32 -5 12 C-4.52496041 7.01208429 -3.0298864 3.9767259 0 0 Z " fill="#C65F5A" transform="translate(190,59)"/>
<path d="M0 0 C-1.07401108 2.91517292 -1.77810176 4.77810176 -4 7 C-7.125 6.625 -7.125 6.625 -10 6 C-7.24592055 1.86888082 -5.06244779 0 0 0 Z " fill="#D75852" transform="translate(170,326)"/>
<path d="M0 0 C0.66 0.99 1.32 1.98 2 3 C1.34 3 0.68 3 0 3 C0 3.66 0 4.32 0 5 C1.32 4.67 2.64 4.34 4 4 C3.01 6.64 2.02 9.28 1 12 C0.67 12 0.34 12 0 12 C0 10.35 0 8.7 0 7 C-0.33 7.66 -0.66 8.32 -1 9 C-1.66 9 -2.32 9 -3 9 C-3 9.66 -3 10.32 -3 11 C-3.66 10.67 -4.32 10.34 -5 10 C-3.35 6.7 -1.7 3.4 0 0 Z " fill="#BC5953" transform="translate(87,322)"/>
<path d="M0 0 C0.66 0 1.32 0 2 0 C2.33 3.3 2.66 6.6 3 10 C2.34 10 1.68 10 1 10 C0.34 8.35 -0.32 6.7 -1 5 C-4.96 4.67 -8.92 4.34 -13 4 C-13 3.67 -13 3.34 -13 3 C-6.565 2.505 -6.565 2.505 0 2 C0 1.34 0 0.68 0 0 Z " fill="#B55B57" transform="translate(94,142)"/>
<path d="M0 0 C0.33 0.66 0.66 1.32 1 2 C-1.10320063 2.50404808 -3.20759791 3.00310508 -5.3125 3.5 C-7.07013672 3.91765625 -7.07013672 3.91765625 -8.86328125 4.34375 C-12 5 -12 5 -15 5 C-15 3.68 -15 2.36 -15 1 C-10.05 0.67 -5.1 0.34 0 0 Z " fill="#AF5E57" transform="translate(209,82)"/>
<path d="M0 0 C7.92 0 15.84 0 24 0 C25.24546405 2.49092811 24.7767578 3.41080733 24 6 C23.34 6 22.68 6 22 6 C22.33 4.68 22.66 3.36 23 2 C11.615 1.505 11.615 1.505 0 1 C0 0.67 0 0.34 0 0 Z " fill="#C46057" transform="translate(93,259)"/>
<path d="M0 0 C0.99 0.33 1.98 0.66 3 1 C3 2.65 3 4.3 3 6 C9.435 5.505 9.435 5.505 16 5 C16 5.66 16 6.32 16 7 C10.72 7 5.44 7 0 7 C0 4.69 0 2.38 0 0 Z " fill="#B7564B" transform="translate(154,336)"/>
<path d="M0 0 C2.31 0 4.62 0 7 0 C6.67 0.99 6.34 1.98 6 3 C6.99 3.66 7.98 4.32 9 5 C6.03 5 3.06 5 0 5 C0 3.35 0 1.7 0 0 Z " fill="#B66762" transform="translate(67,228)"/>
<path d="M0 0 C2.64 0 5.28 0 8 0 C7.01 0.33 6.02 0.66 5 1 C5.95865509 3.33075929 5.95865509 3.33075929 9 5 C6.03 5 3.06 5 0 5 C0 3.35 0 1.7 0 0 Z " fill="#B1635E" transform="translate(67,170)"/>
<path d="M0 0 C2.64465038 3.1254959 3.84414715 6.08788267 5 10 C3.5 8.625 3.5 8.625 2 7 C2 6.34 2 5.68 2 5 C1.34 5 0.68 5 0 5 C0 6.65 0 8.3 0 10 C-2.15377564 7.37801226 -3.40072174 5.35595828 -4 2 C-3.01 2 -2.02 2 -1 2 C-0.67 1.34 -0.34 0.68 0 0 Z " fill="#AD5F5B" transform="translate(174,95)"/>
<path d="M0 0 C1.65 0 3.3 0 5 0 C3.75 2.9375 3.75 2.9375 2 6 C-0.1875 6.875 -0.1875 6.875 -2 7 C-2.33 5.02 -2.66 3.04 -3 1 C-2.01 1.495 -2.01 1.495 -1 2 C-0.67 1.34 -0.34 0.68 0 0 Z " fill="#AA6467" transform="translate(115,146)"/>
<path d="M0 0 C0.99 0 1.98 0 3 0 C3 5.28 3 10.56 3 16 C2.34 16 1.68 16 1 16 C1 11.71 1 7.42 1 3 C0.01 2.67 -0.98 2.34 -2 2 C-1.34 1.34 -0.68 0.68 0 0 Z " fill="#C45347" transform="translate(93,126)"/>
<path d="M0 0 C0.66 0.33 1.32 0.66 2 1 C2 3.31 2 5.62 2 8 C1.34 8 0.68 8 0 8 C-0.33 8.99 -0.66 9.98 -1 11 C-2.33332095 8.3333581 -1.67102033 6.83319697 -1 4 C-1.66 4 -2.32 4 -3 4 C-3 3.34 -3 2.68 -3 2 C-2.01 1.34 -1.02 0.68 0 0 Z " fill="#BC5D56" transform="translate(142,300)"/>
<path d="M0 0 C2.64 0 5.28 0 8 0 C8 1.32 8 2.64 8 4 C5.36 3.67 2.72 3.34 0 3 C0 2.01 0 1.02 0 0 Z " fill="#D25B56" transform="translate(68,257)"/>
<path d="M0 0 C0.66 0 1.32 0 2 0 C2.28875 0.61875 2.5775 1.2375 2.875 1.875 C3.93720042 4.13325765 3.93720042 4.13325765 6 6 C2.77208445 8.1519437 1.71599191 8.20086443 -2 8 C-1.67 7.4225 -1.34 6.845 -1 6.25 C0.27075898 3.80116138 0.27075898 3.80116138 0 0 Z " fill="#D15F56" transform="translate(205,165)"/>
<path d="M0 0 C0.99 0.99 1.98 1.98 3 3 C2.34 4.98 1.68 6.96 1 9 C0.01 8.67 -0.98 8.34 -2 8 C-2.20086443 4.28400809 -2.1519437 3.22791555 0 0 Z " fill="#D0574E" transform="translate(57,299)"/>
<path d="M0 0 C2.31 0.33 4.62 0.66 7 1 C6.67 1.99 6.34 2.98 6 4 C1.25 5.125 1.25 5.125 -1 4 C-0.67 2.68 -0.34 1.36 0 0 Z " fill="#C76161" transform="translate(115,141)"/>
<path d="M0 0 C0.66 0 1.32 0 2 0 C2.1875 2.375 2.1875 2.375 2 5 C1.01 5.66 0.02 6.32 -1 7 C-1.72382467 9.05925139 -1.72382467 9.05925139 -2 11 C-3.32 10.34 -4.64 9.68 -6 9 C-5.01 9 -4.02 9 -3 9 C-2.87625 8.2575 -2.7525 7.515 -2.625 6.75 C-2.04513299 4.19858515 -1.26291261 2.2732427 0 0 Z " fill="#D75750" transform="translate(121,280)"/>
<path d="M0 0 C0 1.65 0 3.3 0 5 C-2.97 4.505 -2.97 4.505 -6 4 C-6.33 3.01 -6.66 2.02 -7 1 C-4 0 -4 0 0 0 Z " fill="#D35D56" transform="translate(79,170)"/>
<path d="M0 0 C0 0.33 0 0.66 0 1 C-0.7425 1.020625 -1.485 1.04125 -2.25 1.0625 C-5.42791249 2.14587926 -5.72751232 2.74474412 -7.3125 5.5625 C-7.869375 6.696875 -8.42625 7.83125 -9 9 C-9.66 9 -10.32 9 -11 9 C-9.23193338 1.65572327 -7.69225618 -0.34187805 0 0 Z " fill="#B1605E" transform="translate(145,102)"/>
<path d="M0 0 C2.40063202 3.38912755 1.92501711 6.04915702 1.29296875 10.02734375 C0.94552879 12.36677279 0.92621475 14.6388719 1 17 C-1.16577207 13.7513419 -1.24955466 12.81398653 -1.1875 9.0625 C-1.18105469 8.20785156 -1.17460938 7.35320312 -1.16796875 6.47265625 C-1.01275689 4.18779332 -0.63624477 2.19377195 0 0 Z " fill="#BD5E55" transform="translate(121,318)"/>
<path d="M0 0 C0.66 0.66 1.32 1.32 2 2 C2.99 1.67 3.98 1.34 5 1 C3.7874262 4.72433382 2.49140021 8.37802806 1 12 C0.01879536 8.94736336 0.01879536 7.05263664 1 4 C0.34 4 -0.32 4 -1 4 C-0.67 2.68 -0.34 1.36 0 0 Z " fill="#C45D57" transform="translate(44,323)"/>
<path d="M0 0 C2.31 0.66 4.62 1.32 7 2 C7 2.99 7 3.98 7 5 C5.02 5 3.04 5 1 5 C1 4.34 1 3.68 1 3 C0.34 2.34 -0.32 1.68 -1 1 C-0.67 0.67 -0.34 0.34 0 0 Z " fill="#C4615B" transform="translate(138,323)"/>
<path d="M0 0 C1.98 0.99 3.96 1.98 6 3 C6 4.32 6 5.64 6 7 C2.37673261 8.2077558 1.35853631 7.54311128 -2 6 C-2 5.67 -2 5.34 -2 5 C-0.02 5 1.96 5 4 5 C4 4.34 4 3.68 4 3 C2.68 2.67 1.36 2.34 0 2 C0 1.34 0 0.68 0 0 Z " fill="#AF605A" transform="translate(180,217)"/>
<path d="M0 0 C-0.33 2.64 -0.66 5.28 -1 8 C-2.32 8.33 -3.64 8.66 -5 9 C-5 8.34 -5 7.68 -5 7 C-4.01 7 -3.02 7 -2 7 C-2 6.34 -2 5.68 -2 5 C-2.99 5.33 -3.98 5.66 -5 6 C-5 3 -5 3 -3.625 1.3125 C-2 0 -2 0 0 0 Z " fill="#CF5E59" transform="translate(116,196)"/>
<path d="M0 0 C2.69516038 4.04274058 3.10077239 5.8108858 2.6875 10.6875 C2.3471875 12.3271875 2.3471875 12.3271875 2 14 C1.01 14.495 1.01 14.495 0 15 C0 10.05 0 5.1 0 0 Z " fill="#BE504D" transform="translate(111,127)"/>
<path d="M0 0 C0.99 0 1.98 0 3 0 C2.67 1.65 2.34 3.3 2 5 C0.02 5.66 -1.96 6.32 -4 7 C-3.67 6.01 -3.34 5.02 -3 4 C-2.34 3.67 -1.68 3.34 -1 3 C-0.67 2.01 -0.34 1.02 0 0 Z " fill="#CD5D50" transform="translate(179,80)"/>
<path d="M0 0 C2.8125 -0.3125 2.8125 -0.3125 6 0 C7.875 2.5 7.875 2.5 9 5 C8.01 6.32 7.02 7.64 6 9 C5.34 8.67 4.68 8.34 4 8 C4.165 7.21625 4.33 6.4325 4.5 5.625 C5.0623707 3.11791961 5.0623707 3.11791961 5 1 C3.35 1 1.7 1 0 1 C0 0.67 0 0.34 0 0 Z " fill="#AF645D" transform="translate(136,331)"/>
<path d="M0 0 C1.32 0.66 2.64 1.32 4 2 C2.02 2.99 2.02 2.99 0 4 C0 7.63 0 11.26 0 15 C-0.33 15 -0.66 15 -1 15 C-1.02685412 12.68756208 -1.04632841 10.3750373 -1.0625 8.0625 C-1.07410156 6.77472656 -1.08570312 5.48695313 -1.09765625 4.16015625 C-1 1 -1 1 0 0 Z " fill="#A55958" transform="translate(112,152)"/>
<path d="M0 0 C1.43088528 2.86177057 0.59991697 4.93375773 0 8 C0.66 8 1.32 8 2 8 C2.66 9.65 3.32 11.3 4 13 C0.83884224 11.63016497 0.0072908 11.0109362 -2 8 C-1.43396226 1.43396226 -1.43396226 1.43396226 0 0 Z " fill="#B4625E" transform="translate(98,104)"/>
<path d="M0 0 C0.33 0.66 0.66 1.32 1 2 C-2.3 2.66 -5.6 3.32 -9 4 C-6.38848737 -1.22302527 -5.38421811 -1.51862562 0 0 Z " fill="#B25E5A" transform="translate(177,192)"/>
<path d="M0 0 C0.33 0.99 0.66 1.98 1 3 C2.32 2.67 3.64 2.34 5 2 C4.34 3.98 3.68 5.96 3 8 C2.67 7.01 2.34 6.02 2 5 C0.68 5.33 -0.64 5.66 -2 6 C-1.34 4.02 -0.68 2.04 0 0 Z " fill="#B85752" transform="translate(97,327)"/>
<path d="M0 0 C2.15377564 2.62198774 3.40072174 4.64404172 4 8 C3.01 7.67 2.02 7.34 1 7 C0.67 6.01 0.34 5.02 0 4 C-0.66 3.67 -1.32 3.34 -2 3 C-2.33 3.66 -2.66 4.32 -3 5 C-3.33 4.01 -3.66 3.02 -4 2 C-2.68 1.34 -1.36 0.68 0 0 Z " fill="#B0635D" transform="translate(203,156)"/>
<path d="M0 0 C2.475 0.495 2.475 0.495 5 1 C5 2.98 5 4.96 5 7 C4.01 7.495 4.01 7.495 3 8 C2.814375 7.13375 2.814375 7.13375 2.625 6.25 C1.99351176 3.97664233 1.11141809 2.0746471 0 0 Z " fill="#A45C5E" transform="translate(188,26)"/>
<path d="M0 0 C0.66 0.33 1.32 0.66 2 1 C1.34 2.98 0.68 4.96 0 7 C-0.99 7 -1.98 7 -3 7 C-3 5.35 -3 3.7 -3 2 C-2.01 2.33 -1.02 2.66 0 3 C0 2.01 0 1.02 0 0 Z " fill="#C75C59" transform="translate(85,333)"/>
<path d="M0 0 C0.99 0.495 0.99 0.495 2 1 C2 1.66 2 2.32 2 3 C2.99 3 3.98 3 5 3 C4.125 6.875 4.125 6.875 3 8 C2.01 7.67 1.02 7.34 0 7 C0 4.69 0 2.38 0 0 Z " fill="#C75B55" transform="translate(255,328)"/>
<path d="M0 0 C0.66 0.33 1.32 0.66 2 1 C0.75023244 4.65316671 0.32901247 5.78065836 -3 8 C-3.36923077 3.44615385 -3.36923077 3.44615385 -1.5 1.1875 C-1.005 0.795625 -0.51 0.40375 0 0 Z " fill="#B3625A" transform="translate(163,323)"/>
<path d="M0 0 C0.33 0.99 0.66 1.98 1 3 C2.65 2.67 4.3 2.34 6 2 C4.71937515 3.7074998 3.38232443 5.37373596 2 7 C1.34 7 0.68 7 0 7 C-0.38133299 5.0085944 -0.71325582 3.00720923 -1 1 C-0.67 0.67 -0.34 0.34 0 0 Z " fill="#B46059" transform="translate(160,308)"/>
<path d="M0 0 C1.32 0 2.64 0 4 0 C3.67 0.99 3.34 1.98 3 3 C2.01 3.33 1.02 3.66 0 4 C-0.66 4.66 -1.32 5.32 -2 6 C-2.99 5.34 -3.98 4.68 -5 4 C-4.360625 3.71125 -3.72125 3.4225 -3.0625 3.125 C-0.84793921 2.17176549 -0.84793921 2.17176549 0 0 Z " fill="#BE5C58" transform="translate(119,214)"/>
<path d="M0 0 C0.66 0.33 1.32 0.66 2 1 C2 3.64 2 6.28 2 9 C1.34 9 0.68 9 0 9 C-0.87890625 2.84765625 -0.87890625 2.84765625 -1 1 C-0.67 0.67 -0.34 0.34 0 0 Z " fill="#C55E50" transform="translate(179,106)"/>
<path d="M0 0 C1.32 0 2.64 0 4 0 C3.34 1.98 2.68 3.96 2 6 C1.34 6 0.68 6 0 6 C0 5.34 0 4.68 0 4 C-0.66 3.67 -1.32 3.34 -2 3 C-1.34 2.01 -0.68 1.02 0 0 Z " fill="#BF5550" transform="translate(182,76)"/>
<path d="M0 0 C0.33 0 0.66 0 1 0 C1.63019694 10.15317287 1.63019694 10.15317287 -1 13.6875 C-1.66 14.120625 -2.32 14.55375 -3 15 C-2.125 11.125 -2.125 11.125 -1 10 C-0.76712992 8.31816052 -0.58735834 6.6287584 -0.4375 4.9375 C-0.31181641 3.55884766 -0.31181641 3.55884766 -0.18359375 2.15234375 C-0.12300781 1.44207031 -0.06242188 0.73179687 0 0 Z " fill="#B05D5B" transform="translate(179,309)"/>
<path d="M0 0 C0.66 0 1.32 0 2 0 C1.125 4.75 1.125 4.75 0 7 C-0.99 6.67 -1.98 6.34 -3 6 C-2.67 4.68 -2.34 3.36 -2 2 C-1.34 2 -0.68 2 0 2 C0 1.34 0 0.68 0 0 Z " fill="#D95A56" transform="translate(95,309)"/>
<path d="M0 0 C1.9453125 -0.29296875 1.9453125 -0.29296875 4.125 -0.1875 C5.40375 -0.125625 6.6825 -0.06375 8 0 C7.67 0.99 7.34 1.98 7 3 C6.01 2.67 5.02 2.34 4 2 C1.99124558 2.27571139 -0.01178687 2.60235737 -2 3 C-1.34 2.01 -0.68 1.02 0 0 Z " fill="#D15E59" transform="translate(134,299)"/>
<path d="M0 0 C0.33 0 0.66 0 1 0 C1 3.96 1 7.92 1 12 C0.67 12 0.34 12 0 12 C0 9.69 0 7.38 0 5 C-0.99 4.67 -1.98 4.34 -3 4 C-3 3.34 -3 2.68 -3 2 C-2.01 2 -1.02 2 0 2 C0 1.34 0 0.68 0 0 Z " fill="#C76A65" transform="translate(223,273)"/>
<path d="M0 0 C0.33 1.32 0.66 2.64 1 4 C0.401875 4.103125 -0.19625 4.20625 -0.8125 4.3125 C-3.28243264 5.08876455 -4.32251235 6.07088921 -6 8 C-5.8125 5.6875 -5.8125 5.6875 -5 3 C-2.4375 1.1875 -2.4375 1.1875 0 0 Z " fill="#BA5D59" transform="translate(185,72)"/>
<path d="M0 0 C0.66 0 1.32 0 2 0 C2.33 2.31 2.66 4.62 3 7 C2.01 7 1.02 7 0 7 C0 4.69 0 2.38 0 0 Z " fill="#BA615F" transform="translate(220,53)"/>
<path d="M0 0 C0.33 0 0.66 0 1 0 C1.125 6.75 1.125 6.75 0 9 C-0.66 9 -1.32 9 -2 9 C-1.125 1.125 -1.125 1.125 0 0 Z " fill="#BE5B50" transform="translate(173,240)"/>
<path d="M0 0 C0.99 0.33 1.98 0.66 3 1 C2.67 1.66 2.34 2.32 2 3 C3.65 3 5.3 3 7 3 C5.3125 4.125 5.3125 4.125 3 5 C0.25 4.125 0.25 4.125 -2 3 C-2 2.34 -2 1.68 -2 1 C-1.34 0.67 -0.68 0.34 0 0 Z " fill="#D05E5D" transform="translate(113,226)"/>
<path d="M0 0 C1.98 0.495 1.98 0.495 4 1 C3.67 2.32 3.34 3.64 3 5 C1.68 4.67 0.36 4.34 -1 4 C-0.67 2.68 -0.34 1.36 0 0 Z " fill="#CF5B55" transform="translate(218,69)"/>
<path d="M0 0 C0.33 0.99 0.66 1.98 1 3 C0.67 3.66 0.34 4.32 0 5 C-1.32 4.67 -2.64 4.34 -4 4 C-3.67 3.01 -3.34 2.02 -3 1 C-2.01 0.67 -1.02 0.34 0 0 Z " fill="#D0534B" transform="translate(71,276)"/>
<path d="M0 0 C0.625 1.875 0.625 1.875 1 4 C0.34 4.66 -0.32 5.32 -1 6 C-1 5.34 -1 4.68 -1 4 C-2.32 4 -3.64 4 -5 4 C-5 3.34 -5 2.68 -5 2 C-3.35 1.34 -1.7 0.68 0 0 Z " fill="#C8514A" transform="translate(195,143)"/>
<path d="M0 0 C2.97 0 5.94 0 9 0 C9 1.32 9 2.64 9 4 C8.01 3.67 7.02 3.34 6 3 C6 2.34 6 1.68 6 1 C4.02 1 2.04 1 0 1 C0 0.67 0 0.34 0 0 Z " fill="#AA6664" transform="translate(224,141)"/>
<path d="M0 0 C1.32 0.99 2.64 1.98 4 3 C3.01 3.495 3.01 3.495 2 4 C1.53476937 5.89533342 1.53476937 5.89533342 1.375 8.0625 C1.25125 9.361875 1.1275 10.66125 1 12 C0.67 12 0.34 12 0 12 C0 8.04 0 4.08 0 0 Z " fill="#BE635F" transform="translate(188,28)"/>
</svg>
