<?xml version="1.0" encoding="UTF-8"?>
<svg version="1.1" xmlns="http://www.w3.org/2000/svg" width="222" height="279">
<path d="M0 0 C2.3129482 2.3129482 2.49580975 3.47904875 3.125 6.625 C3.29257813 7.44226563 3.46015625 8.25953125 3.6328125 9.1015625 C3.75398438 9.72804688 3.87515625 10.35453125 4 11 C4.85078125 10.77570312 5.7015625 10.55140625 6.578125 10.3203125 C13.85694819 9.63896147 21.15568659 14.91006471 26.88671875 19.12109375 C38.16876611 28.81363368 46.0983616 42.09005255 48 57 C48.13081922 59.69307151 48.09813494 62.30128903 48 65 C49.0725 64.95875 50.145 64.9175 51.25 64.875 C54.6861482 64.98953827 56.25767552 65.0702161 59 67 C61.18210927 70.27316391 61.34824318 71.54220719 61.4375 75.375 C61.47746094 76.31085938 61.51742187 77.24671875 61.55859375 78.2109375 C60.76130426 82.1918095 59.17200947 83.50754004 56 86 C53.19635698 86.5895217 50.53642914 86.47798739 47.6875 86.3125 C46.94693359 86.28994141 46.20636719 86.26738281 45.44335938 86.24414062 C43.62802643 86.1855815 41.81374319 86.09590886 40 86 C39.88724731 87.45067871 39.88724731 87.45067871 39.7722168 88.93066406 C39.48606568 92.57703867 39.18642895 96.22220871 38.88305664 99.8671875 C38.75447256 101.43395477 38.62937088 103.00101244 38.50805664 104.56835938 C36.99944259 123.98788508 33.94483206 139.26167656 18.98828125 152.82421875 C11.6462467 158.73656706 3.45983338 161.20567873 -5.75 162.60546875 C-8.02654999 162.89410226 -8.02654999 162.89410226 -10 164 C-10 163.34 -10 162.68 -10 162 C-10.59425781 162.04640625 -11.18851562 162.0928125 -11.80078125 162.140625 C-18.98834565 162.45361381 -24.46103566 160.89445333 -31 158 C-31.7734375 157.68417969 -32.546875 157.36835938 -33.34375 157.04296875 C-43.17256332 152.42273432 -49.79948834 142.64675076 -54.0625 132.9609375 C-56.92554009 123.91850254 -57.6984101 114.52326899 -58.625 105.125 C-58.82609375 103.16820313 -58.82609375 103.16820313 -59.03125 101.171875 C-60 91.58322704 -60 91.58322704 -60 87 C-61.64548828 86.97873047 -61.64548828 86.97873047 -63.32421875 86.95703125 C-64.77868698 86.91011292 -66.23311277 86.86186562 -67.6875 86.8125 C-68.7693457 86.80379883 -68.7693457 86.80379883 -69.87304688 86.79492188 C-73.8969938 86.62955419 -75.64563267 86.26160102 -78.984375 83.796875 C-81.82235531 79.85890233 -81.6425388 77.23958568 -81.43359375 72.53515625 C-81 70 -81 70 -79.125 67.375 C-75.23165996 64.85577998 -72.64140831 64.91404799 -68 65 C-68.04640625 64.42894531 -68.0928125 63.85789063 -68.140625 63.26953125 C-68.74841902 49.61587269 -62.91840546 36.59616136 -54.25 26.25 C-47.76498868 19.34580544 -39.04653278 13.04725315 -30 10 C-28.68 10.33 -27.36 10.66 -26 11 C-24.68 18.92 -23.36 26.84 -22 35 C-20.68 35.33 -19.36 35.66 -18 36 C-19.33475055 25.43340731 -19.33475055 25.43340731 -21.125 14.9375 C-21.8254031 11.23694505 -22.29862733 7.78261279 -22 4 C-21 3 -21 3 -18.95874023 2.88647461 C-18.08419189 2.89171143 -17.20964355 2.89694824 -16.30859375 2.90234375 C-15.36435547 2.90556641 -14.42011719 2.90878906 -13.44726562 2.91210938 C-12.45404297 2.92048828 -11.46082031 2.92886719 -10.4375 2.9375 C-9.44041016 2.94201172 -8.44332031 2.94652344 -7.41601562 2.95117188 C-4.94395151 2.96299993 -2.47200482 2.97948151 0 3 C0 2.01 0 1.02 0 0 Z M1 9 C-0.32 17.58 -1.64 26.16 -3 35 C-1.35 35.33 0.3 35.66 2 36 C4.39579034 29.2733579 7.42630608 20.59183234 5.234375 13.53515625 C4.07395046 11.42439828 4.07395046 11.42439828 2 9 C1.67 9 1.34 9 1 9 Z M-52 87 C-51.68467889 119.93027198 -51.68467889 119.93027198 -35 147 C-26.56123207 153.97115612 -16.56223006 155.84924777 -5.875 155.3828125 C6.92810795 154.11798934 15.1334768 147.62958044 23.140625 138.05078125 C28.49217577 129.2701906 29.82715557 120.02907532 30.75 109.9375 C30.87503906 108.73544922 31.00007813 107.53339844 31.12890625 106.29492188 C31.80390325 99.49673784 32.06342105 92.82731908 32 86 C22.0813468 85.97679373 12.16270009 85.95904272 2.24402523 85.94818783 C-2.3619845 85.94297711 -6.9679756 85.93591243 -11.57397461 85.92456055 C-16.02193318 85.91366721 -20.46987388 85.90770952 -24.91784477 85.90512276 C-26.61183389 85.90328011 -28.30582207 85.89968193 -29.99980354 85.89426994 C-32.3788779 85.88697391 -34.75787909 85.88601266 -37.13696289 85.88647461 C-37.83180283 85.88287933 -38.52664276 85.87928406 -39.24253845 85.87557983 C-43.60467099 85.88469976 -47.70872351 86.2969427 -52 87 Z " fill="#D55B53" transform="translate(124,2)"/>
<path d="M0 0 C2.18300442 0.02549248 4.36599987 0.04557034 6.54907227 0.06426239 C10.62182256 0.10040595 14.69373748 0.16254591 18.76611328 0.22863007 C19.97459427 0.2382074 21.18307526 0.24778473 22.42817688 0.25765228 C23.53847763 0.28062378 24.64877838 0.30359528 25.79272461 0.32726288 C26.75503494 0.34138214 27.71734528 0.3555014 28.70881653 0.37004852 C31.8731848 0.8518836 33.7887308 1.91231308 36.37158203 3.77550507 C45.01899655 21.07033409 37.79183506 42.44386581 37.37158203 61.77550507 C-10.14841797 61.77550507 -57.66841797 61.77550507 -106.62841797 61.77550507 C-107.78807061 7.27183105 -107.78807061 7.27183105 -104.69091797 3.27550507 C-101.38438101 0.87075091 -99.44574912 0.63199818 -95.39013672 0.55431366 C-94.27959427 0.53120117 -93.16905182 0.50808868 -92.02485657 0.48427582 C-90.80090683 0.46436584 -89.57695709 0.44445587 -88.31591797 0.42394257 C-86.38929573 0.38839767 -86.38929573 0.38839767 -84.42375183 0.3521347 C-80.158769 0.27569343 -75.89363288 0.212404 -71.62841797 0.15050507 C-70.54038061 0.1341526 -70.54038061 0.1341526 -69.4303627 0.11746979 C-46.28440783 -0.22900292 -23.14687739 -0.28931986 0 0 Z " fill="#D55B53" transform="translate(148.62841796875,215.22449493408203)"/>
<path d="M0 0 C1 1 1 1 1.12025452 2.86659241 C1.11803391 3.68155685 1.11581329 4.4965213 1.11352539 5.33618164 C1.11344986 6.2570607 1.11337433 7.17793976 1.11329651 8.12672424 C1.10813522 9.12775681 1.10297394 10.12878937 1.09765625 11.16015625 C1.0962413 12.17975937 1.09482635 13.19936249 1.09336853 14.24986267 C1.08775097 17.52077107 1.0751955 20.79161213 1.0625 24.0625 C1.05748726 26.27408756 1.05292396 28.48567618 1.04882812 30.69726562 C1.03777584 36.13153357 1.02102063 41.56576197 1 47 C0.38511719 47.1868335 -0.22976562 47.37366699 -0.86328125 47.56616211 C-1.67152344 47.82147705 -2.47976562 48.07679199 -3.3125 48.33984375 C-4.11300781 48.58855225 -4.91351563 48.83726074 -5.73828125 49.09350586 C-9.59859809 50.64071618 -12.15772911 53.31545821 -14 57 C-14.11435961 58.78138597 -14.16680576 60.56689735 -14.18945312 62.35180664 C-14.20617065 63.46959 -14.22288818 64.58737335 -14.2401123 65.73902893 C-14.25368774 66.95050095 -14.26726318 68.16197296 -14.28125 69.41015625 C-14.29965942 70.6479332 -14.31806885 71.88571014 -14.33703613 73.16099548 C-14.40596731 77.80340449 -14.46633973 82.44590631 -14.52606201 87.08843994 C-14.58496804 91.63326649 -14.65110446 96.17795271 -14.71875 100.72265625 C-14.73232544 101.9361525 -14.74590088 103.14964874 -14.7598877 104.3999176 C-14.77660522 105.5145488 -14.79332275 106.62917999 -14.81054688 107.77758789 C-14.82933899 109.25745934 -14.82933899 109.25745934 -14.84851074 110.76722717 C-15 113 -15 113 -16 114 C-19.09631103 114.25068786 -22.20723686 114.18522508 -25.3125 114.1875 C-26.18068359 114.19974609 -27.04886719 114.21199219 -27.94335938 114.22460938 C-29.2030957 114.22750977 -29.2030957 114.22750977 -30.48828125 114.23046875 C-31.25696533 114.23457764 -32.02564941 114.23868652 -32.81762695 114.24291992 C-35.32629882 113.96367968 -36.87399447 113.35321984 -39 112 C-42.11821865 107.32267202 -42.12758484 103.09257301 -42.16113281 97.56420898 C-42.17074036 96.28194931 -42.1803479 94.99968964 -42.19024658 93.67857361 C-42.19509739 92.28441549 -42.19937552 90.89025527 -42.203125 89.49609375 C-42.20595238 88.7875078 -42.20877975 88.07892185 -42.21169281 87.3488636 C-42.22665789 83.59381873 -42.23590237 79.83881196 -42.24023438 76.08374023 C-42.24569359 72.23650677 -42.26967477 68.38963178 -42.29820633 64.54251003 C-42.31699306 61.55761254 -42.32204689 58.57279833 -42.32357025 55.58784676 C-42.32656484 54.17149982 -42.3344829 52.75515319 -42.34775543 51.33886528 C-42.47513421 36.69288731 -40.35562293 23.06980382 -30 12 C-29.34 12 -28.68 12 -28 12 C-28 11.34 -28 10.68 -28 10 C-19.96713814 4.27210022 -10.1709462 -1.04317397 0 0 Z " fill="#D45B53" transform="translate(52,163)"/>
<path d="M0 0 C11.73425782 0.49320874 22.98171744 5.28875095 31.0625 13.8125 C40.13583292 24.89649701 41.21931842 34.91436531 41.625 48.8125 C41.65719131 49.90708023 41.65719131 49.90708023 41.69003296 51.02377319 C42.02408437 63.06410554 42.07161259 75.09839612 41.85784912 87.14144897 C41.82771889 88.91611168 41.80395258 90.69089432 41.78668213 92.46572876 C41.75935253 94.96368377 41.70578238 97.45970569 41.64453125 99.95703125 C41.6401152 100.69832275 41.63569916 101.43961426 41.63114929 102.20336914 C41.4707372 107.05093987 40.44982986 109.59137902 37 113 C34.65147472 114.17426264 33.26225935 114.11508173 30.6484375 114.09765625 C29.79765625 114.09443359 28.946875 114.09121094 28.0703125 114.08789062 C27.18085938 114.07951172 26.29140625 114.07113281 25.375 114.0625 C24.4778125 114.05798828 23.580625 114.05347656 22.65625 114.04882812 C20.43743352 114.03702591 18.21874982 114.02056155 16 114 C14.66900155 111.33800309 14.90422784 109.35470636 14.9375 106.375 C14.94620117 105.20525635 14.95490234 104.0355127 14.96386719 102.83032227 C14.97579102 101.56631592 14.98771484 100.30230957 15 99 C15.0329481 88.85135282 15.01837908 78.70839603 14.75 68.5625 C14.73582031 67.48677734 14.72164062 66.41105469 14.70703125 65.30273438 C14.51388217 59.27262015 14.03024999 55.59402787 10 51 C6.72857402 48.74384415 2.79330766 48.07499079 -1 47 C-1.02527002 40.46721214 -1.04283292 33.93443679 -1.05493164 27.40161133 C-1.05997317 25.17732268 -1.06680623 22.95303737 -1.07543945 20.72875977 C-1.08751298 17.53921691 -1.09322996 14.34971771 -1.09765625 11.16015625 C-1.10281754 10.15912369 -1.10797882 9.15809113 -1.11329651 8.12672424 C-1.11337204 7.20584518 -1.11344757 6.28496613 -1.11352539 5.33618164 C-1.115746 4.52121719 -1.11796661 3.70625275 -1.12025452 2.86659241 C-1 1 -1 1 0 0 Z " fill="#D35C54" transform="translate(176,163)"/>
<path d="M0 0 C7 0 7 0 9.625 2.265625 C10.40875 3.25046875 11.1925 4.2353125 12 5.25 C18.17092105 12.52253782 23.94392406 16.33184934 33.72265625 17.2578125 C43.57206915 17.6390801 51.41058995 15.56860362 58.9375 9.0625 C61.34243314 6.78526243 63.2021191 4.71465538 65.125 2 C65.74375 1.34 66.3625 0.68 67 0 C69.31 0 71.62 0 74 0 C74 15.51 74 31.02 74 47 C49.18373299 47.86234132 24.81626701 47.86234132 0 47 C0 31.49 0 15.98 0 0 Z " fill="#D55C54" transform="translate(77,164)"/>
<path d="M0 0 C2.18300474 0.02504639 4.36600402 0.04492214 6.54907227 0.06354141 C10.62182538 0.09966871 14.69373728 0.16195544 18.76611328 0.22818375 C20.57883476 0.2425573 20.57883476 0.2425573 22.42817688 0.25722122 C23.53847763 0.28018768 24.64877838 0.30315414 25.79272461 0.32681656 C26.75503494 0.34093582 27.71734528 0.35505508 28.70881653 0.3696022 C31.8731848 0.85143728 33.7887308 1.91186676 36.37158203 3.77505875 C45.01899655 21.06988777 37.79183506 42.44341949 37.37158203 61.77505875 C-10.14841797 61.77505875 -57.66841797 61.77505875 -106.62841797 61.77505875 C-106.62841797 46.92505875 -106.62841797 32.07505875 -106.62841797 16.77505875 C-106.29841797 16.77505875 -105.96841797 16.77505875 -105.62841797 16.77505875 C-105.57306885 18.01183365 -105.51771973 19.24860855 -105.46069336 20.52286148 C-105.25485171 25.0945394 -105.04281076 29.66591206 -104.82885742 34.23721695 C-104.73698442 36.21890953 -104.64681186 38.20068168 -104.55834961 40.18252945 C-104.43119001 43.02479513 -104.29799527 45.86672217 -104.16357422 48.7086525 C-104.12498795 49.60031616 -104.08640167 50.49197983 -104.04664612 51.4106636 C-104.23496447 55.41766399 -104.23496447 55.41766399 -102.62841797 58.77505875 C-100.512367 58.89897557 -98.39220514 58.95305781 -96.27270508 58.98038101 C-95.60931625 58.99028061 -94.94592743 59.00018021 -94.26243591 59.01037979 C-92.06024802 59.04207612 -89.85803851 59.06678408 -87.65576172 59.091465 C-86.13260829 59.11202752 -84.60946066 59.1330238 -83.08631897 59.15443802 C-79.07010583 59.20973122 -75.05384059 59.25910837 -71.03753662 59.30728531 C-66.2225548 59.36626126 -61.40766857 59.43252893 -56.59276581 59.4975853 C-49.27137473 59.59568598 -41.94992339 59.68447945 -34.62841797 59.77505875 C-34.62841797 45.25505875 -34.62841797 30.73505875 -34.62841797 15.77505875 C-58.05841797 15.77505875 -81.48841797 15.77505875 -105.62841797 15.77505875 C-105.62841797 15.44505875 -105.62841797 15.11505875 -105.62841797 14.77505875 C-82.19841797 14.77505875 -58.76841797 14.77505875 -34.62841797 14.77505875 C-34.62841797 10.48505875 -34.62841797 6.19505875 -34.62841797 1.77505875 C-57.06841797 2.10505875 -79.50841797 2.43505875 -102.62841797 2.77505875 C-100.04585256 0.19249333 -98.98674551 0.50099192 -95.39013672 0.44034195 C-93.72432304 0.40578651 -93.72432304 0.40578651 -92.02485657 0.37053299 C-90.80090683 0.3557843 -89.57695709 0.34103561 -88.31591797 0.32584 C-86.38929573 0.29241753 -86.38929573 0.29241753 -84.42375183 0.25831985 C-80.89508903 0.19896414 -77.36638339 0.15404196 -73.83745956 0.11345291 C-71.6334356 0.08761756 -69.42947026 0.05872289 -67.22549438 0.02908707 C-44.81567276 -0.26598753 -22.41001491 -0.27437955 0 0 Z M-33.62841797 15.77505875 C-33.62841797 29.96505875 -33.62841797 44.15505875 -33.62841797 58.77505875 C-29.76333038 59.54807626 -26.80197665 59.90131879 -22.93945312 59.90445328 C-21.82124176 59.90760544 -20.7030304 59.9107576 -19.55093384 59.91400528 C-17.75237442 59.91096893 -17.75237442 59.91096893 -15.91748047 59.90787125 C-14.67598236 59.90882797 -13.43448425 59.9097847 -12.15536499 59.91077042 C-8.86025231 59.91162429 -5.56518696 59.90760781 -2.27008057 59.90201187 C-0.25832609 59.9000635 1.75338465 59.90200173 3.76513672 59.90542984 C7.64178477 59.91162257 11.51836875 59.91085408 15.39501953 59.90787125 C16.59001068 59.90989548 17.78500183 59.91191971 19.01620483 59.91400528 C20.14072052 59.91085312 21.26523621 59.90770096 22.42382812 59.90445328 C23.89678848 59.90325989 23.89678848 59.90325989 25.39950562 59.90204239 C28.74164211 59.75924772 32.06001724 59.24813943 35.37158203 58.77505875 C35.37158203 44.58505875 35.37158203 30.39505875 35.37158203 15.77505875 C12.60158203 15.77505875 -10.16841797 15.77505875 -33.62841797 15.77505875 Z " fill="#D35C54" transform="translate(148.62841796875,215.2249412536621)"/>
<path d="M0 0 C12.01428376 -0.02326898 24.02856206 -0.04098881 36.04286385 -0.05181217 C41.62282233 -0.05700934 47.20276529 -0.06404887 52.78271484 -0.07543945 C58.17734808 -0.08638162 63.57196647 -0.09230062 68.96660995 -0.09487724 C71.01486316 -0.09671122 73.06311565 -0.10029208 75.11136246 -0.10573006 C86.12552664 -0.13378343 97.02438978 -0.03128844 108 1 C108 1.33 108 1.66 108 2 C102.72 2 97.44 2 92 2 C91.81824219 4.31515625 91.63648438 6.6303125 91.44921875 9.015625 C91.26289611 11.29968557 91.07313368 13.58343665 90.88305664 15.8671875 C90.75447256 17.43395477 90.62937088 19.00101244 90.50805664 20.56835938 C88.99944259 39.98788508 85.94483206 55.26167656 70.98828125 68.82421875 C63.6462467 74.73656706 55.45983338 77.20567873 46.25 78.60546875 C43.97345001 78.89410226 43.97345001 78.89410226 42 80 C42 79.34 42 78.68 42 78 C41.40574219 78.04640625 40.81148437 78.0928125 40.19921875 78.140625 C33.01165435 78.45361381 27.53896434 76.89445333 21 74 C20.2265625 73.68417969 19.453125 73.36835938 18.65625 73.04296875 C8.82743668 68.42273432 2.20051166 58.64675076 -2.0625 48.9609375 C-4.49541162 41.27699162 -5.41158452 33.37460962 -6.125 25.375 C-6.21136719 24.48554687 -6.29773438 23.59609375 -6.38671875 22.6796875 C-6.87242832 17.43710803 -7.30743204 12.26181768 -7 7 C-4.59140121 4.97170628 -3.16955691 4 0 4 C0.20345573 5.81162173 0.40662977 7.6232754 0.60864258 9.43505859 C0.78857599 11.04110036 0.97076212 12.6468911 1.1550293 14.25244141 C1.63677384 18.49984303 2.07255507 22.7418281 2.40234375 27.00390625 C3.58814452 41.678008 6.64339293 52.75182889 18 63 C28.03408321 69.63671645 38.23040693 71.1627219 50 70 C60.33179861 67.74624981 68.25085129 62.11539833 74.36132812 53.55517578 C80.795648 43.5221615 81.19727492 31.85058172 82.25 20.3125 C82.42316008 18.53177228 82.59762913 16.75117134 82.7734375 14.97070312 C83.19739089 10.64844848 83.60361499 6.32486638 84 2 C82.4214624 2.04543945 82.4214624 2.04543945 80.81103516 2.09179688 C53.86798849 2.85480313 26.95319483 3.13412629 0 3 C0 2.01 0 1.02 0 0 Z " fill="#C06159" transform="translate(72,86)"/>
<path d="M0 0 C0.66 0.33 1.32 0.66 2 1 C1.5875 1.495 1.175 1.99 0.75 2.5 C-3.68322176 8.72227325 -3.68322176 8.72227325 -4.75 16 C-4.5025 16.66 -4.255 17.32 -4 18 C-4.66 18 -5.32 18 -6 18 C-6.33 29.22 -6.66 40.44 -7 52 C-3.04 52 0.92 52 5 52 C5 66.19 5 80.38 5 95 C2.65897141 96.17051429 1.10647047 96.1992246 -1.5 96.25 C-2.2940625 96.27578125 -3.088125 96.3015625 -3.90625 96.328125 C-4.5971875 96.21984375 -5.288125 96.1115625 -6 96 C-9.11821865 91.32267202 -9.12758484 87.09257301 -9.16113281 81.56420898 C-9.17074036 80.28194931 -9.1803479 78.99968964 -9.19024658 77.67857361 C-9.19509739 76.28441549 -9.19937552 74.89025527 -9.203125 73.49609375 C-9.20595238 72.7875078 -9.20877975 72.07892185 -9.21169281 71.3488636 C-9.22665789 67.59381873 -9.23590237 63.83881196 -9.24023438 60.08374023 C-9.24569359 56.23650677 -9.26967477 52.38963178 -9.29820633 48.54251003 C-9.31699306 45.55761254 -9.32204689 42.57279833 -9.32357025 39.58784676 C-9.32656484 38.17149982 -9.3344829 36.75515319 -9.34775543 35.33886528 C-9.45754069 22.71578605 -8.06676665 11.70183007 -1 1 C-0.67 0.67 -0.34 0.34 0 0 Z " fill="#D55B53" transform="translate(19,179)"/>
<path d="M0 0 C0.99 0.33 1.98 0.66 3 1 C3 18.82 3 36.64 3 55 C5.31 55 7.62 55 10 55 C10 55.33 10 55.66 10 56 C7.69 56 5.38 56 3 56 C3 70.19 3 84.38 3 99 C2.67 99 2.34 99 2 99 C2 84.81 2 70.62 2 56 C-1.96 56 -5.92 56 -10 56 C-10.02481344 51.96151684 -10.0429136 47.92306353 -10.05493164 43.88452148 C-10.05994454 42.51211778 -10.06675658 41.13971938 -10.07543945 39.76733398 C-10.08763857 37.78892349 -10.09272248 35.8104732 -10.09765625 33.83203125 C-10.10289307 32.64327393 -10.10812988 31.4545166 -10.11352539 30.22973633 C-9.85427766 22.85427766 -9.85427766 22.85427766 -8 21 C-8.20109375 20.43023437 -8.4021875 19.86046875 -8.609375 19.2734375 C-9.1735582 15.98989128 -7.91619914 14.45753854 -6.25 11.625 C-5.69570313 10.66207031 -5.14140625 9.69914063 -4.5703125 8.70703125 C-3.79300781 7.36705078 -3.79300781 7.36705078 -3 6 C-1.96390751 4.01478628 -0.97966172 2.01374909 0 0 Z " fill="#D55B53" transform="translate(22,175)"/>
<path d="M0 0 C4.62 0 9.24 0 14 0 C14 15.51 14 31.02 14 47 C9.71 47 5.42 47 1 47 C0 46 0 46 -0.12025452 44.13340759 C-0.11803391 43.31844315 -0.11581329 42.5034787 -0.11352539 41.66381836 C-0.11344986 40.7429393 -0.11337433 39.82206024 -0.11329651 38.87327576 C-0.10813522 37.87224319 -0.10297394 36.87121063 -0.09765625 35.83984375 C-0.0962413 34.82024063 -0.09482635 33.80063751 -0.09336853 32.75013733 C-0.08775097 29.47922893 -0.0751955 26.20838787 -0.0625 22.9375 C-0.05748726 20.72591244 -0.05292396 18.51432382 -0.04882812 16.30273438 C-0.03777583 10.86846346 -0.02049944 5.43424316 0 0 Z " fill="#D15D55" transform="translate(156,164)"/>
<path d="M0 0 C4.62 0 9.24 0 14 0 C14.02464347 6.53279339 14.04283291 13.06555998 14.05493164 19.59838867 C14.05997317 21.82267732 14.06680623 24.04696263 14.07543945 26.27124023 C14.08751298 29.46078309 14.09322996 32.65028229 14.09765625 35.83984375 C14.10281754 36.84087631 14.10797882 37.84190887 14.11329651 38.87327576 C14.11337204 39.79415482 14.11344757 40.71503387 14.11352539 41.66381836 C14.115746 42.47878281 14.11796661 43.29374725 14.12025452 44.13340759 C14 46 14 46 13 47 C8.71 47 4.42 47 0 47 C0 31.49 0 15.98 0 0 Z " fill="#D35C54" transform="translate(58,164)"/>
<path d="M0 0 C3.63 0 7.26 0 11 0 C11.02477941 4.8929813 11.04289763 9.7859258 11.05493164 14.67895508 C11.05995023 16.34237301 11.06676652 18.00578656 11.07543945 19.66918945 C11.08761357 22.06462693 11.09325314 24.46000591 11.09765625 26.85546875 C11.10281754 27.5952446 11.10797882 28.33502045 11.11329651 29.09721375 C11.11370241 32.86083154 10.90758309 36.34140381 10 40 C9.01 40 8.02 40 7 40 C6.67 40.99 6.34 41.98 6 43 C3.03 43.495 3.03 43.495 0 44 C0 29.48 0 14.96 0 0 Z " fill="#D45C54" transform="translate(205,231)"/>
<path d="M0 0 C0.33 0 0.66 0 1 0 C1 15.18 1 30.36 1 46 C-46.52 46 -94.04 46 -143 46 C-143 31.15 -143 16.3 -143 1 C-142.67 1 -142.34 1 -142 1 C-141.94465088 2.2367749 -141.88930176 3.4735498 -141.83227539 4.74780273 C-141.62643374 9.31948066 -141.41439279 13.89085331 -141.20043945 18.4621582 C-141.10856645 20.44385078 -141.0183939 22.42562294 -140.92993164 24.4074707 C-140.80277204 27.24973638 -140.6695773 30.09166342 -140.53515625 32.93359375 C-140.49656998 33.82525742 -140.4579837 34.71692108 -140.41822815 35.63560486 C-140.6065465 39.64260525 -140.6065465 39.64260525 -139 43 C-137.3134672 43.09835949 -135.62279381 43.1263201 -133.93339539 43.12698364 C-132.83554718 43.12980347 -131.73769897 43.13262329 -130.60658264 43.13552856 C-129.39151535 43.13350433 -128.17644806 43.1314801 -126.92456055 43.12939453 C-125.01740265 43.13202301 -125.01740265 43.13202301 -123.07171631 43.13470459 C-119.57367501 43.13927936 -116.07566306 43.13748883 -112.57762122 43.1343255 C-108.92127892 43.13180049 -105.2649392 43.13413999 -101.6085968 43.13571167 C-95.4640762 43.13753364 -89.31956761 43.13512706 -83.17504883 43.13037109 C-76.07065609 43.12493567 -68.96629207 43.12668578 -61.86190003 43.1321975 C-55.76759778 43.1367365 -49.67330417 43.13737509 -43.57900077 43.13475883 C-39.93700268 43.13319946 -36.29501808 43.13299285 -32.65302086 43.13629532 C-28.58987099 43.13972185 -24.52677053 43.13497138 -20.46362305 43.12939453 C-19.25462845 43.13141876 -18.04563385 43.13344299 -16.80000305 43.13552856 C-15.14054153 43.13129883 -15.14054153 43.13129883 -13.44755554 43.12698364 C-12.48650249 43.12660662 -11.52544943 43.12622959 -10.53527355 43.12584114 C-8.04743676 43.09346781 -8.04743676 43.09346781 -5.90952778 42.42956352 C-4 42 -4 42 0 43 C0 28.81 0 14.62 0 0 Z " fill="#AF675B" transform="translate(185,231)"/>
<path d="M0 0 C0 0.33 0 0.66 0 1 C-20.79 1 -41.58 1 -63 1 C-63 5.29 -63 9.58 -63 14 C-40.23 14 -17.46 14 6 14 C6 14.33 6 14.66 6 15 C-16.77 15 -39.54 15 -63 15 C-63 29.52 -63 44.04 -63 59 C-63.33 59 -63.66 59 -64 59 C-64 44.48 -64 29.96 -64 15 C-87.43 15 -110.86 15 -135 15 C-135 14.67 -135 14.34 -135 14 C-111.57 14 -88.14 14 -64 14 C-64 9.71 -64 5.42 -64 1 C-86.44 1.33 -108.88 1.66 -132 2 C-129.41184048 -0.58815952 -128.33565344 -0.27429016 -124.72998047 -0.3347168 C-123.61308838 -0.35776886 -122.49619629 -0.38082092 -121.34545898 -0.40457153 C-120.11512939 -0.41930511 -118.8847998 -0.4340387 -117.6171875 -0.44921875 C-115.68202271 -0.48243729 -115.68202271 -0.48243729 -113.70776367 -0.5163269 C-110.16801487 -0.57532372 -106.62821717 -0.62002917 -103.08821869 -0.6609993 C-100.881212 -0.68742562 -98.67428825 -0.71765855 -96.46734619 -0.74899292 C-64.30108914 -1.19839336 -32.15898 -0.72386496 0 0 Z " fill="#D17066" transform="translate(178,216)"/>
<path d="M0 0 C3.78960229 0.27728797 6.50499745 1.20633221 9.75 3.0625 C14.49374078 5.51553706 18.74970086 5.96611839 24 5 C26.69633746 3.83040966 29.16738225 2.52600983 31.67578125 0.99609375 C34.53886998 -0.23094428 36.06213597 0.13164019 39 1 C39.495 2.98 39.495 2.98 40 5 C38.79989255 5.96861464 37.58941756 6.9243885 36.375 7.875 C35.36566406 8.67550781 35.36566406 8.67550781 34.3359375 9.4921875 C27.5395397 13.87916 19.82091881 13.98277649 12 13 C7.55364863 11.35774233 2.41794523 9.41794523 -1 6 C-1.125 3.5 -1.125 3.5 -1 1 C-0.67 0.67 -0.34 0.34 0 0 Z " fill="#CF5C56" transform="translate(95,126)"/>
<path d="M0 0 C0.99 0.495 0.99 0.495 2 1 C1.67 15.52 1.34 30.04 1 45 C24.43 45 47.86 45 72 45 C71.87625 37.94625 71.7525 30.8925 71.625 23.625 C71.59100098 21.39830566 71.55700195 19.17161133 71.52197266 16.87744141 C71.48677772 15.11879942 71.45085771 13.36017173 71.4140625 11.6015625 C71.40270264 10.68334717 71.39134277 9.76513184 71.37963867 8.8190918 C71.35957764 7.94631592 71.3395166 7.07354004 71.31884766 6.17431641 C71.30552399 5.41486725 71.29220032 4.65541809 71.2784729 3.87295532 C71.15382948 1.7568774 71.15382948 1.7568774 69 0 C70.65 0 72.3 0 74 0 C74 15.51 74 31.02 74 47 C49.18373299 47.86234132 24.81626701 47.86234132 0 47 C0 31.49 0 15.98 0 0 Z " fill="#AD6962" transform="translate(77,164)"/>
<path d="M0 0 C2.3129482 2.3129482 2.49580975 3.47904875 3.125 6.625 C3.29257813 7.44226563 3.46015625 8.25953125 3.6328125 9.1015625 C3.75398438 9.72804688 3.87515625 10.35453125 4 11 C4.84046875 10.76796875 5.6809375 10.5359375 6.546875 10.296875 C10.85982495 9.9260784 13.56255305 11.25784116 17.25 13.25 C17.87390625 13.56324219 18.4978125 13.87648438 19.140625 14.19921875 C22.34682214 15.86450649 23.95988498 16.93982747 26 20 C21.23420205 21.09367096 17.8441202 20.76635719 13.125 19.5625 C11.97257812 19.27503906 10.82015625 18.98757812 9.6328125 18.69140625 C8.76398438 18.46324219 7.89515625 18.23507813 7 18 C6.87882812 19.28777344 6.75765625 20.57554688 6.6328125 21.90234375 C6.46403135 23.58077848 6.29473387 25.25916135 6.125 26.9375 C6.00705078 28.21270508 6.00705078 28.21270508 5.88671875 29.51367188 C5.80292969 30.32255859 5.71914062 31.13144531 5.6328125 31.96484375 C5.52283936 33.08814087 5.52283936 33.08814087 5.41064453 34.23413086 C5.27513184 34.81686768 5.13961914 35.39960449 5 36 C2.26094655 37.36952673 0.02912668 37.12621361 -3 37 C-3.66 36.67 -4.32 36.34 -5 36 C-5.02708567 34.39592672 -5.04643483 32.7917215 -5.0625 31.1875 C-5.07410156 30.29417969 -5.08570312 29.40085937 -5.09765625 28.48046875 C-5 26 -5 26 -4 23 C-3.01 22.67 -2.02 22.34 -1 22 C-1.33 26.29 -1.66 30.58 -2 35 C-0.68 35 0.64 35 2 35 C2.59475532 31.96373589 3.14485247 28.92097213 3.6875 25.875 C3.85572266 25.0190625 4.02394531 24.163125 4.19726562 23.28125 C5.13232728 17.87867157 5.17191889 14.77745808 2 10 C1.67 11.65 1.34 13.3 1 15 C0.67 15 0.34 15 0 15 C0 11.37 0 7.74 0 4 C-2.60508636 4.11391632 -5.20845546 4.24065548 -7.8125 4.375 C-8.55048828 4.4059375 -9.28847656 4.436875 -10.04882812 4.46875 C-13.81893115 4.67346148 -15.79650741 4.86433827 -19 7 C-19.57993699 9.19454681 -19.57993699 9.19454681 -19.6875 11.625 C-19.78611328 12.85089844 -19.78611328 12.85089844 -19.88671875 14.1015625 C-19.94279297 15.04128906 -19.94279297 15.04128906 -20 16 C-20.33 16 -20.66 16 -21 16 C-21.19397476 14.02145742 -21.38001321 12.0421352 -21.5625 10.0625 C-21.66691406 8.96035156 -21.77132812 7.85820312 -21.87890625 6.72265625 C-21.91886719 5.82417969 -21.95882812 4.92570313 -22 4 C-21 3 -21 3 -18.95874023 2.88647461 C-18.08419189 2.89171143 -17.20964355 2.89694824 -16.30859375 2.90234375 C-15.36435547 2.90556641 -14.42011719 2.90878906 -13.44726562 2.91210938 C-12.45404297 2.92048828 -11.46082031 2.92886719 -10.4375 2.9375 C-9.44041016 2.94201172 -8.44332031 2.94652344 -7.41601562 2.95117188 C-4.94395151 2.96299993 -2.47200482 2.97948151 0 3 C0 2.01 0 1.02 0 0 Z " fill="#B56972" transform="translate(124,2)"/>
<path d="M0 0 C4.62 0 9.24 0 14 0 C14.02464347 6.53279339 14.04283291 13.06555998 14.05493164 19.59838867 C14.05997317 21.82267732 14.06680623 24.04696263 14.07543945 26.27124023 C14.08751298 29.46078309 14.09322996 32.65028229 14.09765625 35.83984375 C14.10281754 36.84087631 14.10797882 37.84190887 14.11329651 38.87327576 C14.11337204 39.79415482 14.11344757 40.71503387 14.11352539 41.66381836 C14.115746 42.47878281 14.11796661 43.29374725 14.12025452 44.13340759 C14 46 14 46 13 47 C8.71 47 4.42 47 0 47 C0 31.49 0 15.98 0 0 Z M1 1 C1 13.21 1 25.42 1 38 C1.66 38 2.32 38 3 38 C3 39.98 3 41.96 3 44 C5.90073181 44.67801034 5.90073181 44.67801034 9 45 C11.37327731 43.06807125 11.37327731 43.06807125 11.21118164 39.59179688 C11.20408571 38.13403263 11.18634904 36.67629619 11.16015625 35.21875 C11.15495468 34.44946167 11.14975311 33.68017334 11.14439392 32.88757324 C11.1265502 30.42485868 11.09537568 27.96255627 11.0625 25.5 C11.03490408 23.03748365 11.01019093 20.57502579 10.99131775 18.11242676 C10.97904049 16.57876291 10.9614173 15.04513094 10.93800354 13.51159668 C10.88824832 8.22350335 10.88824832 8.22350335 12 6 C11.72057545 4.32345271 11.39171753 2.65391846 11 1 C7.7 1 4.4 1 1 1 Z " fill="#B95F57" transform="translate(58,164)"/>
<path d="M0 0 C5.28 0 10.56 0 16 0 C16 5.61 16 11.22 16 17 C15.01 17 14.02 17 13 17 C13 14 13 11 13 8 C13.66 8 14.32 8 15 8 C14.67 6.35 14.34 4.7 14 3 C12.02 2.34 10.04 1.68 8 1 C8 14.86 8 28.72 8 43 C24.5 42.67 41 42.34 58 42 C54.97736263 33.18974397 54.97736263 33.18974397 49 26 C49.495 24.515 49.495 24.515 50 23 C58.66500076 32.17470669 64.12054978 45.07409134 64.1875 57.75 C64.125625 58.8225 64.06375 59.895 64 61 C63.67 61 63.34 61 63 61 C62.68492726 59.47969758 62.37309268 57.958724 62.0625 56.4375 C61.88847656 55.59058594 61.71445313 54.74367187 61.53515625 53.87109375 C60.92498666 50.59755618 60.47092155 47.29645083 60 44 C42.51 44 25.02 44 7 44 C7 30.14 7 16.28 7 2 C4.69 1.67 2.38 1.34 0 1 C0 0.67 0 0.34 0 0 Z " fill="#D4615E" transform="translate(108,6)"/>
<path d="M0 0 C4.62 0 9.24 0 14 0 C14 15.51 14 31.02 14 47 C9.71 47 5.42 47 1 47 C0 46 0 46 -0.12025452 44.13340759 C-0.11803391 43.31844315 -0.11581329 42.5034787 -0.11352539 41.66381836 C-0.11344986 40.7429393 -0.11337433 39.82206024 -0.11329651 38.87327576 C-0.10813522 37.87224319 -0.10297394 36.87121063 -0.09765625 35.83984375 C-0.0962413 34.82024063 -0.09482635 33.80063751 -0.09336853 32.75013733 C-0.08775097 29.47922893 -0.0751955 26.20838787 -0.0625 22.9375 C-0.05748726 20.72591244 -0.05292396 18.51432382 -0.04882812 16.30273438 C-0.03777583 10.86846346 -0.02049944 5.43424316 0 0 Z M4 1 C2.39092352 3.84356685 1.75230774 5.8646229 1.77294922 9.12597656 C1.77310028 9.92650452 1.77325134 10.72703247 1.77340698 11.55181885 C1.78372955 12.40612488 1.79405212 13.26043091 1.8046875 14.140625 C1.8075174 15.02280701 1.81034729 15.90498901 1.81326294 16.81390381 C1.82444039 19.62607499 1.84954049 22.4379254 1.875 25.25 C1.88503295 27.15884956 1.89415825 29.06770412 1.90234375 30.9765625 C1.92437176 35.65116489 1.95888489 40.32552809 2 45 C3.64574566 45.02688151 5.29161413 45.04634123 6.9375 45.0625 C8.31228516 45.07990234 8.31228516 45.07990234 9.71484375 45.09765625 C11.96593327 45.25949049 11.96593327 45.25949049 13 44 C13.1011692 40.90918535 13.13968558 37.84117445 13.1328125 34.75 C13.13376923 33.82155273 13.13472595 32.89310547 13.13571167 31.93652344 C13.13639355 29.96940035 13.13453872 28.00227504 13.13037109 26.03515625 C13.12502295 23.01296974 13.13031582 19.99093185 13.13671875 16.96875 C13.13605797 15.06249967 13.13477681 13.15624943 13.1328125 11.25 C13.13483673 10.33959961 13.13686096 9.42919922 13.13894653 8.49121094 C13.53891332 4.42336322 13.53891332 4.42336322 12 1 C9.32941149 0.85884839 6.67567762 0.95752893 4 1 Z " fill="#B56156" transform="translate(156,164)"/>
<path d="M0 0 C0.33 0 0.66 0 1 0 C1 13.86 1 27.72 1 42 C18.49 42 35.98 42 54 42 C54 42.33 54 42.66 54 43 C36.51 43 19.02 43 1 43 C1 54.88 1 66.76 1 79 C0.67 79 0.34 79 0 79 C0 67.12 0 55.24 0 43 C-17.82 43 -35.64 43 -54 43 C-50.68777731 40.79185154 -49.80928312 40.77014116 -45.9777832 40.86474609 C-44.95695145 40.88491791 -43.93611969 40.90508972 -42.88435364 40.9258728 C-41.23423531 40.97416733 -41.23423531 40.97416733 -39.55078125 41.0234375 C-37.85915108 41.06097641 -37.85915108 41.06097641 -36.13334656 41.09927368 C-32.52609507 41.18154228 -28.91938544 41.27810648 -25.3125 41.375 C-22.86916287 41.43323246 -20.4258034 41.49053589 -17.98242188 41.546875 C-11.9878533 41.68538355 -5.99423 41.84320501 0 42 C0 28.14 0 14.28 0 0 Z " fill="#E5716A" transform="translate(114,8)"/>
<path d="M0 0 C0.33 0 0.66 0 1 0 C1 15.51 1 31.02 1 47 C4.63 47 8.26 47 12 47 C12 47.33 12 47.66 12 48 C8.37 48 4.74 48 1 48 C1 62.52 1 77.04 1 92 C3.97 91.01 3.97 91.01 7 90 C7.33 89.34 7.66 88.68 8 88 C8.99 88 9.98 88 11 88 C11 87.01 11 86.02 11 85 C11.66 85 12.32 85 13 85 C12.73194343 88.21667885 12.24279099 89.72979712 10.0625 92.15625 C5.73511274 94.76151376 2.13154151 94.44171526 -2.8125 94.25 C-3.69615234 94.23195313 -4.57980469 94.21390625 -5.49023438 94.1953125 C-7.66062543 94.14838513 -9.83045519 94.07664731 -12 94 C-12.33 93.01 -12.66 92.02 -13 91 C-8.71 91.33 -4.42 91.66 0 92 C0 77.48 0 62.96 0 48 C-2.97 48 -5.94 48 -9 48 C-9 47.67 -9 47.34 -9 47 C-6.03 47 -3.06 47 0 47 C0 31.49 0 15.98 0 0 Z " fill="#E36C64" transform="translate(204,183)"/>
<path d="M0 0 C1.20320831 5.56483842 1.52515593 11.33009615 1 17 C0.34 17.99 -0.32 18.98 -1 20 C-1 20.99 -1 21.98 -1 23 C-1.33 23 -1.66 23 -2 23 C-2.33 27.62 -2.66 32.24 -3 37 C-3.33 37 -3.66 37 -4 37 C-5.5890677 25.67596413 -6.49761154 14.42272701 -7 3 C-2.25 0 -2.25 0 0 0 Z " fill="#C06261" transform="translate(72,90)"/>
<path d="M0 0 C4.19858555 0.66795679 5.29333585 3.0683606 7.75 6.4375 C5.75 7.4375 5.75 7.4375 -1.25 6.4375 C-0.92 18.6475 -0.59 30.8575 -0.25 43.4375 C16.085 43.9325 16.085 43.9325 32.75 44.4375 C32.75 44.7675 32.75 45.0975 32.75 45.4375 C20.87 45.4375 8.99 45.4375 -3.25 45.4375 C-3.27290513 39.18948914 -3.29283339 32.94162285 -3.30493164 26.69360352 C-3.30997298 24.56631986 -3.31680591 22.43903969 -3.32543945 20.31176758 C-3.33751379 17.26122174 -3.34323014 14.21072155 -3.34765625 11.16015625 C-3.35281754 10.20287125 -3.35797882 9.24558624 -3.36329651 8.2592926 C-3.36337204 7.37845505 -3.36344757 6.49761749 -3.36352539 5.59008789 C-3.365746 4.81065323 -3.36796661 4.03121857 -3.37025452 3.22816467 C-3.18840376 0.52029357 -2.65877396 0.51698383 0 0 Z " fill="#C2635A" transform="translate(81.25,163.5625)"/>
<path d="M0 0 C0.66 0.33 1.32 0.66 2 1 C1.5875 1.495 1.175 1.99 0.75 2.5 C-3.68322176 8.72227325 -3.68322176 8.72227325 -4.75 16 C-4.5025 16.66 -4.255 17.32 -4 18 C-4.66 18 -5.32 18 -6 18 C-6.66 41.1 -7.32 64.2 -8 88 C-8.33 88 -8.66 88 -9 88 C-9.06991506 79.60194928 -9.12301976 71.20402284 -9.15543652 62.8057518 C-9.17100523 58.90490085 -9.19207974 55.00425093 -9.22631836 51.10351562 C-9.25922949 47.32983715 -9.27691889 43.55635043 -9.28463173 39.78253937 C-9.29011891 38.35222613 -9.30083163 36.92192181 -9.31719017 35.49169159 C-9.45573203 22.86150729 -8.08953464 11.73630966 -1 1 C-0.67 0.67 -0.34 0.34 0 0 Z " fill="#D7342E" transform="translate(19,179)"/>
<path d="M0 0 C1 1 1 1 1.12025452 2.86659241 C1.1169236 4.08903908 1.1169236 4.08903908 1.11352539 5.33618164 C1.11344986 6.2570607 1.11337433 7.17793976 1.11329651 8.12672424 C1.10813522 9.12775681 1.10297394 10.12878937 1.09765625 11.16015625 C1.0962413 12.17975937 1.09482635 13.19936249 1.09336853 14.24986267 C1.08775097 17.52077107 1.0751955 20.79161213 1.0625 24.0625 C1.05748726 26.27408756 1.05292396 28.48567618 1.04882812 30.69726562 C1.03777584 36.13153357 1.02102063 41.56576197 1 47 C-1.475 47.495 -1.475 47.495 -4 48 C-3.34 47.01 -2.68 46.02 -2 45 C-1.75878651 42.10340651 -1.62700558 39.2946645 -1.5859375 36.39453125 C-1.56657135 35.55532639 -1.5472052 34.71612152 -1.5272522 33.85148621 C-1.46748787 31.17192742 -1.42108388 28.4923256 -1.375 25.8125 C-1.3368173 23.99542401 -1.29776539 22.17836606 -1.2578125 20.36132812 C-1.16178897 15.90769868 -1.07774641 11.45398449 -1 7 C-1.99 7 -2.98 7 -4 7 C-4.33 5.68 -4.66 4.36 -5 3 C-6.32 3 -7.64 3 -9 3 C-9 2.34 -9 1.68 -9 1 C-5.78419562 -0.07193479 -3.36629251 -0.14636054 0 0 Z " fill="#AB635E" transform="translate(52,163)"/>
<path d="M0 0 C1.86323318 0.25288812 3.71708432 0.57690153 5.5625 0.9375 C6.57441406 1.13214844 7.58632812 1.32679688 8.62890625 1.52734375 C9.80259766 1.76130859 9.80259766 1.76130859 11 2 C8.10765685 2.82638376 6.11257569 3 3 3 C2.05135075 7.77278898 1.86828579 12.39465977 1.90234375 17.2421875 C1.9037587 18.01055939 1.90517365 18.77893127 1.90663147 19.57058716 C1.91219317 22.00543239 1.9247384 24.44018294 1.9375 26.875 C1.94251996 28.53385283 1.94708199 30.19270712 1.95117188 31.8515625 C1.96215002 35.9010777 1.97938794 39.95052284 2 44 C3.32 44.33 4.64 44.66 6 45 C6 45.99 6 46.98 6 48 C4.00045254 48.04254356 1.99958364 48.04080783 0 48 C-1.57300328 46.42699672 -1.12725504 44.86315955 -1.12939453 42.6796875 C-1.13254669 41.76203613 -1.13569885 40.84438477 -1.13894653 39.89892578 C-1.1369223 38.90103027 -1.13489807 37.90313477 -1.1328125 36.875 C-1.13376923 35.85776855 -1.13472595 34.84053711 -1.13571167 33.79248047 C-1.13639361 31.63704364 -1.13453835 29.48160478 -1.13037109 27.32617188 C-1.12502305 24.01427629 -1.13031563 20.70251633 -1.13671875 17.390625 C-1.13605797 15.30208303 -1.13477681 13.21354115 -1.1328125 11.125 C-1.13483673 10.12710449 -1.13686096 9.12920898 -1.13894653 8.10107422 C-1.13579437 7.18342285 -1.13264221 6.26577148 -1.12939453 5.3203125 C-1.12859894 4.50836426 -1.12780334 3.69641602 -1.12698364 2.85986328 C-1 1 -1 1 0 0 Z " fill="#B1625B" transform="translate(176,163)"/>
<path d="M0 0 C0.33 0 0.66 0 1 0 C1 17.82 1 35.64 1 54 C3.31 54 5.62 54 8 54 C8 54.33 8 54.66 8 55 C5.69 55 3.38 55 1 55 C1 69.19 1 83.38 1 98 C0.67 98 0.34 98 0 98 C0 83.81 0 69.62 0 55 C-3.96 55 -7.92 55 -12 55 C-12 54.67 -12 54.34 -12 54 C-8.04 54 -4.08 54 0 54 C0 36.18 0 18.36 0 0 Z " fill="#E26D65" transform="translate(24,176)"/>
<path d="M0 0 C0.33 0 0.66 0 1 0 C1.02526563 7.81452752 1.04283105 15.62904458 1.05493164 23.44360352 C1.05997383 26.10441481 1.06680736 28.76522332 1.07543945 31.42602539 C1.08751009 35.24105516 1.09322929 39.05604844 1.09765625 42.87109375 C1.10281754 44.06899033 1.10797882 45.2668869 1.11329651 46.50108337 C1.11340981 48.15268211 1.11340981 48.15268211 1.11352539 49.83764648 C1.115746 50.81249496 1.11796661 51.78734344 1.12025452 52.79173279 C1 55 1 55 0 56 C-3.1382345 56.24966567 -6.29049613 56.18521791 -9.4375 56.1875 C-10.32244141 56.19974609 -11.20738281 56.21199219 -12.11914062 56.22460938 C-12.96541016 56.22654297 -13.81167969 56.22847656 -14.68359375 56.23046875 C-15.46275146 56.23457764 -16.24190918 56.23868652 -17.04467773 56.24291992 C-19 56 -19 56 -21 54 C-14.46837378 52.89085592 -8.56492112 53.21558847 -2 54 C-1.08938889 47.70025623 -0.7937586 41.51666838 -0.68359375 35.15625 C-0.66281265 34.14655151 -0.64203156 33.13685303 -0.62062073 32.09655762 C-0.55567534 28.8977687 -0.49649815 25.69890358 -0.4375 22.5 C-0.39426236 20.32030489 -0.35064647 18.14061724 -0.30664062 15.9609375 C-0.20005102 10.64070358 -0.09818652 5.32039528 0 0 Z " fill="#A36661" transform="translate(36,221)"/>
<path d="M0 0 C9.90908163 1.54884402 17.22605567 8.1288529 23 16 C24.64884765 18.65723382 25.82163731 21.07970986 27 24 C26.67 24.66 26.34 25.32 26 26 C25.67 25.01 25.34 24.02 25 23 C24.01 22.67 23.02 22.34 22 22 C22 21.34 22 20.68 22 20 C21.34 20 20.68 20 20 20 C19.67 19.01 19.34 18.02 19 17 C16.96731398 14.83656989 16.96731398 14.83656989 14 13 C13.67 12.01 13.34 11.02 13 10 C12.030625 9.690625 11.06125 9.38125 10.0625 9.0625 C6.39747012 7.79095902 6.61812487 7.23624973 5 4 C1.95800528 2.70768358 1.95800528 2.70768358 -1 2 C-0.67 1.34 -0.34 0.68 0 0 Z " fill="#B46257" transform="translate(188,166)"/>
<path d="M0 0 C4.29 0 8.58 0 13 0 C12.67 0.99 12.34 1.98 12 3 C11.29875 2.855625 10.5975 2.71125 9.875 2.5625 C6.92706186 1.9857295 3.96296111 1.49382685 1 1 C1 13.21 1 25.42 1 38 C1.66 38 2.32 38 3 38 C3 39.98 3 41.96 3 44 C5.97 44.33 8.94 44.66 12 45 C9 47 9 47 0 47 C0 31.49 0 15.98 0 0 Z " fill="#B86860" transform="translate(58,164)"/>
<path d="M0 0 C-0.78246094 0.40992188 -1.56492187 0.81984375 -2.37109375 1.2421875 C-3.88896484 2.05042969 -3.88896484 2.05042969 -5.4375 2.875 C-6.95150391 3.67550781 -6.95150391 3.67550781 -8.49609375 4.4921875 C-11.10140442 5.75654114 -11.10140442 5.75654114 -12 8 C-13.32 8 -14.64 8 -16 8 C-16 26.15 -16 44.3 -16 63 C-16.33 63 -16.66 63 -17 63 C-17.01030746 62.35298126 -17.02061493 61.70596252 -17.03123474 61.03933716 C-17.1391575 54.32380778 -17.2537668 47.60841646 -17.37231445 40.89306641 C-17.41570903 38.38463216 -17.4573807 35.87616751 -17.49731445 33.36767578 C-17.55490757 29.76846132 -17.61863343 26.16940058 -17.68359375 22.5703125 C-17.70030624 21.44319855 -17.71701874 20.31608459 -17.73423767 19.15481567 C-17.75418289 18.11388763 -17.77412811 17.07295959 -17.79467773 16.00048828 C-17.81022202 15.08115509 -17.8257663 14.1618219 -17.84178162 13.21463013 C-17.8610678 10.95924846 -17.8610678 10.95924846 -19 9 C-15.97467692 5.65391977 -12.96428994 3.69840006 -8.9375 1.6875 C-7.89464844 1.15511719 -6.85179687 0.62273437 -5.77734375 0.07421875 C-3 -1 -3 -1 0 0 Z " fill="#D2645A" transform="translate(42,166)"/>
<path d="M0 0 C2 2 2 2 2.21118164 3.83178711 C2.19434326 4.5563208 2.17750488 5.28085449 2.16015625 6.02734375 C2.14919922 6.81947266 2.13824219 7.61160156 2.12695312 8.42773438 C2.10568359 9.25595703 2.08441406 10.08417969 2.0625 10.9375 C2.02800534 12.57152493 1.9978794 14.20564941 1.97265625 15.83984375 C1.95468994 16.56550537 1.93672363 17.29116699 1.91821289 18.03881836 C1.91850712 20.216229 1.91850712 20.216229 3 23 C2.34 23.99 1.68 24.98 1 26 C-0.32 25.67 -1.64 25.34 -3 25 C-4.12125027 20.68234972 -3.96425157 16.65178912 -3.625 12.25 C-3.55925781 11.22326172 -3.55925781 11.22326172 -3.4921875 10.17578125 C-3.13267924 5.13267924 -3.13267924 5.13267924 -2 4 C-1.31731862 2.67479497 -0.6492959 1.34187818 0 0 Z " fill="#D55851" transform="translate(72,107)"/>
<path d="M0 0 C1.32 0.33 2.64 0.66 4 1 C4 1.99 4 2.98 4 4 C3.34 4 2.68 4 2 4 C1.87625 4.598125 1.7525 5.19625 1.625 5.8125 C1 8 1 8 -1 11 C-1.66 11 -2.32 11 -3 11 C-3.33 12.65 -3.66 14.3 -4 16 C-5.32 16 -6.64 16 -8 16 C-8 16.66 -8 17.32 -8 18 C-8.99 18.33 -9.98 18.66 -11 19 C-11.33 18.01 -11.66 17.02 -12 16 C-10.69864875 14.30824337 -9.36244796 12.64295195 -8 11 C-7.814375 9.9171875 -7.814375 9.9171875 -7.625 8.8125 C-7.41875 8.214375 -7.2125 7.61625 -7 7 C-3.9375 5.75 -3.9375 5.75 -1 5 C-0.67 3.35 -0.34 1.7 0 0 Z " fill="#C45F57" transform="translate(151,135)"/>
<path d="M0 0 C0.97710937 -0.02578125 1.95421875 -0.0515625 2.9609375 -0.078125 C5.625 0.25 5.625 0.25 7.4765625 1.765625 C7.85554687 2.25546875 8.23453125 2.7453125 8.625 3.25 C7.185 6.97 7.185 6.97 5 8.0625 C1.41557313 8.34548107 -1.82395387 7.83213871 -5.375 7.25 C-6.375 6.25 -6.375 6.25 -6.5 3.75 C-6.27375373 -0.77492534 -4.01570022 0.06323937 0 0 Z " fill="#B5635E" transform="translate(130.375,99.75)"/>
<path d="M0 0 C2.78515625 -0.328125 2.78515625 -0.328125 6.0625 -0.25 C7.14660156 -0.23453125 8.23070313 -0.2190625 9.34765625 -0.203125 C12 0 12 0 13 1 C13.125 3.5 13.125 3.5 13 6 C12 7 12 7 9.27734375 7.09765625 C7.62412109 7.08025391 7.62412109 7.08025391 5.9375 7.0625 C4.28041016 7.04896484 4.28041016 7.04896484 2.58984375 7.03515625 C1.73519531 7.02355469 0.88054687 7.01195313 0 7 C-0.66 5.68 -1.32 4.36 -2 3 C-1.34 2.01 -0.68 1.02 0 0 Z " fill="#C2615D" transform="translate(91,100)"/>
<path d="M0 0 C27.72 0.33 55.44 0.66 84 1 C84 1.33 84 1.66 84 2 C55.99346777 2.80619018 28.01778752 3.13942399 0 3 C0 2.01 0 1.02 0 0 Z " fill="#BD645F" transform="translate(72,86)"/>
<path d="M0 0 C0.66 0.33 1.32 0.66 2 1 C1.18813232 1.9391626 0.37626465 2.8783252 -0.46020508 3.84594727 C-3.80341373 8.55311725 -3.69742009 12.84495335 -3.63671875 18.46484375 C-3.64709671 19.4569838 -3.65747467 20.44912384 -3.66816711 21.47132874 C-3.69774269 24.62707512 -3.69449212 27.78164077 -3.6875 30.9375 C-3.69642496 34.0894566 -3.71250433 37.24110091 -3.7389679 40.39295959 C-3.75375175 42.34850361 -3.75776496 44.30416927 -3.74919128 46.25975037 C-3.77242872 51.8508145 -4.41565395 56.63207068 -6 62 C-7.98 62 -9.96 62 -12 62 C-11.360625 61.690625 -10.72125 61.38125 -10.0625 61.0625 C-8.06389179 60.1654837 -8.06389179 60.1654837 -7 59 C-6.76807728 55.97357046 -6.59602155 52.96489148 -6.46484375 49.93359375 C-6.40037804 48.57065941 -6.40037804 48.57065941 -6.33460999 47.18019104 C-6.19780373 44.26614738 -6.06758569 41.35185067 -5.9375 38.4375 C-5.84613554 36.46677678 -5.75434434 34.49607329 -5.66210938 32.52539062 C-5.43644608 27.68380922 -5.21669258 22.84199086 -5 18 C-5.66 17.67 -6.32 17.34 -7 17 C-6.34 17 -5.68 17 -5 17 C-5 13.37 -5 9.74 -5 6 C-4.34 6 -3.68 6 -3 6 C-2.87625 5.195625 -2.7525 4.39125 -2.625 3.5625 C-2.41875 2.716875 -2.2125 1.87125 -2 1 C-1.34 0.67 -0.68 0.34 0 0 Z " fill="#C0655A" transform="translate(40,213)"/>
<path d="M0 0 C0.66 0.33 1.32 0.66 2 1 C0 3 0 3 -3.125 3.125 C-4.07375 3.08375 -5.0225 3.0425 -6 3 C-6 4.32 -6 5.64 -6 7 C-5.40832031 6.86722656 -4.81664063 6.73445312 -4.20703125 6.59765625 C-0.14553475 5.68994822 3.91374171 4.7908887 8 4 C5.43408645 7.13611656 2.85867847 7.94146452 -1 9 C-4.54296875 9.265625 -4.54296875 9.265625 -8.1875 9.25 C-10.00314453 9.25773438 -10.00314453 9.25773438 -11.85546875 9.265625 C-15 9 -15 9 -18 7 C-14.7 7 -11.4 7 -8 7 C-8.33 6.01 -8.66 5.02 -9 4 C-11.31 3.67 -13.62 3.34 -16 3 C-16 2.34 -16 1.68 -16 1 C-15.09636719 1.01160156 -14.19273438 1.02320313 -13.26171875 1.03515625 C-11.49248047 1.04869141 -11.49248047 1.04869141 -9.6875 1.0625 C-8.51574219 1.07410156 -7.34398438 1.08570313 -6.13671875 1.09765625 C-2.96940805 1.14899898 -2.96940805 1.14899898 0 0 Z " fill="#C36560" transform="translate(122,130)"/>
<path d="M0 0 C2.34914492 2.34914492 2.73140357 3.95679446 3.625 7.125 C4.01558594 8.49011719 4.01558594 8.49011719 4.4140625 9.8828125 C4.70410156 10.93082031 4.70410156 10.93082031 5 12 C4.34 12 3.68 12 3 12 C2.67 11.34 2.34 10.68 2 10 C1.67 11.65 1.34 13.3 1 15 C0.67 15 0.34 15 0 15 C0 11.37 0 7.74 0 4 C-2.60508636 4.11391632 -5.20845546 4.24065548 -7.8125 4.375 C-8.55048828 4.4059375 -9.28847656 4.436875 -10.04882812 4.46875 C-13.81893115 4.67346148 -15.79650741 4.86433827 -19 7 C-19.57993699 9.19454681 -19.57993699 9.19454681 -19.6875 11.625 C-19.78611328 12.85089844 -19.78611328 12.85089844 -19.88671875 14.1015625 C-19.94279297 15.04128906 -19.94279297 15.04128906 -20 16 C-20.33 16 -20.66 16 -21 16 C-21.19397476 14.02145742 -21.38001321 12.0421352 -21.5625 10.0625 C-21.66691406 8.96035156 -21.77132812 7.85820312 -21.87890625 6.72265625 C-21.91886719 5.82417969 -21.95882812 4.92570313 -22 4 C-21 3 -21 3 -18.95874023 2.88647461 C-18.08419189 2.89171143 -17.20964355 2.89694824 -16.30859375 2.90234375 C-15.36435547 2.90556641 -14.42011719 2.90878906 -13.44726562 2.91210938 C-12.45404297 2.92048828 -11.46082031 2.92886719 -10.4375 2.9375 C-9.44041016 2.94201172 -8.44332031 2.94652344 -7.41601562 2.95117188 C-4.94395151 2.96299993 -2.47200482 2.97948151 0 3 C0 2.01 0 1.02 0 0 Z " fill="#A16763" transform="translate(124,2)"/>
<path d="M0 0 C2 2 2 2 2.1953125 5.48413086 C2.18143178 6.97782121 2.15728456 8.47143783 2.125 9.96484375 C2.11742676 10.75395645 2.10985352 11.54306915 2.10205078 12.35609436 C2.06928752 15.73854589 2.013063 19.12051846 1.95898438 22.50268555 C1.92286911 24.96921567 1.89864442 27.4356677 1.875 29.90234375 C1.85840332 30.66804184 1.84180664 31.43373993 1.82470703 32.22264099 C1.78935955 36.04321382 1.82577682 37.73866523 4 41 C6.19454681 41.57993699 6.19454681 41.57993699 8.625 41.6875 C9.44226562 41.75324219 10.25953125 41.81898438 11.1015625 41.88671875 C11.72804688 41.92410156 12.35453125 41.96148437 13 42 C12.67 42.99 12.34 43.98 12 45 C10.37581255 45.08090971 8.75048255 45.13914995 7.125 45.1875 C6.22007813 45.22230469 5.31515625 45.25710938 4.3828125 45.29296875 C3.20332031 45.14794922 3.20332031 45.14794922 2 45 C-0.06037303 41.90944045 -0.24799242 41.29073838 -0.22705078 37.80395508 C-0.22689972 36.96331009 -0.22674866 36.1226651 -0.22659302 35.25654602 C-0.21627045 34.35333115 -0.20594788 33.45011627 -0.1953125 32.51953125 C-0.1924826 31.59154221 -0.18965271 30.66355316 -0.18673706 29.70744324 C-0.17553836 26.74233121 -0.15043435 23.77752079 -0.125 20.8125 C-0.1149698 18.80273874 -0.10584402 16.79297274 -0.09765625 14.78320312 C-0.07560004 9.85535247 -0.04107229 4.92772738 0 0 Z " fill="#C4645A" transform="translate(11,230)"/>
<path d="M0 0 C0.44988281 0.38671875 0.89976563 0.7734375 1.36328125 1.171875 C11.1951208 9.13192145 20.88837973 11.04190682 33.3125 9.76171875 C34.88124786 9.54981128 36.4425384 9.28317484 38 9 C34.2151113 12.7848887 28.14416011 12.5571977 23 13 C11.36910569 12.91273713 11.36910569 12.91273713 7 10 C7 9.34 7 8.68 7 8 C6.030625 7.38125 5.06125 6.7625 4.0625 6.125 C1 4 1 4 0.30859375 1.8671875 C0.15583984 0.94292969 0.15583984 0.94292969 0 0 Z " fill="#B35E55" transform="translate(89,171)"/>
<path d="M0 0 C0.33 0 0.66 0 1 0 C1.09796875 1.18335937 1.1959375 2.36671875 1.296875 3.5859375 C2.35911157 15.26148874 2.35911157 15.26148874 6.29296875 26.25 C6.64294922 27.11625 6.64294922 27.11625 7 28 C6 30 6 30 4 31 C1.875 30.0625 1.875 30.0625 0 29 C-0.08083491 25.44326383 0.11026172 22.43184765 1 19 C0.67 18.67 0.34 18.34 0 18 C-0.08631874 16.65732587 -0.10706473 15.31025678 -0.09765625 13.96484375 C-0.09443359 13.15595703 -0.09121094 12.34707031 -0.08789062 11.51367188 C-0.07951172 10.66353516 -0.07113281 9.81339844 -0.0625 8.9375 C-0.05798828 8.08349609 -0.05347656 7.22949219 -0.04882812 6.34960938 C-0.03700373 4.23304337 -0.01906769 2.11651315 0 0 Z " fill="#C65F58" transform="translate(73,109)"/>
<path d="M0 0 C0.66 0 1.32 0 2 0 C2.99 5.94 3.98 11.88 5 18 C6.32 18.33 7.64 18.66 9 19 C8.67 15.04 8.34 11.08 8 7 C8.66 7 9.32 7 10 7 C10.66 11.62 11.32 16.24 12 21 C8.7 20.67 5.4 20.34 2 20 C-0.29612756 6.3667426 -0.29612756 6.3667426 0 0 Z " fill="#B9645A" transform="translate(97,19)"/>
<path d="M0 0 C8.57515348 6.0114478 12.39577398 17.36202678 14.578125 27.2890625 C15.14633235 30.94032084 15.21266215 34.31385612 15 38 C14.67 38 14.34 38 14 38 C13.89042969 37.38253906 13.78085938 36.76507813 13.66796875 36.12890625 C11.93148654 26.85355007 9.00118582 18.53052817 5 10 C4.46375 8.845 3.9275 7.69 3.375 6.5 C2.24572616 3.88611695 2.24572616 3.88611695 0 3 C0 2.01 0 1.02 0 0 Z " fill="#B1645C" transform="translate(157,29)"/>
<path d="M0 0 C0.66 0.33 1.32 0.66 2 1 C2.0272415 2.41655793 2.04650467 3.83327045 2.0625 5.25 C2.07410156 6.03890625 2.08570312 6.8278125 2.09765625 7.640625 C2.00385306 9.90691002 1.63241063 11.8288895 1 14 C0.67 14 0.34 14 0 14 C-0.33 18.62 -0.66 23.24 -1 28 C-1.33 28 -1.66 28 -2 28 C-2.33 19.09 -2.66 10.18 -3 1 C-2.01 1.33 -1.02 1.66 0 2 C0 1.34 0 0.68 0 0 Z " fill="#CC605E" transform="translate(70,99)"/>
<path d="M0 0 C0.33 0 0.66 0 1 0 C0.67 5.94 0.34 11.88 0 18 C-2.73905345 19.36952673 -4.97087332 19.12621361 -8 19 C-8.66 18.67 -9.32 18.34 -10 18 C-10.02708567 16.39592672 -10.04643483 14.7917215 -10.0625 13.1875 C-10.07410156 12.29417969 -10.08570312 11.40085937 -10.09765625 10.48046875 C-10 8 -10 8 -9 5 C-8.01 4.67 -7.02 4.34 -6 4 C-6.33 8.29 -6.66 12.58 -7 17 C-5.68 17 -4.36 17 -3 17 C-2.01 11.39 -1.02 5.78 0 0 Z " fill="#B6645C" transform="translate(129,20)"/>
<path d="M0 0 C0.66 0 1.32 0 2 0 C1.73194343 3.21667885 1.24279099 4.72979712 -0.9375 7.15625 C-5.26488726 9.76151376 -8.86845849 9.44171526 -13.8125 9.25 C-14.69615234 9.23195313 -15.57980469 9.21390625 -16.49023438 9.1953125 C-18.66062543 9.14838513 -20.83045519 9.07664731 -23 9 C-23.33 8.01 -23.66 7.02 -24 6 C-22.21142578 6.01740234 -22.21142578 6.01740234 -20.38671875 6.03515625 C-18.82031406 6.04453592 -17.25390769 6.05363593 -15.6875 6.0625 C-14.50897461 6.07506836 -14.50897461 6.07506836 -13.30664062 6.08789062 C-12.1706543 6.09272461 -12.1706543 6.09272461 -11.01171875 6.09765625 C-9.96697388 6.10551147 -9.96697388 6.10551147 -8.90112305 6.11352539 C-6.77502032 6.06895991 -6.77502032 6.06895991 -4 5 C-3.67 4.34 -3.34 3.68 -3 3 C-2.01 3 -1.02 3 0 3 C0 2.01 0 1.02 0 0 Z " fill="#AD6B65" transform="translate(215,268)"/>
<path d="M0 0 C5.94 0.33 11.88 0.66 18 1 C18 1.33 18 1.66 18 2 C13.545 2.495 13.545 2.495 9 3 C10.63778399 6.2117961 10.63778399 6.2117961 13.3828125 6.51171875 C14.28773437 6.56972656 15.19265625 6.62773437 16.125 6.6875 C17.49011719 6.78611328 17.49011719 6.78611328 18.8828125 6.88671875 C19.58148438 6.92410156 20.28015625 6.96148437 21 7 C21 7.33 21 7.66 21 8 C19.72125 8.144375 18.4425 8.28875 17.125 8.4375 C14.74307106 8.70642746 13.15547309 8.92226346 11 10 C11 9.34 11 8.68 11 8 C9.96939453 8.03480469 9.96939453 8.03480469 8.91796875 8.0703125 C7.56638672 8.09738281 7.56638672 8.09738281 6.1875 8.125 C5.29417969 8.14820313 4.40085937 8.17140625 3.48046875 8.1953125 C1 8 1 8 -2 6 C0.97 6 3.94 6 7 6 C6.34 5.67 5.68 5.34 5 5 C5 4.01 5 3.02 5 2 C3.35 1.67 1.7 1.34 0 1 C0 0.67 0 0.34 0 0 Z " fill="#A95D56" transform="translate(103,156)"/>
<path d="M0 0 C0.66 0.33 1.32 0.66 2 1 C2.02886751 5.14581887 2.04675327 9.29161216 2.0625 13.4375 C2.07087891 14.62150391 2.07925781 15.80550781 2.08789062 17.02539062 C2.09111328 18.15009766 2.09433594 19.27480469 2.09765625 20.43359375 C2.10289307 21.47572021 2.10812988 22.51784668 2.11352539 23.59155273 C2 26 2 26 1 27 C0.76712992 28.68183948 0.58735834 30.3712416 0.4375 32.0625 C0.35371094 32.98160156 0.26992187 33.90070313 0.18359375 34.84765625 C0.12300781 35.55792969 0.06242188 36.26820313 0 37 C-0.33 37 -0.66 37 -1 37 C-1.0246501 31.89136104 -1.04283607 26.78275641 -1.05493164 21.67407227 C-1.05997204 19.93480832 -1.0668043 18.19554864 -1.07543945 16.45629883 C-1.08751792 13.96174063 -1.09323108 11.46723827 -1.09765625 8.97265625 C-1.10281754 8.19036148 -1.10797882 7.40806671 -1.11329651 6.60206604 C-1.11349226 4.73432886 -1.06199694 2.86670796 -1 1 C-0.67 0.67 -0.34 0.34 0 0 Z " fill="#DC3631" transform="translate(192,231)"/>
<path d="M0 0 C3.82329586 0.5166616 5.37334885 1.25914662 8 4 C9.32860925 4.35169068 10.66158328 4.68770276 12 5 C12.33 5.66 12.66 6.32 13 7 C13.66 7.33 14.32 7.66 15 8 C15 8.66 15 9.32 15 10 C11.37 10 7.74 10 4 10 C4.33 8.35 4.66 6.7 5 5 C4.34 4.67 3.68 4.34 3 4 C3 3.34 3 2.68 3 2 C2.01 2 1.02 2 0 2 C0 1.34 0 0.68 0 0 Z " fill="#CC6E66" transform="translate(96,153)"/>
<path d="M0 0 C0.33 0 0.66 0 1 0 C1.33 2.31 1.66 4.62 2 7 C1.34 7 0.68 7 0 7 C0 21.19 0 35.38 0 50 C-0.33 50 -0.66 50 -1 50 C-1.1939548 43.68323177 -1.37127621 37.36615262 -1.53710938 31.04858398 C-1.59546291 28.90003931 -1.65760601 26.75159404 -1.72363281 24.60327148 C-1.81794732 21.51304221 -1.89857172 18.4227103 -1.9765625 15.33203125 C-2.00875885 14.37351761 -2.0409552 13.41500397 -2.0741272 12.42744446 C-2.17714645 7.82822364 -2.24917371 4.16442572 0 0 Z " fill="#C56354" transform="translate(185,224)"/>
<path d="M0 0 C0.33 0 0.66 0 1 0 C1.268125 0.94875 1.53625 1.8975 1.8125 2.875 C2.74986588 6.25267273 2.74986588 6.25267273 6 8 C5.88490339 9.41750563 5.75746342 10.83401169 5.625 12.25 C5.55539063 13.03890625 5.48578125 13.8278125 5.4140625 14.640625 C4.98492887 17.085877 4.21399362 18.84836903 3 21 C3 18.69 3 16.38 3 14 C2.34 14 1.68 14 1 14 C-0.04976964 10.85069107 -0.10131595 8.61185544 -0.0625 5.3125 C-0.05347656 4.31863281 -0.04445313 3.32476562 -0.03515625 2.30078125 C-0.02355469 1.54152344 -0.01195313 0.78226563 0 0 Z " fill="#C86058" transform="translate(104,12)"/>
<path d="M0 0 C5.72448621 0.22448966 9.28480453 2.01691715 14 5 C13.67 5.66 13.34 6.32 13 7 C11.02 6.34 9.04 5.68 7 5 C7 4.34 7 3.68 7 3 C6.21625 3.78375 5.4325 4.5675 4.625 5.375 C3.08333333 6.91666667 1.54166667 8.45833333 0 10 C-0.38922918 8.71254964 -0.76098036 7.41980403 -1.125 6.125 C-1.43824219 5.04605469 -1.43824219 5.04605469 -1.7578125 3.9453125 C-1.83773437 3.30335937 -1.91765625 2.66140625 -2 2 C-1.34 1.34 -0.68 0.68 0 0 Z " fill="#A56371" transform="translate(130,12)"/>
<path d="M0 0 C0.66 0 1.32 0 2 0 C2.93462166 2.52347847 3.08128212 3.74599337 2.25 6.34375 C0.91333572 9.18416159 -0.65769856 11.37158895 -2.625 13.8125 C-3.25664062 14.60269531 -3.88828125 15.39289063 -4.5390625 16.20703125 C-5.02117188 16.79871094 -5.50328125 17.39039063 -6 18 C-6.6796875 16.34765625 -6.6796875 16.34765625 -7 14 C-5.8203125 11.30859375 -5.8203125 11.30859375 -4.125 8.4375 C-2.46400108 5.5906251 -1.04362059 3.13086176 0 0 Z " fill="#CA6156" transform="translate(20,178)"/>
<path d="M0 0 C0.33 0.66 0.66 1.32 1 2 C3.31 2 5.62 2 8 2 C8.33 3.32 8.66 4.64 9 6 C5.04 6 1.08 6 -3 6 C-3 5.01 -3 4.02 -3 3 C-3.66 2.67 -4.32 2.34 -5 2 C-3.35 1.34 -1.7 0.68 0 0 Z " fill="#D45A52" transform="translate(105,131)"/>
<path d="M0 0 C2.475 0.99 2.475 0.99 5 2 C5 3.65 5 5.3 5 7 C5.66 7 6.32 7 7 7 C7 7.66 7 8.32 7 9 C8.98 9 10.96 9 13 9 C12.01 10.485 12.01 10.485 11 12 C1.8650519 9.10726644 1.8650519 9.10726644 -1 4 C-0.75 1.6875 -0.75 1.6875 0 0 Z " fill="#D26E67" transform="translate(81,146)"/>
<path d="M0 0 C3.90694321 -0.17758833 6.70611329 -0.23513741 10 2 C12.22264871 5.33397306 12.29675463 6.59514891 12.3125 10.5 C12.32925781 11.4590625 12.34601563 12.418125 12.36328125 13.40625 C12 16 12 16 9 19 C9 14.05 9 9.1 9 4 C7.68 3.67 6.36 3.34 5 3 C5 2.34 5 1.68 5 1 C3.35 1 1.7 1 0 1 C0 0.67 0 0.34 0 0 Z " fill="#B5645F" transform="translate(173,67)"/>
<path d="M0 0 C2.31 0 4.62 0 7 0 C7 5.61 7 11.22 7 17 C6.01 17 5.02 17 4 17 C4 14 4 11 4 8 C4.66 8 5.32 8 6 8 C5.89386164 5.54775306 5.89386164 5.54775306 5 3 C2.52363988 1.62533375 2.52363988 1.62533375 0 1 C0 0.67 0 0.34 0 0 Z " fill="#C25F5A" transform="translate(117,6)"/>
<path d="M0 0 C2.05078125 0.03255208 4.1015625 0.06510417 6.15234375 0.09765625 C6.48234375 1.74765625 6.81234375 3.39765625 7.15234375 5.09765625 C4.18234375 5.09765625 1.21234375 5.09765625 -1.84765625 5.09765625 C-2.17765625 3.77765625 -2.50765625 2.45765625 -2.84765625 1.09765625 C-1.84765625 0.09765625 -1.84765625 0.09765625 0 0 Z " fill="#D55B54" transform="translate(127.84765625,100.90234375)"/>
<path d="M0 0 C1.32 0.33 2.64 0.66 4 1 C4 2.66666667 4 4.33333333 4 6 C3.01 6.66 2.02 7.32 1 8 C-0.20450304 10.55183404 -0.20450304 10.55183404 -1 13 C-1.66 12.67 -2.32 12.34 -3 12 C-2.88541307 10.56163249 -2.75790884 9.12429034 -2.625 7.6875 C-2.55539063 6.88699219 -2.48578125 6.08648437 -2.4140625 5.26171875 C-2 3 -2 3 0 0 Z " fill="#C16157" transform="translate(44,218)"/>
<path d="M0 0 C1.86323318 0.25288812 3.71708432 0.57690153 5.5625 0.9375 C6.57441406 1.13214844 7.58632812 1.32679688 8.62890625 1.52734375 C9.80259766 1.76130859 9.80259766 1.76130859 11 2 C8.10765685 2.82638376 6.11257569 3 3 3 C1.05543072 7.13418591 0.62971979 10.769997 0.375 15.3125 C0.30023438 16.56675781 0.22546875 17.82101563 0.1484375 19.11328125 C0.09945312 20.06589844 0.05046875 21.01851562 0 22 C-0.33 22 -0.66 22 -1 22 C-1.02887814 18.52085059 -1.04675687 15.04173169 -1.0625 11.5625 C-1.07087891 10.56927734 -1.07925781 9.57605469 -1.08789062 8.55273438 C-1.09111328 7.60849609 -1.09433594 6.66425781 -1.09765625 5.69140625 C-1.10289307 4.81685791 -1.10812988 3.94230957 -1.11352539 3.04125977 C-1 1 -1 1 0 0 Z " fill="#9F6853" transform="translate(176,163)"/>
<path d="M0 0 C8.25 0 16.5 0 25 0 C24.67 0.66 24.34 1.32 24 2 C21.5 2.6875 21.5 2.6875 19 3 C18.67 2.67 18.34 2.34 18 2 C12.3952291 1.78673597 12.3952291 1.78673597 7 3 C4.64811553 2.40206327 2.31074405 1.74118205 0 1 C0 0.67 0 0.34 0 0 Z " fill="#C66257" transform="translate(147,217)"/>
<path d="M0 0 C0.66 0.33 1.32 0.66 2 1 C2 10.57 2 20.14 2 30 C1.67 30 1.34 30 1 30 C0.66022275 26.66729126 0.32936937 23.33375214 0 20 C-0.09539062 19.06542969 -0.19078125 18.13085938 -0.2890625 17.16796875 C-0.81933264 11.75163799 -1.20158892 6.44290074 -1 1 C-0.67 0.67 -0.34 0.34 0 0 Z " fill="#B26261" transform="translate(66,92)"/>
<path d="M0 0 C0.66 0.33 1.32 0.66 2 1 C-4.2293578 10.01223242 -4.2293578 10.01223242 -9 12 C-9.66 11.67 -10.32 11.34 -11 11 C-7.6189962 6.86378916 -4.33409466 3.18683431 0 0 Z " fill="#B85F59" transform="translate(79,20)"/>
<path d="M0 0 C4.455 0.99 4.455 0.99 9 2 C9.33 7.61 9.66 13.22 10 19 C7.58561014 16.58561014 7.63968526 15.50186888 7.1875 12.1875 C6.32507828 7.36767538 4.85028549 5.1592086 1 2 C0.67 1.34 0.34 0.68 0 0 Z " fill="#B2645B" transform="translate(183,211)"/>
<path d="M0 0 C-0.78246094 0.40992188 -1.56492187 0.81984375 -2.37109375 1.2421875 C-3.88896484 2.05042969 -3.88896484 2.05042969 -5.4375 2.875 C-6.95150391 3.67550781 -6.95150391 3.67550781 -8.49609375 4.4921875 C-11.10140442 5.75654114 -11.10140442 5.75654114 -12 8 C-15.0625 8.625 -15.0625 8.625 -18 9 C-18 8.34 -18 7.68 -18 7 C-15.48046875 5.30859375 -15.48046875 5.30859375 -12.1875 3.4375 C-10.56908203 2.50744141 -10.56908203 2.50744141 -8.91796875 1.55859375 C-3.69444444 -1.23148148 -3.69444444 -1.23148148 0 0 Z " fill="#B5615D" transform="translate(42,166)"/>
<path d="M0 0 C2.1875 -0.375 2.1875 -0.375 5 0 C6.99022836 1.83961648 8.38989899 3.79186148 10 6 C7.53721199 7.231394 5.7204945 7.07159196 3 7 C3 6.01 3 5.02 3 4 C2.01 4 1.02 4 0 4 C0 2.68 0 1.36 0 0 Z " fill="#BA5E53" transform="translate(79,164)"/>
<path d="M0 0 C2.64 0 5.28 0 8 0 C9.26237731 2.52475462 9.09856404 4.31200466 9.0625 7.125 C9.05347656 8.03507813 9.04445313 8.94515625 9.03515625 9.8828125 C9.02355469 10.58148438 9.01195312 11.28015625 9 12 C8.67 12 8.34 12 8 12 C8 10.02 8 8.04 8 6 C7.01 6 6.02 6 5 6 C4.67 4.68 4.34 3.36 4 2 C2.68 2 1.36 2 0 2 C0 1.34 0 0.68 0 0 Z " fill="#C26359" transform="translate(43,164)"/>
<path d="M0 0 C3.63 0.33 7.26 0.66 11 1 C11 1.66 11 2.32 11 3 C4.375 3.125 4.375 3.125 1 2 C1.33 3.32 1.66 4.64 2 6 C1.34 6 0.68 6 0 6 C0 6.66 0 7.32 0 8 C0.66 8.33 1.32 8.66 2 9 C0.68 9.33 -0.64 9.66 -2 10 C-1.34 6.7 -0.68 3.4 0 0 Z " fill="#C95F5C" transform="translate(131,20)"/>
<path d="M0 0 C1.32 0.33 2.64 0.66 4 1 C4 1.99 4 2.98 4 4 C3.34 4 2.68 4 2 4 C1.896875 4.598125 1.79375 5.19625 1.6875 5.8125 C0.91123545 8.28243264 -0.07088921 9.32251235 -2 11 C-2.33 9.02 -2.66 7.04 -3 5 C-2.34 5 -1.68 5 -1 5 C-0.67 3.35 -0.34 1.7 0 0 Z " fill="#CD655F" transform="translate(151,135)"/>
<path d="M0 0 C3.3 0 6.6 0 10 0 C9.67 1.32 9.34 2.64 9 4 C6.36 4 3.72 4 1 4 C0.67 2.68 0.34 1.36 0 0 Z " fill="#D65A50" transform="translate(93,101)"/>
<path d="M0 0 C-0.33 1.32 -0.66 2.64 -1 4 C-1 3.01 -1 2.02 -1 1 C-1.73605469 1.34933594 -2.47210938 1.69867188 -3.23046875 2.05859375 C-4.20628906 2.51363281 -5.18210937 2.96867188 -6.1875 3.4375 C-7.15042969 3.88996094 -8.11335938 4.34242187 -9.10546875 4.80859375 C-11.76631586 5.90381422 -14.16784755 6.54954796 -17 7 C-14.64161518 4.37098086 -12.19877023 2.85350658 -9.0625 1.25 C-8.20785156 0.80140625 -7.35320312 0.3528125 -6.47265625 -0.109375 C-3.76741687 -1.08377402 -2.64327318 -1.00579304 0 0 Z " fill="#B1645F" transform="translate(98,13)"/>
<path d="M0 0 C0.39832031 0.48082031 0.79664063 0.96164062 1.20703125 1.45703125 C3.43450247 3.37391825 4.78834669 3.47741643 7.6875 3.6875 C8.49574219 3.75324219 9.30398437 3.81898438 10.13671875 3.88671875 C10.75160156 3.92410156 11.36648437 3.96148437 12 4 C11.67 4.99 11.34 5.98 11 7 C9.37581255 7.08090971 7.75048255 7.13914995 6.125 7.1875 C5.22007813 7.22230469 4.31515625 7.25710938 3.3828125 7.29296875 C2.20332031 7.14794922 2.20332031 7.14794922 1 7 C-1 4 -1 4 -0.625 1.8125 C-0.41875 1.214375 -0.2125 0.61625 0 0 Z " fill="#BF5D55" transform="translate(12,268)"/>
<path d="M0 0 C3.67420866 0.30618405 4.78135513 0.75771784 7.3125 3.5625 C8.1478125 4.7690625 8.1478125 4.7690625 9 6 C6.36 5.67 3.72 5.34 1 5 C0.67 3.35 0.34 1.7 0 0 Z " fill="#D05A53" transform="translate(78,141)"/>
<path d="M0 0 C0.99 0.33 1.98 0.66 3 1 C2 4 2 4 0 5 C-0.65213292 7.02463255 -0.65213292 7.02463255 -1 9 C-2.65 8.67 -4.3 8.34 -6 8 C-4.02 5.36 -2.04 2.72 0 0 Z " fill="#BB5A54" transform="translate(144,164)"/>
<path d="M0 0 C2.01920337 1.30406884 4.01924973 2.63823419 6 4 C6 4.33 6 4.66 6 5 C0.31150252 6.49697302 -4.41809068 5.3348044 -10 4 C-10 3.67 -10 3.34 -10 3 C-6.7 3 -3.4 3 0 3 C0 2.01 0 1.02 0 0 Z " fill="#B56161" transform="translate(144,17)"/>
<path d="M0 0 C0.33 0.66 0.66 1.32 1 2 C0.109375 4.3125 0.109375 4.3125 -1.25 7 C-1.90742187 8.3303125 -1.90742187 8.3303125 -2.578125 9.6875 C-4 12 -4 12 -7 14 C-5.53967505 8.68972746 -3.01679014 4.53669968 0 0 Z " fill="#B6605D" transform="translate(67,32)"/>
<path d="M0 0 C1.65 0 3.3 0 5 0 C5.33 1.32 5.66 2.64 6 4 C2.25 5.125 2.25 5.125 0 4 C0 2.68 0 1.36 0 0 Z " fill="#C96055" transform="translate(59,165)"/>
<path d="M0 0 C1.67542976 0.28604898 3.34385343 0.61781233 5 1 C5.6875 2.8125 5.6875 2.8125 6 5 C4.5625 6.75 4.5625 6.75 3 8 C2.34 7.67 1.68 7.34 1 7 C1.66 5.35 2.32 3.7 3 2 C1.68 1.67 0.36 1.34 -1 1 C-0.67 0.67 -0.34 0.34 0 0 Z " fill="#BD6364" transform="translate(129,126)"/>
<path d="M0 0 C2.6855594 2.6855594 3.06049974 5.37621328 4 9 C3.34 9 2.68 9 2 9 C1.67 8.34 1.34 7.68 1 7 C0.67 8.65 0.34 10.3 0 12 C-0.33 12 -0.66 12 -1 12 C-1.02687279 10.18757948 -1.04633715 8.37504767 -1.0625 6.5625 C-1.07410156 5.55316406 -1.08570312 4.54382813 -1.09765625 3.50390625 C-1 1 -1 1 0 0 Z " fill="#A54F4A" transform="translate(125,5)"/>
<path d="M0 0 C0.928125 0.33 1.85625 0.66 2.8125 1 C5.92029291 2.14967004 5.92029291 2.14967004 9 2 C11.1875 3.5 11.1875 3.5 13 5 C10.34501768 6.0169313 9.30844625 6.13022151 6.640625 5.00390625 C5.85171875 4.52824219 5.0628125 4.05257812 4.25 3.5625 C3.45078125 3.08941406 2.6515625 2.61632812 1.828125 2.12890625 C1.22484375 1.75636719 0.6215625 1.38382813 0 1 C0 0.67 0 0.34 0 0 Z " fill="#AA615A" transform="translate(88,156)"/>
<path d="M0 0 C1.98 0 3.96 0 6 0 C5.51917969 0.39832031 5.03835937 0.79664063 4.54296875 1.20703125 C2.62608175 3.43450247 2.52258357 4.78834669 2.3125 7.6875 C2.21388672 8.89986328 2.21388672 8.89986328 2.11328125 10.13671875 C2.07589844 10.75160156 2.03851563 11.36648437 2 12 C1.67 12 1.34 12 1 12 C0.67 8.04 0.34 4.08 0 0 Z " fill="#B1645B" transform="translate(102,6)"/>
<path d="M0 0 C3.95820859 0.56545837 6.6659053 1.80902348 10 4 C9.67 4.66 9.34 5.32 9 6 C4.05 4.02 4.05 4.02 -1 2 C-0.67 1.34 -0.34 0.68 0 0 Z " fill="#B36559" transform="translate(188,166)"/>
<path d="M0 0 C2.64 0 5.28 0 8 0 C5.63707344 2.52588702 4.33537489 3.88820837 1 5 C0.67 3.35 0.34 1.7 0 0 Z " fill="#C05C54" transform="translate(42,208)"/>
<path d="M0 0 C2.64 0 5.28 0 8 0 C7.67 1.65 7.34 3.3 7 5 C5.68 4.34 4.36 3.68 3 3 C3 2.34 3 1.68 3 1 C2.01 0.67 1.02 0.34 0 0 Z " fill="#C96963" transform="translate(109,158)"/>
<path d="M0 0 C0.33 0.99 0.66 1.98 1 3 C-0.96466413 4.06775224 -2.96855359 5.06553465 -5 6 C-5.66 5.67 -6.32 5.34 -7 5 C-6.67 4.01 -6.34 3.02 -6 2 C-4.0625 1.25 -4.0625 1.25 -2 1 C-1.34 1.33 -0.68 1.66 0 2 C0 1.34 0 0.68 0 0 Z " fill="#CA5D59" transform="translate(71,87)"/>
<path d="M0 0 C0.33 0 0.66 0 1 0 C1.99 4.62 2.98 9.24 4 14 C3.34 14 2.68 14 2 14 C-0.28062828 10.57905758 -0.21925007 9.31812778 -0.125 5.3125 C-0.10695312 4.31863281 -0.08890625 3.32476562 -0.0703125 2.30078125 C-0.04710937 1.54152344 -0.02390625 0.78226562 0 0 Z " fill="#BB6362" transform="translate(43,72)"/>
<path d="M0 0 C0.66 0 1.32 0 2 0 C2 1.98 2 3.96 2 6 C3.32 6.33 4.64 6.66 6 7 C4.02 7.33 2.04 7.66 0 8 C0 5.36 0 2.72 0 0 Z " fill="#C5625D" transform="translate(59,202)"/>
<path d="M0 0 C2.375 -0.1875 2.375 -0.1875 5 0 C5.66 0.99 6.32 1.98 7 3 C5.35 3.33 3.7 3.66 2 4 C2 3.34 2 2.68 2 2 C1.34 2 0.68 2 0 2 C0 1.34 0 0.68 0 0 Z " fill="#D55A54" transform="translate(86,151)"/>
<path d="M0 0 C0.66 0.33 1.32 0.66 2 1 C1.67 3.97 1.34 6.94 1 10 C0.34 9.67 -0.32 9.34 -1 9 C-1.09765625 2.84765625 -1.09765625 2.84765625 -1 1 C-0.67 0.67 -0.34 0.34 0 0 Z " fill="#B86968" transform="translate(66,92)"/>
<path d="M0 0 C0.33 0 0.66 0 1 0 C1 3.3 1 6.6 1 10 C-0.32 10 -1.64 10 -3 10 C-3 9.34 -3 8.68 -3 8 C-2.34 8 -1.68 8 -1 8 C-0.67 5.36 -0.34 2.72 0 0 Z " fill="#B26F65" transform="translate(35,267)"/>
<path d="M0 0 C0.99 0.33 1.98 0.66 3 1 C2.34 2.32 1.68 3.64 1 5 C-1.31 4.67 -3.62 4.34 -6 4 C-2.25 2 -2.25 2 0 2 C0 1.34 0 0.68 0 0 Z " fill="#C85F53" transform="translate(127,179)"/>
<path d="M0 0 C0.99 0.33 1.98 0.66 3 1 C2.67 1.99 2.34 2.98 2 4 C0.68 4 -0.64 4 -2 4 C-2 4.66 -2 5.32 -2 6 C-2.66 5.67 -3.32 5.34 -4 5 C-2.68 3.35 -1.36 1.7 0 0 Z " fill="#D25E5B" transform="translate(143,146)"/>
<path d="M0 0 C0 3 0 3 -1.75 5.25 C-2.86375 6.11625 -2.86375 6.11625 -4 7 C-5.32 6.67 -6.64 6.34 -8 6 C-5.36 4.02 -2.72 2.04 0 0 Z " fill="#AA5550" transform="translate(137,172)"/>
<path d="M0 0 C-2.39509338 2.89932357 -4.31245243 3.50168276 -8 4 C-8 3.01 -8 2.02 -8 1 C-5.29120665 -0.35439668 -2.99066732 -0.06501451 0 0 Z " fill="#D25C5F" transform="translate(139,154)"/>
<path d="M0 0 C-0.66 0.66 -1.32 1.32 -2 2 C-3.32 2 -4.64 2 -6 2 C-6 2.99 -6 3.98 -6 5 C-6.66 5 -7.32 5 -8 5 C-7.75 3.125 -7.75 3.125 -7 1 C-4.09342573 -1.03460199 -3.47133392 -1.15711131 0 0 Z " fill="#CA6256" transform="translate(75,31)"/>
<path d="M0 0 C2.125 0.375 2.125 0.375 4 1 C3.01 1.495 3.01 1.495 2 2 C1.34444881 4.52733235 1.34444881 4.52733235 1 7 C-1 6 -1 6 -1.75 4.0625 C-1.8325 3.381875 -1.915 2.70125 -2 2 C-1.34 1.34 -0.68 0.68 0 0 Z " fill="#915E6C" transform="translate(130,12)"/>
</svg>
